<?xml version="1.0" standalone="no"?>
<!DOCTYPE svg PUBLIC "-//W3C//DTD SVG 1.1//EN" "http://www.w3.org/Graphics/SVG/1.1/DTD/svg11.dtd" >
<svg xmlns="http://www.w3.org/2000/svg" xmlns:xlink="http://www.w3.org/1999/xlink" version="1.1">
<metadata></metadata>
<defs>
<font id="cleanvertisingblack" horiz-adv-x="300" >
<font-face units-per-em="1000" ascent="750" descent="-250" />
<missing-glyph horiz-adv-x="198" />
<glyph unicode="&#xd;" horiz-adv-x="198" />
<glyph unicode=" "  horiz-adv-x="198" />
<glyph unicode="&#x09;" horiz-adv-x="198" />
<glyph unicode="&#xa0;" horiz-adv-x="198" />
<glyph unicode="!" horiz-adv-x="284" d="M75 233l-26 441h186l-26 -441h-134zM141 -11q-102 0 -102 103q0 104 102 104q101 0 103 -104q0 -103 -102 -103h-1z" />
<glyph unicode="&#x22;" horiz-adv-x="423" d="M185 693l-26 -285h-104l-26 285h156zM395 693l-26 -285h-104l-26 285h156z" />
<glyph unicode="#" horiz-adv-x="554" d="M290 663l1 -1h1l-27 -168h88q24 166 26 169h101l1 -1h1l-25 -168h78l1 -1v-106l-1 -2h-95l-16 -99h80l2 -1v-106l-2 -2h-98l-26 -172h-104v0l26 172h-86l-26 -172h-104v0l26 172h-80l-2 2v106l2 1h98q2 0 8 48l8 51h-83l-2 2v106l2 1h100v1q23 159 25 168h102zM246 379 l-14 -99h85l16 99h-87z" />
<glyph unicode="$" horiz-adv-x="573" d="M228 -88v93q-104 4 -177 42l33 139q39 -19 79 -30q49 -14 96 -14q86 0 86 46q0 41 -104 73q-89 29 -133 69q-52 47 -52 118q0 150 177 186v92h114v-84q48 -2 88 -11q33 -8 63 -21l-32 -133l-24 10q-17 7 -33 11q-45 13 -94 13q-77 0 -77 -43q0 -32 118 -74 q172 -56 172 -189q0 -158 -186 -191v-102h-114z" />
<glyph unicode="%" horiz-adv-x="958" d="M228 679h10q35 0 65 -11v-1l-54 -89q-8 4 -17 4h-4q-41 0 -52 -63q-4 -22 -4 -44q0 -79 40 -100q10 -4 20 -4q35 0 48 45q7 26 7 54v11q0 27 -7 55l64 110h3q74 -57 74 -163q0 -119 -89 -180q-48 -30 -104 -30h-2q-105 0 -162 92q-26 50 -26 102v8q0 106 81 170 q49 34 109 34zM709 678q-6 -15 -131 -239q-232 -424 -242 -440h-94v0l374 679h93zM722 406h13q94 0 149 -79q32 -52 32 -117q0 -136 -113 -194q-40 -17 -82 -17q-36 0 -65 12l53 88l17 -2q46 0 54 78l1 23v10q-1 80 -38 97q-8 3 -16 3h-5q-41 0 -53 -65q-2 -17 -3 -40 q0 -33 10 -66v-1l-62 -104h-2q-80 60 -80 163v10q0 75 48 135q57 66 142 66z" />
<glyph unicode="&#x26;" horiz-adv-x="729" d="M338 692q47 0 106 -30q76 -50 76 -137q0 -106 -129 -172v-3q62 -72 90 -100q22 35 35 74q12 30 20 76l1 1h159l1 -1h1q-12 -62 -29 -111q-32 -87 -90 -150q63 -75 122 -139v-1h-195q-159 166 -274 289q-37 -32 -37 -70v-9q0 -36 30 -65q30 -24 72 -24l25 1l98 -101 q-64 -32 -148 -32q-171 0 -232 116q-18 37 -18 72v11q0 119 129 191v1q-51 59 -51 128q0 82 72 141q23 17 48 28q30 11 68 16v-1v-117q-24 -20 -24 -46v-8q0 -39 44 -83q57 40 57 85q0 35 -29 54v115q0 1 2 1z" />
<glyph unicode="'" horiz-adv-x="213" d="M185 693l-26 -285h-104l-26 285h156z" />
<glyph unicode="(" horiz-adv-x="328" d="M286 690q-40 -74 -63 -168q-27 -110 -27 -235q0 -123 27 -232q23 -95 63 -170h-122q-20 31 -37 68q-20 42 -35 90q-16 53 -25 111q-10 64 -10 133t10 134q9 59 26 112q14 47 34 90q17 36 37 67h122z" />
<glyph unicode=")" horiz-adv-x="328" d="M41 -115q40 74 63 169q27 110 27 234t-27 233q-23 95 -63 169h122q20 -31 37 -67q20 -42 35 -89q16 -54 25 -112q10 -65 10 -134t-10 -134q-9 -58 -25 -111q-15 -47 -35 -90q-17 -36 -37 -68h-122z" />
<glyph unicode="*" horiz-adv-x="471" d="M391 628l-113 -128l1 -3l163 38v-115l-165 30l-1 -2l115 -125l-100 -58l-57 161l-2 -1l-54 -160l-99 58l113 127l-1 1l-161 -31v115l159 -38l1 3l-111 128l101 57l53 -159h3l56 159z" />
<glyph unicode="+" horiz-adv-x="596" d="M355 532v-211h202v-108h-202v-213h-113v213h-202v108h202v211h113z" />
<glyph unicode="," horiz-adv-x="283" d="M-5 -118q55 156 79 304l179 10q-58 -171 -139 -304z" />
<glyph unicode="-" horiz-adv-x="328" d="M298 318v-117h-268v117h268z" />
<glyph unicode="." horiz-adv-x="283" d="M151 -11q-102 0 -102 105t103 105q101 0 103 -105q0 -105 -103 -105h-1z" />
<glyph unicode="/" horiz-adv-x="326" d="M24 -40l186 725h115l-186 -725h-115z" />
<glyph unicode="0" horiz-adv-x="584" d="M260 681l1 -1v-141q-27 -19 -39 -58q-16 -51 -16 -144q0 -155 49 -191q15 -9 28 -9q76 0 76 206q0 157 -49 193l-1 1v142l1 2q45 -3 94 -28q73 -40 110 -139q28 -77 28 -162v-19q0 -174 -93 -271q-40 -34 -74 -46q-43 -15 -92 -15h-1q-180 0 -240 194q-18 68 -18 137v14 q0 179 97 276q56 47 109 55q21 4 30 4z" />
<glyph unicode="1" horiz-adv-x="498" d="M202 491h-2l-128 -58l-29 135l186 82h147v-650h-174v491z" />
<glyph unicode="2" horiz-adv-x="573" d="M41 0v109l90 79q54 47 87 78q39 36 62 64q50 59 51 106q0 81 -97 81q-37 0 -76 -17q-31 -13 -63 -36l-49 129q40 30 96 48q62 20 128 20q113 0 177 -57q64 -56 64 -153q0 -71 -47 -141q-19 -29 -48 -59q-24 -25 -56 -51l-64 -50v-2h226v-148h-481z" />
<glyph unicode="3" horiz-adv-x="573" d="M70 170q12 -6 27 -12q19 -7 38 -13q49 -14 90 -14q106 0 106 69q0 38 -35 59q-31 19 -79 19h-68v128h64q40 0 68 13q34 15 34 46q0 55 -87 55q-37 0 -80 -13q-34 -10 -59 -24l-34 129q33 20 89 34q61 15 125 15q105 0 169 -48q60 -45 60 -117q0 -108 -119 -150v-2 q60 -10 98 -51q41 -43 41 -103q0 -90 -76 -145q-76 -56 -202 -56q-63 0 -120 14q-51 12 -84 32z" />
<glyph unicode="4" horiz-adv-x="598" d="M483 632l1 -2v-324l-1 -1h-170l-1 1v64q0 39 4 131h-4q-34 -79 -118 -241l-1 -2h363l1 -2v-133l-1 -1h-72v-147l-1 -1h-170l-1 1v147h-284l-2 1v115q2 7 108 187l121 207h228z" />
<glyph unicode="5" horiz-adv-x="573" d="M494 502h-254l-9 -70l19 2h18q116 0 185 -52q73 -55 73 -162q0 -95 -76 -160q-83 -71 -219 -71q-58 0 -111 11q-47 10 -78 25l30 135q25 -12 64 -21q45 -10 85 -10q48 0 81 18q39 21 39 63q0 92 -181 92q-45 0 -87 -6l43 354h378v-148z" />
<glyph unicode="6" horiz-adv-x="600" d="M451 660q31 0 31 -4v-136l-2 -1h-52q-171 0 -218 -117q-22 -56 -22 -128q0 -113 57 -147q24 -14 52 -14h7q34 0 56 43q11 24 11 50v12q0 44 -32 74q-23 16 -48 16q-22 0 -47 -9v9q0 64 32 111q10 13 32 13q22 4 42 4q107 0 171 -88q35 -57 35 -119v-16q0 -97 -80 -172 q-74 -61 -173 -61q-124 0 -199 78q-74 84 -74 208v10q0 156 101 270q48 46 81 61q87 53 239 53z" />
<glyph unicode="7" horiz-adv-x="573" d="M526 650v-112l-261 -538h-192l262 500v2h-289v148h480z" />
<glyph unicode="8" horiz-adv-x="569" d="M304 670q66 0 132 -36q50 -33 69 -85q8 -24 8 -44v-12q0 -68 -65 -121l-25 -16v-2q69 -26 98 -84q18 -34 18 -74v-5q0 -115 -119 -173q-66 -28 -147 -28q-163 0 -232 102q-23 40 -23 79v7q0 79 63 129q45 -22 138 -64l-11 -26q-4 -15 -4 -25q0 -45 44 -71q18 -7 32 -7 q47 0 67 41q4 8 5 27q0 64 -88 96q-87 35 -117 51q-109 63 -109 153q0 112 123 168q57 20 93 20v-123q0 -1 -14 -6q-29 -20 -29 -54v-3q0 -43 73 -71l7 -2q20 5 38 28q13 20 13 40q0 47 -41 66v124q0 1 3 1z" />
<glyph unicode="9" horiz-adv-x="578" d="M270 660h8q157 0 228 -136q31 -69 31 -147v-7q0 -186 -107 -290q-106 -100 -299 -100h-6l-47 1v1v138v1v1q39 -8 65 -8h3q80 0 146 43q83 58 83 231v1q0 107 -69 133q-16 6 -34 6h-3q-47 0 -67 -57q-4 -17 -4 -35v-4q0 -64 50 -86q14 -4 24 -4h8q16 0 32 6h1 q-4 -54 -12 -75q-14 -43 -40 -58q-32 -7 -57 -7q-113 0 -166 106q-22 48 -22 102v8q0 101 88 178q76 58 166 58z" />
<glyph unicode=":" horiz-adv-x="283" d="M151 299q-101 0 -101 104t102 104q100 0 102 -104q0 -104 -102 -104h-1zM151 -11q-101 0 -101 104t102 104q100 0 102 -104q0 -104 -102 -104h-1z" />
<glyph unicode=";" horiz-adv-x="283" d="M-4 -118q55 159 78 304l178 10q-58 -171 -139 -304zM155 299q-101 0 -101 104t102 104q100 0 102 -104q0 -104 -102 -104h-1z" />
<glyph unicode="&#x3c;" horiz-adv-x="596" d="M54 315l488 216v-122l-352 -143v-2l352 -142v-122l-488 216v99z" />
<glyph unicode="=" horiz-adv-x="596" d="M40 319v108h516v-108h-516zM40 107v108h516v-108h-516z" />
<glyph unicode="&#x3e;" horiz-adv-x="596" d="M542 211l-488 -211v121l362 143v2l-362 144v121l488 -212v-108z" />
<glyph unicode="?" horiz-adv-x="463" d="M136 231v26q-3 79 57 149l20 24l17 23q16 25 16 44q0 47 -62 48q-57 0 -99 -29l-38 129q32 17 73 28q50 13 104 13q100 0 155 -48q49 -43 49 -111q0 -53 -30 -100q-11 -17 -28 -37l-28 -30q-47 -51 -48 -114v-15h-158zM211 -11q-102 0 -102 103q0 104 102 104 q101 0 103 -104q0 -103 -102 -103h-1z" />
<glyph unicode="@" horiz-adv-x="768" d="M404 606h10q130 0 224 -88q82 -86 82 -205q0 -140 -92 -210q-48 -32 -105 -32q-85 0 -105 42q-9 19 -9 49q0 34 20 183q-13 3 -24 3q-50 0 -82 -56q-17 -33 -17 -67v-8q0 -39 28 -49l14 -3q7 0 20 6v-1l-12 -89q-25 -10 -52 -10q-79 0 -108 80q-8 28 -8 55q0 105 78 178 q66 55 152 55h10q64 0 120 -26v-1q-28 -194 -30 -215v-14q0 -29 21 -35h10q43 0 74 71q13 43 13 85v12q0 108 -84 176q-65 45 -156 45q-123 0 -213 -98q-71 -88 -71 -205v-3q0 -159 121 -228q61 -32 137 -32q77 0 145 30q8 -23 18 -65l-1 -1q-75 -34 -185 -34 q-136 0 -235 96q-86 93 -86 219v10q0 137 92 251q47 49 67 60q99 69 219 69z" />
<glyph unicode="A" horiz-adv-x="681" d="M456 677q3 0 19 -58l184 -617l-1 -1h-194q-2 0 -16 55l-28 102h-136v1l27 133h84l-65 254h-1l-121 -544l-1 -1h-185l-2 2l196 674h240z" />
<glyph unicode="B" horiz-adv-x="619" d="M247 702h24q140 0 204 -35q95 -50 95 -147v-2q0 -98 -113 -146l-3 -1v-3q68 -19 105 -67q34 -46 34 -107q0 -104 -98 -168q-29 -17 -72 -31q-90 -20 -153 -20l-1 1v136q0 2 38 5q34 8 46 16q39 24 39 71q0 59 -73 77q-26 5 -48 5v0l-2 2v133q0 2 38 6q28 6 42 16 q29 20 29 49v7q0 50 -67 63l-27 2h-7q-33 0 -57 -4v-584l-2 -1h-11q-110 0 -176 12l-1 1v697q0 3 76 11q77 6 141 6z" />
<glyph unicode="C" horiz-adv-x="602" d="M566 18q-21 -11 -64 -19q-49 -9 -105 -9q-179 0 -276 101q-87 90 -87 235q0 170 112 268q103 90 263 90q54 0 102 -9q43 -8 66 -20l-35 -143q-25 11 -53 17q-35 7 -72 7q-83 0 -135 -48q-58 -53 -58 -150q0 -198 197 -198q72 0 120 19z" />
<glyph unicode="D" horiz-adv-x="700" d="M249 692h22q240 0 337 -127q63 -82 63 -209q0 -210 -150 -306q-44 -25 -91 -38q-44 -15 -111 -22l-44 -4l-1 1v142l1 1h3q93 0 152 68q44 60 44 145v15q0 100 -67 154q-49 38 -126 38q-34 0 -56 -4v-559l-2 -1h-10q-101 0 -173 12l-1 1v677q0 3 74 11q69 5 136 5z" />
<glyph unicode="E" horiz-adv-x="552" d="M485 272h-242v-124h271v-148h-452v674h438v-148h-257v-108h242v-146z" />
<glyph unicode="F" horiz-adv-x="545" d="M62 674h433v-148h-252v-124h237v-146h-237v-256h-181v674z" />
<glyph unicode="G" horiz-adv-x="697" d="M646 31q-45 -15 -103 -25q-70 -13 -130 -13q-187 0 -283 91t-96 243q1 170 116 265q107 89 278 89q64 0 119 -10q47 -9 76 -23l-36 -145q-31 14 -66 21q-41 8 -94 8q-89 0 -143 -46q-60 -51 -60 -149q0 -92 54 -147q53 -52 137 -52q44 0 57 6v116h-90v140h264v-369z" />
<glyph unicode="H" horiz-adv-x="705" d="M243 674v-250h219v250h181v-674h-181v266h-219v-266h-181v674h181z" />
<glyph unicode="I" horiz-adv-x="305" d="M243 674v-674h-181v674h181z" />
<glyph unicode="J" horiz-adv-x="429" d="M191 674h181v-416q0 -142 -67 -208q-63 -61 -189 -61q-71 0 -119 16l19 145q40 -11 79 -11q47 0 70 25q26 28 26 94v416z" />
<glyph unicode="K" horiz-adv-x="646" d="M62 674h179v-286h2l38 65l135 221h222l-214 -287l222 -387h-209l-142 273l-54 -69v-204h-179v674z" />
<glyph unicode="L" horiz-adv-x="528" d="M62 674h181v-523h259v-151h-440v674z" />
<glyph unicode="M" horiz-adv-x="865" d="M633 242q-2 55 -3 125q-1 63 -1 146h-3q-15 -62 -35 -138q-18 -65 -36 -126l-67 -235h-141l-56 235q-13 52 -28 125q-14 67 -26 139h-2l-10 -271l-11 -242h-166l42 674h243l44 -182q15 -58 28 -120q15 -67 25 -126h3l30 128q18 73 31 120l51 180h237l34 -674h-175z" />
<glyph unicode="N" horiz-adv-x="705" d="M62 0v674h213l107 -207q26 -48 56 -113q26 -60 50 -123h3q-14 125 -14 283v160h165v-674h-190l-115 224q-31 59 -58 118q-33 68 -55 125h-4q7 -127 7 -301v-166h-165z" />
<glyph unicode="O" horiz-adv-x="723" d="M600 100q-93 -105 -243 -105q-153 0 -242 105q-81 96 -81 243q0 157 81 254q80 96 220 107v-147q-53 -11 -83 -68q-29 -55 -29 -140q0 -91 36 -148q39 -60 102 -60q64 0 102 60q37 58 37 149q0 86 -31 142q-32 56 -88 66v147q144 -5 228 -108q80 -97 80 -243 q0 -154 -89 -254z" />
<glyph unicode="P" horiz-adv-x="604" d="M260 687h21q199 0 262 -116q25 -50 25 -104q0 -165 -161 -220q-63 -19 -129 -19l-1 1v138q0 2 27 4q21 5 41 16q41 28 41 76q0 60 -58 80q-24 6 -45 6q-31 -1 -53 -4v-545l-2 -1h-178l-2 1v671q0 2 61 8q69 8 151 8z" />
<glyph unicode="Q" horiz-adv-x="760" d="M385 695h10q162 0 257 -123q68 -97 68 -221q0 -139 -78 -239q-21 -23 -23 -23q-70 17 -136 42q-38 16 -40 18q42 22 66 84q17 49 17 107v7q0 118 -67 177q-33 26 -76 26q-65 0 -107 -67q-33 -57 -33 -143q0 -147 129 -210q52 -29 166 -66q82 -27 160 -43q24 -5 24 -7 l-51 -138h-1q-104 30 -211 75q-81 38 -106 38q-58 0 -134 36q-104 56 -146 167q-24 66 -24 139v12q0 143 90 248q99 104 246 104z" />
<glyph unicode="R" horiz-adv-x="653" d="M233 686l1 -1v-299h54q64 0 93 47q8 18 8 33v9q0 46 -46 67q-20 8 -47 8h-14l-1 1v133l1 2h3q218 0 269 -116q17 -38 17 -86q0 -90 -88 -151q-25 -14 -29 -14v-2q21 -11 34 -23q38 -37 59 -120q32 -127 50 -176h-1h-185q-13 19 -37 110q-18 82 -30 105q-20 41 -74 41h-36 v-255l-2 -1h-178l-2 1v671q0 2 61 8q86 8 120 8z" />
<glyph unicode="S" horiz-adv-x="561" d="M74 180q34 -18 77 -29q51 -13 98 -13q92 0 92 55q0 41 -106 77q-91 33 -138 79q-52 52 -52 124q0 92 72 150q74 61 199 61q56 0 105 -10q41 -8 77 -24l-38 -145q-6 3 -12 5q-7 3 -14 5q-16 7 -33 11q-43 11 -87 11q-85 0 -85 -50q0 -33 121 -79q175 -65 175 -203 q0 -93 -70 -151q-76 -64 -217 -64q-57 0 -115 13q-52 12 -83 28z" />
<glyph unicode="T" horiz-adv-x="570" d="M193 522h-172v152h528v-152h-175v-522h-181v522z" />
<glyph unicode="U" horiz-adv-x="697" d="M242 674v-383q0 -159 106 -159q107 0 107 159v383h181v-372q0 -313 -293 -313q-282 0 -282 317v368h181z" />
<glyph unicode="V" horiz-adv-x="671" d="M226 0l-214 674h198l72 -265q33 -119 56 -236h2q11 59 26 120q13 55 29 113l73 268h192l-220 -674h-214z" />
<glyph unicode="W" horiz-adv-x="906" d="M170 0l-155 674h194l57 -371l16 -116h2q8 53 19 117q8 53 21 123l43 247h193l42 -259q9 -56 16 -112q7 -50 14 -111h2l34 235l40 247h183l-166 -674h-197l-45 264q-16 93 -28 202h-2l-8 -57q-4 -29 -8 -51q-8 -54 -16 -94l-51 -264h-200z" />
<glyph unicode="X" horiz-adv-x="631" d="M410 0l-49 110l-52 117h-2q-7 -23 -20 -57l-69 -170h-205l190 341l-183 333h207l46 -107q20 -48 45 -112h2q18 53 40 111l41 108h206l-183 -329l195 -345h-209z" />
<glyph unicode="Y" horiz-adv-x="629" d="M219 0v272l-212 402h207l57 -152q17 -43 24 -64q12 -31 22 -61h2q19 61 43 125l55 152h204l-221 -395v-279h-181z" />
<glyph unicode="Z" horiz-adv-x="588" d="M21 96l298 425v4h-270v149h504v-103l-289 -418v-4h294v-149h-537v96z" />
<glyph unicode="[" horiz-adv-x="328" d="M63 -112v798h213v-97h-86v-604h86v-97h-213z" />
<glyph unicode="\" horiz-adv-x="326" d="M187 -40l-171 725h115l171 -725h-115z" />
<glyph unicode="]" horiz-adv-x="328" d="M265 686v-798h-213v97h86v604h-86v97h213z" />
<glyph unicode="^" horiz-adv-x="596" d="M436 172l-137 342h-3l-137 -342h-124l211 478h105l211 -478h-126z" />
<glyph unicode="_" horiz-adv-x="500" d="M500 -75v-50h-500v50h500z" />
<glyph unicode="`" d="M156 706l85 -156h-123l-122 156h160z" />
<glyph unicode="a" horiz-adv-x="547" d="M256 506h13q106 0 166 -56q31 -32 40 -60q19 -39 19 -121v-165q0 -65 8 -106l-1 -1h-164q-2 0 -10 43h-4q-49 -54 -135 -54h-5q-81 0 -130 60q-33 43 -33 92v8q0 114 118 152q59 16 129 16h1v-92q0 -1 -25 -7q-44 -17 -44 -55q0 -36 35 -46l14 -1h4q40 0 62 44q2 13 2 45 v77q0 64 -18 79q-20 24 -65 24h-9q-60 0 -137 -36q-1 2 -32 115q89 45 201 45z" />
<glyph unicode="b" horiz-adv-x="612" d="M56 720h180l2 -2v-270h1q51 61 143 61q106 0 166 -97q37 -63 37 -152q0 -160 -105 -238q-50 -34 -102 -34q-64 0 -104 38l-1 1v113l1 1v1q18 -10 33 -10h9q49 0 72 53q12 29 12 66q0 88 -58 113q-16 5 -30 5q-72 0 -85 -112l-1 -18l1 -239l-1 -1h-174l-2 1q4 80 4 181 v537z" />
<glyph unicode="c" horiz-adv-x="452" d="M433 11q-43 -21 -135 -21q-123 0 -195 68q-72 67 -72 184q0 111 73 183q78 77 216 77q63 0 113 -17l-25 -132q-29 12 -78 12q-116 0 -114 -117q0 -57 36 -89q32 -29 83 -29q46 0 79 13z" />
<glyph unicode="d" horiz-adv-x="602" d="M370 720h181l1 -2v-568q0 -85 4 -150l-1 -1h-174l-2 1v176l1 63q0 58 -27 100q-24 30 -58 30q-64 0 -84 -72q-4 -24 -4 -47q0 -94 62 -115q11 -3 22 -3h8q12 0 33 9v-114q-39 -39 -104 -39q-87 0 -153 84q-54 77 -54 181v15q0 116 73 190q55 51 131 51q91 0 141 -61v0h2 v270z" />
<glyph unicode="e" horiz-adv-x="550" d="M278 505h10q127 0 190 -106q35 -64 35 -150q0 -32 -7 -68h-1h-256q-17 29 -17 74q0 28 9 50h103v0q0 48 -34 71q-16 9 -33 9h-7q-56 0 -86 -76q-10 -32 -10 -61v-1q0 -60 33 -101q35 -35 104 -35q62 0 151 27l23 -121q-77 -32 -187 -32q-188 0 -253 140q-21 52 -21 110v8 q0 101 70 185q74 77 184 77z" />
<glyph unicode="f" horiz-adv-x="396" d="M77 0v360h-63v132h63v16q0 45 15 86q17 47 49 76q29 27 70 40q35 11 73 11q42 0 83 -9l-3 -138q-23 5 -46 5q-62 0 -62 -63v-24h90v-132h-88v-360h-181z" />
<glyph unicode="g" horiz-adv-x="559" d="M234 497h8q84 0 124 -65h1q2 0 7 50v3l1 1h155l1 -1h1q-4 -53 -4 -135v-280q0 -164 -72 -226q-69 -68 -217 -68q-107 0 -185 37v1l35 137h1q71 -36 144 -36q84 0 108 73q4 18 4 36v259q0 42 -32 67q-17 10 -36 10q-57 0 -73 -58q-7 -25 -7 -62v-1q0 -81 54 -107 q12 -5 26 -5h2q8 0 18 2v-1v-114q-28 -16 -73 -16h-7q-110 0 -173 100q-33 62 -33 132v12q0 118 80 198q65 57 142 57z" />
<glyph unicode="h" horiz-adv-x="599" d="M55 711h181v-271h2q23 28 58 46q34 17 75 17q173 0 173 -218v-285h-181v265q0 93 -64 93q-41 0 -59 -39q-4 -11 -4 -29v-290h-181v711z" />
<glyph unicode="i" horiz-adv-x="292" d="M55 0v492h181v-492h-181zM145 543q-91 0 -91 85q0 86 92 86q90 0 92 -86q0 -85 -92 -85h-1z" />
<glyph unicode="j" horiz-adv-x="312" d="M-37 -76q62 5 87 30q29 28 29 150v388h181v-426q0 -155 -74 -220q-71 -62 -206 -62zM168 543q-91 0 -91 85q0 86 92 86q90 0 92 -86q0 -85 -92 -85h-1z" />
<glyph unicode="k" horiz-adv-x="575" d="M236 292h2l16 32l97 168h215l-170 -198l195 -294h-222l-97 188l-36 -48v-140h-181v711h181v-419z" />
<glyph unicode="l" horiz-adv-x="292" d="M55 711h181v-711h-181v711z" />
<glyph unicode="m" horiz-adv-x="871" d="M56 324q0 45 -1 92l-3 76h151l7 -62h4l18 22q14 14 30 24q42 27 98 27q100 0 133 -79h2q27 37 68 59q38 20 87 20q167 0 167 -214v-289h-175v262q0 96 -58 96q-41 0 -55 -42q-5 -12 -5 -36v-280h-175v267q0 91 -58 91q-21 0 -37 -14q-11 -10 -18 -26q-5 -15 -5 -37v-281 h-175v324z" />
<glyph unicode="n" horiz-adv-x="599" d="M55 324q0 45 -1 92l-3 76h156l8 -63h3q8 12 19 23q14 13 31 24q44 27 98 27q178 0 178 -213v-290h-181v268q0 90 -63 90q-24 0 -40 -14q-11 -11 -19 -29q-5 -11 -5 -36v-279h-181v324z" />
<glyph unicode="o" horiz-adv-x="565" d="M471 58q-72 -70 -195 -70q-113 0 -183 69q-69 69 -69 179q0 118 72 187q64 63 166 70v-127q-55 -19 -55 -125q0 -55 17 -89q20 -39 57 -39q41 0 61 40q18 33 18 88q0 100 -52 123v129q104 -7 168 -72q67 -67 67 -176q0 -117 -72 -187z" />
<glyph unicode="p" horiz-adv-x="600" d="M372 503h7q89 0 153 -84q49 -70 49 -172q0 -154 -109 -230q-55 -35 -116 -35h-4q-41 0 -71 15v128h1v1q12 -5 26 -5v0q59 0 80 68q8 25 8 51q0 94 -62 117q-13 3 -22 3h-4q-44 0 -68 -49q-6 -18 -6 -26v-491l-2 -1h-180l-2 1v503q0 98 -4 194l1 1h156q2 0 9 -63h3 q57 74 157 74z" />
<glyph unicode="q" horiz-adv-x="600" d="M236 501h10q84 0 127 -62l2 1l3 49l1 1h176l1 -1v0v-6l-3 -150v-541l-1 -1h-181l-2 1v491q0 35 -30 62q-21 14 -40 14h-7q-56 0 -77 -65q-7 -23 -7 -54q0 -86 59 -112q14 -4 27 -4h2q12 0 24 4h1v-123q-3 -6 -37 -17q-27 -8 -56 -8h-4q-88 0 -151 81q-51 72 -51 169v10 q0 141 99 222q57 39 115 39z" />
<glyph unicode="r" horiz-adv-x="403" d="M55 326q0 111 -4 166h154l7 -89h4q18 51 59 78q34 22 72 22q23 0 36 -3v-169q-22 5 -46 5q-83 0 -99 -62q-2 -16 -2 -31v-243h-181v326z" />
<glyph unicode="s" horiz-adv-x="440" d="M46 152q61 -37 136 -37q54 0 54 27q0 21 -64 42q-77 24 -114 66q-32 37 -31 84q0 74 58 121q60 48 156 48q42 0 84 -9q35 -7 62 -19l-29 -122q-21 10 -48 18q-34 9 -61 9q-49 0 -49 -28q0 -21 74 -45q133 -43 135 -152q0 -74 -55 -118q-60 -47 -170 -47q-101 0 -169 35z " />
<glyph unicode="t" horiz-adv-x="383" d="M253 632v-140h102v-132h-102v-141q0 -82 57 -82q28 0 43 4v-137q-37 -14 -107 -14q-78 0 -123 45q-46 46 -46 153v172h-61v132h61v92z" />
<glyph unicode="u" horiz-adv-x="598" d="M541 168q0 -48 1 -94q1 -36 3 -74h-156l-8 65h-3q-20 -30 -48 -48q-43 -28 -101 -28q-175 0 -175 213v290h181v-261q0 -97 63 -97q43 0 58 42q4 9 4 26v290h181v-324z" />
<glyph unicode="v" horiz-adv-x="551" d="M204 492l53 -209q13 -50 23 -116h3q10 67 22 116l49 209h189l-179 -492h-181l-175 492h196z" />
<glyph unicode="w" horiz-adv-x="769" d="M192 492l28 -181l6 -38q4 -22 6 -40q7 -46 12 -85h2q6 36 16 85l56 259h141l44 -206l3 -10l8 -42q10 -50 15 -86h2q4 41 11 86q6 39 14 85l29 173h176l-147 -492h-170l-34 146q-12 54 -27 150h-2q-9 -81 -25 -148l-37 -148h-170l-141 492h184z" />
<glyph unicode="x" horiz-adv-x="544" d="M204 492l39 -73q9 -16 19 -36l17 -34h3l32 73l33 70h195l-159 -233l160 -259h-204l-39 79q-21 40 -32 71h-3l-67 -150h-197l163 251l-161 241h201z" />
<glyph unicode="y" horiz-adv-x="545" d="M205 492l59 -221l21 -88h4l63 309h192l-105 -313q-52 -146 -95 -224q-37 -66 -80 -104q-39 -34 -86 -53q-37 -15 -78 -19l-37 152q32 5 62 19q34 13 58 45q9 13 9 22q0 5 -1 11q-2 7 -6 15l-180 449h200z" />
<glyph unicode="z" horiz-adv-x="486" d="M24 103l126 153q44 50 84 91v2h-194v143h414v-108l-129 -156l-32 -37q-24 -27 -44 -46v-2h214v-143h-439v103z" />
<glyph unicode="{" horiz-adv-x="328" d="M32 331q45 3 62 24q11 14 11 42q0 32 -5 75q-5 45 -5 77q0 137 155 137h42v-98h-18q-53 -1 -53 -64q0 -10 1 -24l3 -27q4 -36 4 -65q1 -102 -91 -120v-2q92 -18 91 -119q0 -29 -4 -67l-3 -26l-1 -23q0 -65 53 -66h18v-97h-42q-155 0 -155 136q0 37 6 77l3 40q1 21 1 37 q0 26 -11 41q-18 21 -63 24z" />
<glyph unicode="|" horiz-adv-x="302" d="M212 750v-1000h-123v1000h123z" />
<glyph unicode="}" horiz-adv-x="328" d="M296 243q-45 -3 -62 -24q-11 -15 -11 -41q0 -16 1 -37l3 -40q5 -45 5 -77q0 -136 -155 -136h-42v97h18q53 1 53 66l-3 49q-4 38 -4 67q-1 101 91 119v2q-92 18 -91 120q0 16 1 35l3 44l2 13q1 14 1 24q0 63 -53 64h-18v98h42q155 0 155 -137q0 -32 -5 -77l-3 -39 q-1 -21 -1 -36q0 -28 12 -42q17 -21 62 -24z" />
<glyph unicode="~" horiz-adv-x="596" d="M40 184q0 107 42 158q37 46 107 46q36 0 69 -13q26 -10 69 -36q66 -39 84 -39q30 0 34 81h111q4 -110 -37 -162q-36 -44 -104 -44q-36 0 -71 14q-26 10 -67 35q-67 42 -84 42t-27 -15q-12 -20 -15 -67h-111z" />
<glyph unicode="&#xa1;" horiz-adv-x="284" d="M50 -189l26 441h134l26 -441h-186zM143 497q102 0 102 -104q-2 -103 -102 -103q-103 0 -103 103q0 104 102 104h1z" />
<glyph unicode="&#xa2;" horiz-adv-x="573" d="M284 -10v96q-96 17 -150 80q-55 63 -55 162q0 92 52 159q55 72 153 92v93h114v-87q51 -4 89 -17l-25 -132q-34 15 -83 15q-115 0 -115 -116q0 -58 35 -89q32 -28 83 -28q53 0 92 15l20 -129q-35 -16 -97 -21v-93h-113z" />
<glyph unicode="&#xa3;" horiz-adv-x="573" d="M49 0v94q42 16 74 50q37 40 37 85q0 19 -2 27h-95v121h73q-6 33 -6 69q0 96 66 156q67 59 175 59q77 0 121 -24l-26 -136q-32 17 -83 17q-47 0 -68 -26q-18 -21 -18 -55q0 -25 8 -60h135v-121h-119q-2 -29 -11 -53q-16 -32 -40 -55v-2h253v-146h-474z" />
<glyph unicode="&#xa4;" horiz-adv-x="573" d="M288 557q69 0 116 -33l79 87l76 -79l-91 -81q0 -1 1 -2l9 -18q6 -13 10 -25q11 -33 11 -70q0 -39 -11 -71q-8 -26 -24 -48l89 -85l-75 -75l-75 91q-47 -38 -118 -38q-72 0 -116 38l-75 -91l-74 75l87 83q-16 24 -24 48q-11 32 -11 71t11 72q4 12 11 25l5 11l6 9l-91 81 l76 79l80 -90q47 36 117 36h1zM285 438q-81 0 -81 -103q0 -49 26 -79q24 -27 56 -27q33 0 56 26q25 30 25 80q0 103 -81 103h-1z" />
<glyph unicode="&#xa5;" horiz-adv-x="573" d="M198 0v153h-156v81h156v60h-156v81h115l-161 275h194l55 -140q11 -27 23 -60l20 -56h1q8 18 21 56l11 30q6 17 12 31l55 139h190l-168 -275h115v-81h-158v-60h158v-81h-158v-153h-169z" />
<glyph unicode="&#xa6;" horiz-adv-x="302" d="M212 174v-350h-123v350h123zM212 674v-350h-123v350h123z" />
<glyph unicode="&#xa7;" horiz-adv-x="579" d="M177 338q0 -43 79 -69l60 -20l9 -2q19 -6 29 -10q15 -5 22 -8q26 12 26 41q0 39 -61 63l-132 47q-32 -10 -32 -41v-1zM460 549q-28 12 -57 18q-38 8 -81 8q-83 0 -83 -36q0 -31 99 -59q49 -14 81 -28q39 -16 64 -36q58 -44 58 -118q0 -77 -77 -123q18 -14 31 -35 q16 -28 16 -60q0 -46 -24 -80q-20 -31 -59 -51q-33 -17 -76 -26q-37 -7 -76 -7q-54 0 -100 9q-59 12 -100 37l31 106q30 -16 69 -27q49 -15 91 -15q81 0 81 38q0 33 -99 62q-47 14 -78 27q-40 16 -67 35q-65 45 -65 117q0 87 87 125q-41 33 -41 94q0 77 67 120q63 41 167 41 q47 0 85 -6q44 -7 81 -23z" />
<glyph unicode="&#xa8;" d="M40 551q-80 0 -80 79t81 79q76 0 76 -79t-76 -79h-1zM260 551q-78 0 -78 79t80 79q77 0 77 -79t-77 -79h-2z" />
<glyph unicode="&#xa9;" horiz-adv-x="677" d="M341 648q127 0 217 -90q89 -90 89 -218q0 -129 -89 -219q-90 -91 -218 -91q-129 0 -219 91q-91 90 -91 219q0 128 91 218q90 90 219 90h1zM338 584q-97 0 -166 -72t-69 -173q0 -102 69 -173q69 -72 167 -72q97 -1 166 71t69 174q0 101 -69 173t-166 72h-1zM458 432 q-5 3 -14 6l-22 8q-30 8 -58 8q-118 0 -118 -117q0 -52 33 -85q32 -33 83 -33q61 0 99 24l16 -58q-49 -32 -123 -32q-87 0 -138 52q-48 50 -48 129q0 83 59 136q56 50 137 50q86 0 110 -28z" />
<glyph unicode="&#xaa;" horiz-adv-x="392" d="M248 266l-7 30h-2q-41 -36 -99 -35q-108 0 -108 99q0 57 55 88q51 28 142 29v5q0 4 -2 7q-2 6 -8 10q-14 12 -46 12q-51 0 -95 -26l-22 74q23 13 54 21q41 11 86 11q80 0 120 -41q36 -37 36 -99v-107q0 -50 5 -78h-109zM233 411q-82 0 -82 -40q0 -33 38 -33q32 0 42 27 l2 10v36z" />
<glyph unicode="&#xab;" horiz-adv-x="484" d="M142 253l113 -194h-121l-108 194l108 193h121zM349 253l113 -194h-121l-108 194l108 193h121z" />
<glyph unicode="&#xac;" horiz-adv-x="596" d="M556 433v-333h-112v225h-404v108h516z" />
<glyph unicode="&#xae;" horiz-adv-x="476" d="M219 430h-55v156l28 4q23 2 46 2q48 0 67 -13q17 -10 17 -34q0 -25 -38 -35v-2q27 -9 34 -41l4 -14q1 -6 3 -11l4 -12h-61q-3 4 -6 14l-5 18q-4 22 -24 22h-14v-54zM221 520h12q26 0 26 17q0 18 -24 18l-14 -1v-34zM240 686q75 0 128 -52q52 -51 52 -124t-53 -124 q-52 -52 -128 -52t-129 52q-54 51 -54 124t54 124q53 52 129 52h1zM237 639q-52 0 -88 -38q-35 -38 -35 -92t35 -91q36 -37 89 -37q53 -1 90 37q35 37 35 92q0 54 -35 91q-37 38 -90 38h-1z" />
<glyph unicode="&#xaf;" d="M281 675v-96h-261v96h261z" />
<glyph unicode="&#xb0;" horiz-adv-x="373" d="M189 685q68 0 114 -45q45 -44 45 -107q0 -66 -48 -110q-47 -44 -113 -44q-69 0 -115 44q-45 44 -45 108q-1 64 46 109t115 45h1zM187 606q-68 0 -68 -75q0 -73 69 -73q68 0 68 73q0 75 -68 75h-1z" />
<glyph unicode="&#xb1;" horiz-adv-x="596" d="M355 583v-164h202v-108h-202v-166h-113v166h-202v108h202v164h113zM557 108v-108h-517v108h517z" />
<glyph unicode="&#xb2;" horiz-adv-x="369" d="M17 508l61 53l48 42q23 20 35 33q29 30 29 57q0 39 -51 39q-47 0 -87 -26l-35 89q65 43 156 43q161 0 161 -124q0 -47 -34 -87q-13 -17 -34 -35q-13 -11 -39 -31l-21 -16v-2h135v-100h-324v65z" />
<glyph unicode="&#xb3;" horiz-adv-x="366" d="M24 806q55 32 151 32q154 0 154 -100q0 -64 -85 -89v-2q100 -9 100 -90q0 -54 -53 -87q-52 -32 -138 -32q-92 0 -143 28l25 90q48 -26 100 -26q64 0 64 36q0 41 -78 41h-32v78h29q29 0 48 7q23 8 23 25q0 29 -48 29q-24 0 -52 -8q-23 -6 -41 -16z" />
<glyph unicode="&#xb4;" d="M309 706l-123 -156h-122l85 156h160z" />
<glyph unicode="&#xb5;" horiz-adv-x="598" d="M382 64q-12 -29 -39 -48q-32 -22 -73 -22q-31 0 -53 19v-35q0 -46 2 -94q3 -57 8 -82h-159q-6 15 -10 70q-3 48 -3 106v514h181v-268q0 -92 58 -92q47 0 63 42q4 11 4 28v290h181v-322q0 -45 39 -47l-9 -122q-19 -12 -65 -12q-92 0 -121 75h-4z" />
<glyph unicode="&#xb6;" horiz-adv-x="556" d="M196 -46v310h-6q-47 0 -96 45q-28 25 -43 58q-18 38 -19 83q-1 44 11 81q14 42 46 73q36 35 93 54q64 21 154 21q104 0 154 -12v-713h-111v616h-72v-616h-111z" />
<glyph unicode="&#xb7;" horiz-adv-x="283" d="M141 153q-102 0 -102 105t103 105q101 0 103 -105q0 -105 -103 -105h-1z" />
<glyph unicode="&#xb8;" d="M208 5l-24 -46q73 -10 73 -74q0 -47 -39 -70q-33 -20 -89 -20q-54 0 -86 21l22 62q31 -17 55 -17q32 0 32 23q0 29 -78 34l41 87h93z" />
<glyph unicode="&#xb9;" horiz-adv-x="324" d="M122 443v280l-84 -35l-17 96l120 49h119v-390h-138z" />
<glyph unicode="&#xba;" horiz-adv-x="399" d="M202 591q77 0 124 -46q46 -45 46 -115q0 -81 -53 -127q-48 -42 -122 -42q-73 0 -121 44q-50 45 -50 118q0 75 48 121q48 47 127 47h1zM198 506q-24 0 -37 -28q-10 -22 -10 -54q0 -78 49 -78q47 0 47 81q0 31 -13 54q-14 25 -35 25h-1z" />
<glyph unicode="&#xbb;" horiz-adv-x="484" d="M23 446h119l110 -193l-110 -194h-119l113 194zM227 446h119l110 -193l-110 -194h-119l113 194z" />
<glyph unicode="&#xbc;" horiz-adv-x="863" d="M133 266v280l-84 -35l-17 96l120 49h119v-390h-138zM188 -11l364 672h94l-363 -672h-95zM651 0v85h-194v73l161 236h159v-224h50v-85h-50v-85h-126zM651 225q0 16 2 39l3 40h-3l-18 -37q-11 -20 -19 -33l-39 -63l3 -1h71v55z" />
<glyph unicode="&#xbd;" horiz-adv-x="863" d="M122 266v280l-84 -35l-17 96l120 49h119v-390h-138zM163 -11l363 672h94l-363 -672h-94zM504 65l61 53l48 42q23 20 35 33q29 30 29 57q0 39 -51 39q-47 0 -87 -26l-35 89q65 43 156 43q161 0 161 -124q0 -47 -34 -87q-13 -17 -34 -35q-13 -11 -39 -31l-21 -16v-2h135 v-100h-324v65z" />
<glyph unicode="&#xbe;" horiz-adv-x="863" d="M40 629q55 32 151 32q154 0 154 -100q0 -64 -86 -89v-2q100 -9 100 -89q0 -55 -53 -88q-52 -32 -138 -32q-92 0 -143 28l25 90q19 -9 45 -17q31 -8 55 -8q64 0 64 35q0 41 -77 41h-32v78h29q29 0 48 7q23 8 23 25q0 29 -48 29q-24 0 -52 -8q-23 -6 -42 -16zM219 -11 l362 672h95l-363 -672h-94zM660 0v85h-194v73l161 236h159v-224h50v-85h-50v-85h-126zM660 225q0 16 2 39l3 40h-3l-18 -37q-11 -20 -19 -33l-39 -63l3 -1h71v55z" />
<glyph unicode="&#xbf;" horiz-adv-x="463" d="M254 497q101 0 101 -104q0 -103 -102 -103q-103 0 -103 103q0 104 103 104h1zM327 256v-25q3 -80 -57 -150l-20 -24l-17 -23q-16 -25 -16 -44q0 -47 62 -48q57 0 99 29l38 -129q-32 -17 -73 -28q-50 -13 -104 -13q-99 0 -154 48q-49 43 -49 111q0 53 30 100q11 18 28 37 l28 30q47 51 48 115v14h157z" />
<glyph unicode="&#xc0;" horiz-adv-x="680" d="M157 861h188q14 -18 84 -127v-1h-148zM460 680q2 0 18 -59l187 -624h-1h-196q-3 3 -17 57l-28 101h-138v1l28 134h84l-64 257h-2l-122 -550h-1h-187l-2 1l198 682h243z" />
<glyph unicode="&#xc1;" horiz-adv-x="674" d="M513 863v0l-124 -130h-148v2l84 128h188zM452 682q2 0 18 -59l187 -624h-1h-196q-3 3 -17 57l-28 101h-138v1l28 134h84l-64 257h-2l-122 -550h-1h-187l-2 1l198 682h243z" />
<glyph unicode="&#xc2;" horiz-adv-x="676" d="M273 862h139q8 -7 103 -129v-1h-124l-48 61h-1l-46 -61h-124v2zM455 681q2 0 18 -59l187 -624h-1h-196q-3 3 -17 57l-28 101h-138v1l28 134h84l-64 257h-2l-122 -550h-1h-187l-2 1l198 682h243z" />
<glyph unicode="&#xc3;" horiz-adv-x="701" d="M508 887l2 -2v-21q0 -98 -62 -115q-13 -3 -23 -3h-4q-43 0 -89 31q-12 6 -19 6h-2q-18 0 -23 -42l-2 -2h-80l-2 2v10q0 100 54 126q16 6 30 6h1q41 0 85 -31q19 -11 28 -11q15 0 21 16l7 30h78zM467 684q2 0 17 -56l188 -627h-1h-196q-3 0 -16 55l-29 103h-138 q0 5 28 135h84l-64 257h-2l-122 -550h-1h-187h-1h-1l198 683h243z" />
<glyph unicode="&#xc4;" horiz-adv-x="679" d="M236 890h5q45 0 69 -50q5 -14 5 -27v-3q0 -50 -51 -75q-14 -4 -25 -4h-3q-50 0 -74 52q-5 13 -5 30q0 46 47 70q16 7 32 7zM459 890h7q46 0 70 -51q4 -16 4 -27v-2q0 -52 -54 -75q-12 -4 -22 -4h-4q-46 0 -70 47q-7 15 -7 33v1q0 50 50 73q14 5 26 5zM459 682q1 0 14 -43 l191 -640h-1h-196q-3 0 -17 57l-28 100h-136l-2 2l28 133h84l-64 257h-2l-122 -549h-188l-2 1l198 681l1 1h242z" />
<glyph unicode="&#xc5;" horiz-adv-x="680" d="M333 936h11q82 0 112 -63q8 -19 8 -41v-4q0 -69 -77 -96q-23 -5 -39 -5h-6l-3 -1l-4 1h-4q-59 0 -96 41q-23 27 -23 61q0 71 75 99q25 8 46 8zM294 832v-4q0 -32 35 -42h9q32 0 42 29l2 12v7q0 24 -26 38q-10 4 -18 4h-3q-35 0 -41 -44zM458 683q1 0 14 -43l191 -640h-1 h-196q-3 0 -16 55l-29 103h-138q0 5 28 135h84l-64 257h-2l-122 -550h-1h-187h-1h-1l198 683h243z" />
<glyph unicode="&#xc6;" horiz-adv-x="932" d="M835 682l1 -2v-147l-1 -2h-275l15 -112h257l2 -2v-145l-2 -1h-234l17 -122h261l1 -2v-147l-1 -1h-416q-4 0 -5 25l-19 138h-144l-1 1h-1l53 145h72l-31 245h-3q-31 -104 -81 -234l-117 -320h-1h-186l-2 1l282 682h559z" />
<glyph unicode="&#xc7;" horiz-adv-x="602" d="M567 17q-48 -24 -151 -27l-16 -32q32 -8 51 -27q23 -23 23 -57q0 -51 -41 -77q-34 -21 -86 -21q-56 0 -92 20l22 69q26 -14 57 -14q33 0 33 23q0 27 -80 35l39 86q-145 20 -222 115q-70 87 -70 216q0 170 112 268q104 90 264 90q54 0 102 -9q43 -8 66 -20l-35 -143 q-25 11 -53 17q-35 7 -72 7q-84 0 -136 -48q-58 -53 -58 -151q0 -198 197 -198q73 0 121 19z" />
<glyph unicode="&#xc8;" horiz-adv-x="552" d="M485 272h-242v-124h271v-148h-452v674h438v-148h-257v-108h242v-146zM290 836l81 -124h-144l-120 124h183z" />
<glyph unicode="&#xc9;" horiz-adv-x="552" d="M485 272h-242v-124h271v-148h-452v674h438v-148h-257v-108h242v-146zM467 836l-120 -126h-144l81 126h183z" />
<glyph unicode="&#xca;" horiz-adv-x="552" d="M485 272h-242v-124h271v-148h-452v674h438v-148h-257v-108h242v-146zM356 836l99 -126h-121l-45 59h-2l-44 -59h-121l99 126h135z" />
<glyph unicode="&#xcb;" horiz-adv-x="552" d="M485 272h-242v-124h271v-148h-452v674h438v-148h-257v-108h242v-146zM171 709q-77 0 -77 77q0 76 78 76q74 0 74 -76q0 -77 -74 -77h-1zM388 709q-76 0 -76 77q0 76 77 76q75 0 75 -76q0 -77 -75 -77h-1z" />
<glyph unicode="&#xcc;" horiz-adv-x="305" d="M243 674v-674h-181v674h181zM153 836l81 -124h-144l-120 124h183z" />
<glyph unicode="&#xcd;" horiz-adv-x="305" d="M243 674v-674h-181v674h181zM334 836l-120 -126h-144l81 126h183z" />
<glyph unicode="&#xce;" horiz-adv-x="305" d="M243 674v-674h-181v674h181zM221 836l99 -126h-121l-45 59h-2l-44 -59h-121l99 126h135z" />
<glyph unicode="&#xcf;" horiz-adv-x="305" d="M243 674v-674h-181v674h181zM45 709q-77 0 -77 77q0 76 78 76q74 0 74 -76q0 -77 -74 -77h-1zM262 709q-76 0 -76 77q0 76 77 76q75 0 75 -76q0 -77 -75 -77h-1z" />
<glyph unicode="&#xd0;" horiz-adv-x="719" d="M4 415h67v252q87 15 215 15q186 0 277 -65q122 -84 122 -262q0 -98 -34 -173q-30 -67 -83 -108q-105 -84 -317 -84q-57 0 -109 4q-20 1 -40 3l-31 3v274h-67v141zM366 274h-114v-142l18 -2h20q95 0 147 51q57 55 57 168q0 100 -53 150q-48 45 -134 45q-37 0 -55 -4v-125 h114v-141z" />
<glyph unicode="&#xd1;" horiz-adv-x="705" d="M62 0v674h213l107 -207q26 -48 56 -113q26 -60 50 -123h3q-14 125 -14 283v160h165v-674h-190l-115 224q-31 59 -58 118q-33 68 -55 125h-4q7 -127 7 -301v-166h-165zM207 714q-4 139 81 139q20 0 38 -6q12 -5 28 -14q31 -20 43 -20q22 0 27 44h78q4 -136 -84 -136 q-35 0 -67 18l-22 13q-10 5 -19 5q-20 0 -23 -43h-80z" />
<glyph unicode="&#xd2;" horiz-adv-x="751" d="M198 867h188l84 -128h-1h-148zM643 90q101 98 101 263q0 154 -95 249q-90 91 -236 101v-183q73 -31 73 -173q0 -77 -25 -124q-29 -56 -87 -56q-51 0 -79 54q-25 49 -25 126q0 151 77 176v180q-143 -10 -234 -98q-101 -98 -101 -265q0 -155 98 -252q98 -98 258 -98 q173 0 275 100z" />
<glyph unicode="&#xd3;" horiz-adv-x="751" d="M387 860h188v0q0 -2 -123 -130h-147l-2 2zM628 89q97 95 97 253q0 148 -91 240q-87 88 -228 97v-175q70 -30 70 -167q0 -74 -23 -119q-28 -55 -84 -55q-50 0 -76 53q-24 47 -24 121q0 145 74 169v173q-138 -10 -225 -94q-97 -95 -97 -255q0 -149 94 -242q94 -94 248 -94 q167 0 265 95z" />
<glyph unicode="&#xd4;" horiz-adv-x="752" d="M303 867h139l103 -129v-1h-125l-47 61h-1l-47 -61h-123l-1 2zM637 91q97 94 97 253q0 148 -91 240q-87 87 -227 97v-176q69 -30 69 -166q0 -74 -23 -120q-28 -54 -83 -54q-50 0 -77 53q-24 46 -24 121q0 144 75 169v173q-138 -10 -226 -95q-97 -94 -97 -254 q0 -149 94 -243q95 -94 248 -94q167 0 265 96z" />
<glyph unicode="&#xd5;" horiz-adv-x="751" d="M525 881l2 -2v-22q0 -98 -63 -115q-11 -2 -22 -2h-4q-44 0 -89 31q-12 6 -19 6h-3q-17 0 -22 -37q0 -7 -2 -7h-80l-2 1v13q0 97 54 124q15 6 29 6h2q41 0 85 -32q18 -10 28 -10q15 0 20 15q4 12 7 30l1 1h78zM639 93q100 97 100 261q0 152 -94 247q-90 90 -234 100v-181 q72 -31 72 -172q0 -76 -24 -123q-29 -56 -87 -56q-51 0 -79 55q-24 48 -24 124q0 149 77 175v178q-143 -10 -233 -97q-100 -98 -100 -263q0 -153 97 -250t256 -97q172 0 273 99z" />
<glyph unicode="&#xd6;" horiz-adv-x="753" d="M248 891h6q43 0 68 -47q5 -16 5 -33q0 -50 -51 -75q-14 -4 -25 -4h-3q-47 0 -72 48q-6 15 -6 31v2q0 47 45 71q16 7 33 7zM471 891h7q40 0 65 -40q10 -18 10 -39q0 -51 -51 -75q-12 -5 -26 -5h-3q-52 0 -75 56q-3 13 -3 23v3q0 50 52 73q15 4 24 4zM641 89q99 97 99 258 q0 151 -93 244q-88 89 -231 99v-179q71 -30 71 -170q0 -75 -24 -121q-28 -55 -85 -55q-51 0 -78 53q-24 48 -24 123q0 148 76 173v176q-141 -10 -230 -96q-99 -96 -99 -259q0 -152 96 -247q96 -96 252 -96q170 0 270 97z" />
<glyph unicode="&#xd7;" horiz-adv-x="596" d="M115 526l183 -187l183 187l75 -76l-183 -187l183 -186l-75 -77l-183 187l-183 -187l-75 77l183 186l-183 187z" />
<glyph unicode="&#xd8;" horiz-adv-x="753" d="M563 736l102 -68l-54 -85q90 -102 90 -250q0 -187 -127 -290q-88 -67 -209 -67q-43 0 -86 11v1l86 131h1q90 0 130 93q21 51 21 119q0 39 -11 89h-2l-333 -508h-2q-93 71 -97 76l55 85q-47 50 -66 99q-31 71 -31 152v12q0 146 101 254q55 49 94 63q65 27 110 27h1v-142 q0 -1 -24 -8q-53 -23 -80 -90q-19 -53 -19 -110q0 -52 17 -101h1l193 296q-29 14 -40 14l-1 1v140l1 1v1q43 0 111 -22l13 -5z" />
<glyph unicode="&#xd9;" horiz-adv-x="697" d="M242 674v-383q0 -159 106 -159q107 0 107 159v383h181v-372q0 -313 -293 -313q-282 0 -282 317v368h181zM353 836l81 -124h-144l-120 124h183z" />
<glyph unicode="&#xda;" horiz-adv-x="697" d="M242 674v-383q0 -159 106 -159q107 0 107 159v383h181v-372q0 -313 -293 -313q-282 0 -282 317v368h181zM524 836l-120 -126h-144l81 126h183z" />
<glyph unicode="&#xdb;" horiz-adv-x="697" d="M242 674v-383q0 -159 106 -159q107 0 107 159v383h181v-372q0 -313 -293 -313q-282 0 -282 317v368h181zM430 836l99 -126h-121l-45 59h-2l-44 -59h-121l99 126h135z" />
<glyph unicode="&#xdc;" horiz-adv-x="697" d="M242 674v-383q0 -159 106 -159q107 0 107 159v383h181v-372q0 -313 -293 -313q-282 0 -282 317v368h181zM249 709q-77 0 -77 77q0 76 78 76q74 0 74 -76q0 -77 -74 -77h-1zM466 709q-76 0 -76 77q0 76 77 76q75 0 75 -76q0 -77 -75 -77h-1z" />
<glyph unicode="&#xdd;" horiz-adv-x="629" d="M219 0v272l-212 402h207l57 -152q17 -43 24 -64q12 -31 22 -61h2q19 61 43 125l55 152h204l-221 -395v-279h-181zM503 836l-120 -126h-144l81 126h183z" />
<glyph unicode="&#xde;" horiz-adv-x="601" d="M62 674h178v-117l27 2q21 1 50 1q122 0 188 -53q69 -56 69 -153q0 -123 -81 -184q-69 -53 -188 -53q-22 0 -41 2q-7 0 -14 1l-10 2v-122h-178v674zM240 261q20 -5 57 -5q99 0 99 85q0 83 -99 83q-21 0 -36 -1q-12 -1 -21 -3v-159z" />
<glyph unicode="&#xdf;" horiz-adv-x="614" d="M320 728h11q118 0 190 -81q39 -52 39 -114q0 -51 -25 -83q-52 -29 -52 -64v-4q0 -29 39 -67q68 -70 68 -148q0 -120 -118 -166q-44 -14 -93 -14h-8q-66 0 -104 14v2q19 132 21 132q27 -12 63 -12q41 0 53 28l1 11q0 25 -48 73q-59 64 -59 123v7q0 71 71 119q11 4 11 14 q3 7 3 21v2q0 48 -47 66q-10 2 -18 2h-5q-65 0 -80 -97q-3 -26 -3 -76v-417l-1 -1h-180l-2 1v432q0 202 142 270q61 27 131 27z" />
<glyph unicode="&#xe0;" horiz-adv-x="561" d="M115 728h164q5 -6 40 -72l49 -89l-1 -1h-127q-125 159 -125 162zM281 509q163 0 213 -117q18 -43 18 -119v-165q0 -56 7 -109h-163q-3 0 -9 36l-3 8h-2q-50 -55 -139 -55q-98 0 -147 82q-18 35 -18 71v9q0 119 134 154q51 12 112 12l2 -1v-91q0 -2 -9 -2q-60 -14 -60 -60 q0 -40 43 -46l10 -1q33 0 57 34q7 7 7 56v76q0 64 -17 79q-20 25 -71 25q-61 0 -142 -36l-31 115q91 45 208 45z" />
<glyph unicode="&#xe1;" horiz-adv-x="547" d="M280 732h165v-1l-128 -161h-125v1q82 153 88 161zM247 510h19q151 0 203 -112q20 -43 20 -125v-165q0 -65 8 -106l-1 -1h-164q-2 0 -10 43h-4q-49 -54 -139 -54q-99 0 -148 85q-16 35 -16 70v7q0 115 126 152q55 14 121 14h1v-92q0 -1 -22 -6q-47 -16 -47 -56 q0 -37 37 -46q4 -1 14 -1h1q41 0 62 43q3 7 3 46v77q0 63 -17 79q-20 24 -65 24h-12q-59 0 -135 -36l-32 115q89 45 197 45z" />
<glyph unicode="&#xe2;" horiz-adv-x="551" d="M216 724h123q5 -6 105 -160l-1 -1h-115q-2 1 -47 83l-4 4l-49 -87h-118v1q98 151 106 160zM271 508q158 0 209 -110q21 -42 21 -126v-165q0 -67 8 -107l-1 -1h-164q-2 0 -10 42l-1 1h-4q-17 -20 -34 -30q-43 -24 -95 -24h-15q-78 0 -129 64q-29 43 -29 88v8 q0 114 121 152q57 16 118 16h7l2 -2v-90q0 -2 -22 -6q-47 -17 -47 -56q0 -35 32 -45q7 -2 19 -3q35 0 58 34q8 6 8 56v76q0 67 -19 81q-19 23 -69 23q-63 0 -142 -36l-31 115q88 45 209 45z" />
<glyph unicode="&#xe3;" horiz-adv-x="580" d="M431 717l2 -2v-13q0 -98 -53 -123q-17 -7 -36 -7h-8q-34 0 -93 35l-14 4q-20 0 -24 -40q0 -8 -2 -8h-82l-2 1v10q0 100 57 131q18 7 36 7q37 0 89 -33q14 -8 24 -8q14 0 19 15q3 10 5 31h82zM264 507h20q125 0 185 -82q36 -48 36 -155v-165q0 -65 8 -106l-1 -1h-164 q-2 0 -10 43h-4q-49 -54 -138 -54q-106 0 -153 94q-12 31 -12 61v7q0 115 126 152q56 14 121 14h1v-92q0 -1 -22 -6q-47 -16 -47 -56q0 -33 30 -44q10 -3 20 -3h2q41 0 62 43q3 7 3 46v77q0 63 -17 79q-21 24 -65 24h-12q-59 0 -135 -36l-32 115q89 45 198 45z" />
<glyph unicode="&#xe4;" horiz-adv-x="548" d="M177 733h6q45 0 69 -47q6 -18 6 -32v-5q0 -47 -45 -73q-18 -7 -34 -7q-55 0 -79 55q-4 13 -4 23v7q0 43 41 68q19 11 40 11zM404 733h7q52 0 74 -55q3 -14 3 -24v-6q0 -46 -45 -71q-17 -8 -35 -8q-54 0 -78 53q-4 13 -4 27v5q0 53 54 75q14 4 24 4zM279 511 q157 0 208 -107q23 -43 23 -129v-165q0 -56 7 -109h-163q-3 0 -8 32q-3 12 -4 12h-2q-51 -55 -138 -55q-94 0 -144 75q-22 38 -22 78v9q0 118 131 154q51 12 112 12h3l2 -1v-90q0 -2 -18 -5q-51 -17 -51 -57q0 -35 33 -46l19 -2q37 0 59 38q6 5 6 51v77q0 64 -17 79 q-19 25 -71 25q-62 0 -142 -36l-31 115q90 45 208 45z" />
<glyph unicode="&#xe5;" horiz-adv-x="548" d="M493 120q0 -80 8 -120h-163l-9 43h-4q-47 -54 -136 -54q-73 0 -119 47q-44 44 -44 108q0 95 80 145q75 46 206 46v4q0 18 -16 29q-20 13 -65 13q-36 0 -77 -11q-35 -10 -62 -25l-31 113q31 17 75 29q61 16 129 16q120 0 177 -62q51 -55 51 -155v-166zM318 225 q-115 0 -115 -64q0 -47 51 -47q47 0 62 45q2 8 2 26v40zM278 741q119 0 119 -101q0 -100 -120 -100q-121 0 -121 99q0 102 121 102h1zM276 686q-42 0 -42 -47q0 -44 42 -44q44 0 44 45q0 46 -43 46h-1z" />
<glyph unicode="&#xe6;" horiz-adv-x="828" d="M232 499h12q107 0 160 -69h1q69 69 165 69h10q95 0 156 -74q54 -72 54 -178v-2q-3 -63 -6 -63h-248l-1 1v120l1 1h87q0 53 -40 72q-14 6 -31 6q-54 0 -71 -49q-5 -18 -5 -42v-45q0 -92 52 -118q30 -15 65 -15h20q65 0 130 26q1 -1 24 -122q-75 -38 -189 -38h-5 q-119 0 -183 73l-4 7h-5q-13 -16 -33 -33q-63 -47 -150 -47h-3q-108 0 -158 84q-19 35 -19 73v10q0 97 108 147q73 29 137 30h1v-110q0 -2 -24 -7q-44 -17 -44 -53q0 -37 44 -47h13q42 0 54 45q4 16 4 32v138q0 36 -37 48q-23 6 -51 6q-62 0 -135 -37v0l-34 113 q94 48 178 48z" />
<glyph unicode="&#xe7;" horiz-adv-x="452" d="M433 10q-35 -17 -106 -20l-16 -32q32 -8 51 -28q23 -23 23 -57q0 -51 -41 -76q-34 -21 -86 -21q-55 0 -91 20l21 69q26 -14 57 -14q33 0 33 23q0 26 -79 35l38 86q-206 34 -206 246q0 112 73 183q78 78 216 78q63 0 113 -17l-25 -132q-29 12 -78 12q-116 0 -114 -117 q0 -58 36 -90q32 -29 83 -29q46 0 79 13z" />
<glyph unicode="&#xe8;" horiz-adv-x="551" d="M105 717h164q3 -1 41 -73l48 -88l-1 -1h-125q-8 8 -127 161v1zM288 507q150 0 208 -131q23 -56 23 -125q-3 -66 -9 -68h-255q-17 30 -17 74q0 32 10 50h102v0q0 54 -42 75q-15 5 -28 5q-55 0 -84 -63q-16 -34 -16 -74v-2q0 -69 43 -109q35 -25 89 -25h10q58 0 146 26 l23 -121q-80 -32 -173 -32h-6h-7h-6h-5q-131 0 -208 84q-56 67 -56 166v9q0 105 76 190q73 71 182 71z" />
<glyph unicode="&#xe9;" horiz-adv-x="549" d="M466 719v-1q-116 -149 -127 -161h-124l-1 1h-1l88 161h165zM290 507q153 0 210 -139q20 -55 20 -117q-3 -67 -9 -69h-255q-17 31 -17 74q0 33 10 50h102v1q0 50 -38 72q-15 8 -33 8q-62 0 -91 -82q-8 -28 -8 -55v-1q0 -68 40 -107q32 -29 99 -29q60 0 149 26l23 -121 q-81 -31 -179 -31h-14q-160 0 -234 112q-34 62 -34 136v10q0 106 77 191q72 71 182 71z" />
<glyph unicode="&#xea;" horiz-adv-x="551" d="M227 720h123q4 -4 91 -140q13 -18 14 -22h-116q-4 5 -49 86l-1 1h-1q-45 -83 -50 -87h-115l-1 1h-1zM297 508q153 0 210 -139q20 -55 20 -117q-3 -67 -9 -69h-255q-17 31 -17 74q0 33 10 50h102v1q0 50 -38 72q-15 8 -33 8q-62 0 -91 -82q-8 -28 -8 -55v-1q0 -68 40 -107 q32 -29 99 -29q60 0 149 26l23 -121q-81 -31 -179 -31h-14q-160 0 -234 112q-34 62 -34 136v10q0 106 77 191q72 71 182 71z" />
<glyph unicode="&#xeb;" horiz-adv-x="539" d="M202 181q4 -28 42 -45q35 -16 85 -16q74 0 134 19l23 -120q-42 -16 -91 -24q-44 -7 -93 -7q-129 0 -200 67q-71 66 -71 184q0 99 60 174q32 41 79 63q51 25 116 25q113 0 173 -75q54 -68 54 -177q0 -20 -2 -40q-2 -17 -5 -28h-304zM347 303q0 29 -14 51q-18 29 -56 29 q-36 0 -57 -28q-17 -23 -20 -52h147zM176 549q-80 0 -80 79t81 79q76 0 76 -79t-76 -79h-1zM396 549q-78 0 -78 79t80 79q77 0 77 -79t-77 -79h-2z" />
<glyph unicode="&#xec;" horiz-adv-x="292" d="M55 0v492h181v-492h-181zM128 706l85 -156h-123l-122 156h160z" />
<glyph unicode="&#xed;" horiz-adv-x="292" d="M55 0v492h181v-492h-181zM320 706l-123 -156h-122l85 156h160z" />
<glyph unicode="&#xee;" horiz-adv-x="292" d="M55 0v492h181v-492h-181zM207 706l101 -156h-113l-47 84h-2l-47 -84h-114l102 156h120z" />
<glyph unicode="&#xef;" horiz-adv-x="292" d="M55 0v492h181v-492h-181zM36 551q-80 0 -80 79t81 79q76 0 76 -79t-76 -79h-1zM256 551q-78 0 -78 79t80 79q77 0 77 -79t-77 -79h-2z" />
<glyph unicode="&#xf0;" horiz-adv-x="589" d="M155 739q90 -30 169 -81l149 61l34 -68v0l-107 -44v-1q165 -137 165 -341q0 -181 -151 -254q-56 -22 -81 -22l-8 -2v1v136q47 29 47 123q0 96 -39 113q-16 11 -36 11h-5q-58 0 -77 -87q-3 -20 -3 -39v-4q1 -89 49 -116q10 -4 10 -5v-132l-2 -1q-43 0 -108 26 q-36 15 -81 59q-61 73 -61 167v11q0 105 86 177q74 56 167 56q22 0 46 -10l1 1v1q-36 40 -54 51l-21 14l-150 -61l-31 68v2l102 44v2q-44 23 -90 41l-1 1v1q75 95 81 101z" />
<glyph unicode="&#xf1;" horiz-adv-x="599" d="M55 324q0 45 -1 92l-3 76h156l8 -63h3q8 12 19 23q14 13 31 24q44 27 98 27q178 0 178 -213v-290h-181v268q0 90 -63 90q-24 0 -40 -14q-11 -11 -19 -29q-5 -11 -5 -36v-279h-181v324zM151 553q-6 144 88 144q30 0 66 -20l23 -14q12 -6 20 -6q21 0 25 45h80 q5 -140 -88 -140q-20 0 -39 7l-25 11q-3 1 -8 4q-3 1 -6 3l-14 8q-8 4 -16 4q-23 0 -24 -46h-82z" />
<glyph unicode="&#xf2;" horiz-adv-x="597" d="M122 720h165q88 -158 88 -161h-126q-4 2 -127 160v1zM490 63q72 70 72 187q0 110 -68 178q-64 64 -168 71v-130q52 -22 52 -123q0 -54 -17 -88q-21 -40 -62 -40q-37 0 -57 39q-17 34 -17 89q0 107 55 126v127q-102 -7 -167 -70q-72 -69 -72 -188q0 -110 69 -179 q70 -70 184 -70q124 0 196 71z" />
<glyph unicode="&#xf3;" horiz-adv-x="601" d="M478 724v-1q-123 -157 -127 -161h-124l-1 1h-1l88 161h165zM490 63q72 70 72 187q0 110 -68 178q-64 64 -168 71v-130q52 -22 52 -123q0 -54 -17 -88q-21 -40 -62 -40q-37 0 -57 39q-17 34 -17 89q0 107 55 126v127q-102 -7 -167 -70q-72 -69 -72 -188q0 -110 69 -179 q70 -70 184 -70q124 0 196 71z" />
<glyph unicode="&#xf4;" horiz-adv-x="600" d="M361 724q2 -1 61 -91l44 -69v-1h-116l-49 86l-1 1h-1l-49 -87h-116l-2 1l105 159l1 1h123zM490 63q72 70 72 187q0 110 -68 178q-64 64 -168 71v-130q52 -22 52 -123q0 -54 -17 -88q-21 -40 -62 -40q-37 0 -57 39q-17 34 -17 89q0 107 55 126v127q-102 -7 -167 -70 q-72 -69 -72 -188q0 -110 69 -179q70 -70 184 -70q124 0 196 71z" />
<glyph unicode="&#xf5;" horiz-adv-x="601" d="M449 720l2 -1v-21q0 -100 -65 -119q-10 -4 -22 -4h-8q-36 0 -89 32q-8 6 -20 7q-17 0 -23 -31l-1 -13v-3l-1 -1h-83l-1 1v23q3 93 60 120q17 5 31 5q39 0 91 -34q14 -7 23 -7q13 0 18 12q3 8 7 34h81zM490 63q72 70 72 187q0 110 -68 178q-64 64 -168 71v-130 q52 -22 52 -123q0 -54 -17 -88q-21 -40 -62 -40q-37 0 -57 39q-17 34 -17 89q0 107 55 126v127q-102 -7 -167 -70q-72 -69 -72 -188q0 -110 69 -179q70 -70 184 -70q124 0 196 71z" />
<glyph unicode="&#xf6;" horiz-adv-x="601" d="M181 728h6q45 0 68 -45q8 -16 8 -32v-9q0 -37 -34 -63q-21 -15 -46 -15q-49 0 -75 47q-8 15 -8 33v5q0 53 55 75q14 4 26 4zM410 728h5q49 0 72 -50q5 -14 5 -26v-9q0 -46 -47 -72q-19 -7 -33 -7q-56 0 -78 56q-4 12 -4 25v3q0 54 54 76q14 4 26 4zM490 63q72 70 72 187 q0 110 -68 178q-64 64 -168 71v-130q52 -22 52 -123q0 -54 -17 -88q-21 -40 -62 -40q-37 0 -57 39q-17 34 -17 89q0 107 55 126v127q-102 -7 -167 -70q-72 -69 -72 -188q0 -110 69 -179q70 -70 184 -70q124 0 196 71z" />
<glyph unicode="&#xf7;" horiz-adv-x="596" d="M297 361q-80 0 -80 82t82 82q79 0 81 -82q0 -82 -82 -82h-1zM40 213v108h516v-108h-516zM297 9q-80 0 -80 82t82 82q79 0 81 -82q0 -82 -82 -82h-1z" />
<glyph unicode="&#xf8;" horiz-adv-x="589" d="M295 503q67 0 116 -23l49 73l59 -41l-47 -70q86 -69 86 -196q0 -122 -81 -193q-73 -64 -181 -64q-65 0 -113 22l-51 -75l-57 45l46 67q-90 68 -90 197q0 115 72 186q72 72 191 72h1zM334 363q-18 13 -40 13q-46 0 -70 -42q-20 -36 -20 -88q0 -38 10 -59l2 -1zM258 129 q13 -13 38 -13q89 0 89 126q0 34 -7 58l-3 1z" />
<glyph unicode="&#xf9;" horiz-adv-x="598" d="M541 168q0 -48 1 -94q1 -36 3 -74h-156l-8 65h-3q-20 -30 -48 -48q-43 -28 -101 -28q-175 0 -175 213v290h181v-261q0 -97 63 -97q43 0 58 42q4 9 4 26v290h181v-324zM288 706l85 -156h-123l-122 156h160z" />
<glyph unicode="&#xfa;" horiz-adv-x="598" d="M541 168q0 -48 1 -94q1 -36 3 -74h-156l-8 65h-3q-20 -30 -48 -48q-43 -28 -101 -28q-175 0 -175 213v290h181v-261q0 -97 63 -97q43 0 58 42q4 9 4 26v290h181v-324zM473 706l-123 -156h-122l85 156h160z" />
<glyph unicode="&#xfb;" horiz-adv-x="598" d="M541 168q0 -48 1 -94q1 -36 3 -74h-156l-8 65h-3q-20 -30 -48 -48q-43 -28 -101 -28q-175 0 -175 213v290h181v-261q0 -97 63 -97q43 0 58 42q4 9 4 26v290h181v-324zM360 706l101 -156h-113l-47 84h-2l-47 -84h-114l102 156h120z" />
<glyph unicode="&#xfc;" horiz-adv-x="598" d="M541 168q0 -48 1 -94q1 -36 3 -74h-156l-8 65h-3q-20 -30 -48 -48q-43 -28 -101 -28q-175 0 -175 213v290h181v-261q0 -97 63 -97q43 0 58 42q4 9 4 26v290h181v-324zM192 551q-80 0 -80 79t81 79q76 0 76 -79t-76 -79h-1zM412 551q-78 0 -78 79t80 79q77 0 77 -79 t-77 -79h-2z" />
<glyph unicode="&#xfd;" horiz-adv-x="545" d="M205 492l59 -221l21 -88h4l63 309h192l-105 -313q-52 -146 -95 -224q-37 -66 -80 -104q-39 -34 -86 -53q-37 -15 -78 -19l-37 152q32 5 62 19q34 13 58 45q9 13 9 22q0 5 -1 11q-2 7 -6 15l-180 449h200zM462 706l-123 -156h-122l85 156h160z" />
<glyph unicode="&#xfe;" horiz-adv-x="610" d="M236 680v-241h2q45 64 138 64q81 2 139 -63q64 -72 64 -191q0 -65 -21 -117q-18 -48 -53 -81q-62 -62 -146 -62q-81 0 -121 49h-2v-236h-181v878h181zM236 203q0 -29 16 -48q25 -29 57 -29q87 0 87 120q0 116 -82 116q-46 0 -68 -39q-10 -18 -10 -38v-82z" />
<glyph unicode="&#xff;" horiz-adv-x="545" d="M205 492l59 -221l21 -88h4l63 309h192l-105 -313q-52 -146 -95 -224q-37 -66 -80 -104q-39 -34 -86 -53q-37 -15 -78 -19l-37 152q32 5 62 19q34 13 58 45q9 13 9 22q0 5 -1 11q-2 7 -6 15l-180 449h200zM175 551q-80 0 -80 79t81 79q76 0 76 -79t-76 -79h-1zM395 551 q-78 0 -78 79t80 79q77 0 77 -79t-77 -79h-2z" />
<glyph unicode="&#x100;" horiz-adv-x="675" d="M239 156l-38 -156h-187l196 674h240l201 -674h-195l-43 156h-174zM388 289l-31 121l-33 133h-2l-30 -133l-29 -121h125zM467 827v-92h-268v92h268z" />
<glyph unicode="&#x101;" horiz-adv-x="548" d="M493 120q0 -80 8 -120h-163l-9 43h-4q-47 -54 -136 -54q-73 0 -119 47q-44 44 -44 108q0 95 80 145q75 46 206 46v4q0 18 -16 29q-20 13 -65 13q-36 0 -77 -11q-35 -10 -62 -25l-31 113q31 17 75 29q61 16 129 16q120 0 177 -62q51 -55 51 -155v-166zM318 225 q-115 0 -115 -64q0 -47 51 -47q47 0 62 45q2 8 2 26v40zM405 675v-96h-261v96h261z" />
<glyph unicode="&#x102;" horiz-adv-x="675" d="M239 156l-38 -156h-187l196 674h240l201 -674h-195l-43 156h-174zM388 289l-31 121l-33 133h-2l-30 -133l-29 -121h125zM281 841q4 -45 53 -45q50 0 59 45h89q-2 -135 -147 -135q-74 0 -111 38q-34 34 -36 97h93z" />
<glyph unicode="&#x103;" horiz-adv-x="548" d="M493 120q0 -80 8 -120h-163l-9 43h-4q-47 -54 -136 -54q-73 0 -119 47q-44 44 -44 108q0 95 80 145q75 46 206 46v4q0 18 -16 29q-20 13 -65 13q-36 0 -77 -11q-35 -10 -62 -25l-31 113q31 17 75 29q61 16 129 16q120 0 177 -62q51 -55 51 -155v-166zM318 225 q-115 0 -115 -64q0 -47 51 -47q47 0 62 45q2 8 2 26v40zM220 697q8 -58 53 -58q54 0 56 58h90q-2 -151 -145 -151t-145 151h91z" />
<glyph unicode="&#x104;" horiz-adv-x="675" d="M651 0h-100q-13 -30 -13 -57q0 -58 56 -58q25 0 43 6l24 -81q-46 -35 -111 -35q-121 0 -121 115q0 29 12 67l15 43l-43 156h-174l-38 -156h-187l196 674h240zM388 289l-31 121l-33 133h-2l-30 -133l-29 -121h125z" />
<glyph unicode="&#x105;" horiz-adv-x="548" d="M493 120q0 -80 8 -120h-67q-13 -32 -13 -60q0 -52 47 -52q25 0 44 9l25 -82q-51 -39 -116 -39q-109 0 -109 109q0 32 11 70l15 45l-9 43h-4q-47 -54 -136 -54q-73 0 -119 47q-44 44 -44 108q0 95 80 145q75 46 206 46v4q0 18 -16 29q-20 13 -65 13q-36 0 -77 -11 q-35 -10 -62 -25l-31 113q31 17 75 29q61 16 129 16q120 0 177 -62q51 -55 51 -155v-166zM318 225q-115 0 -115 -64q0 -47 51 -47q47 0 62 45q2 8 2 26v40z" />
<glyph unicode="&#x106;" horiz-adv-x="602" d="M566 18q-21 -11 -64 -19q-49 -9 -105 -9q-179 0 -276 101q-87 90 -87 235q0 170 112 268q103 90 263 90q54 0 102 -9q43 -8 66 -20l-35 -143q-25 11 -53 17q-35 7 -72 7q-83 0 -135 -48q-58 -53 -58 -150q0 -198 197 -198q72 0 120 19zM551 836l-120 -126h-144l81 126 h183z" />
<glyph unicode="&#x107;" horiz-adv-x="452" d="M433 11q-43 -21 -135 -21q-123 0 -195 68q-72 67 -72 184q0 111 73 183q78 77 216 77q63 0 113 -17l-25 -132q-29 12 -78 12q-116 0 -114 -117q0 -57 36 -89q32 -29 83 -29q46 0 79 13zM446 706l-123 -156h-122l85 156h160z" />
<glyph unicode="&#x108;" horiz-adv-x="602" d="M566 18q-21 -11 -64 -19q-49 -9 -105 -9q-179 0 -276 101q-87 90 -87 235q0 170 112 268q103 90 263 90q54 0 102 -9q43 -8 66 -20l-35 -143q-25 11 -53 17q-35 7 -72 7q-83 0 -135 -48q-58 -53 -58 -150q0 -198 197 -198q72 0 120 19zM431 840l99 -126h-121l-45 59h-2 l-44 -59h-121l99 126h135z" />
<glyph unicode="&#x109;" horiz-adv-x="452" d="M433 11q-43 -21 -135 -21q-123 0 -195 68q-72 67 -72 184q0 111 73 183q78 77 216 77q63 0 113 -17l-25 -132q-29 12 -78 12q-116 0 -114 -117q0 -57 36 -89q32 -29 83 -29q46 0 79 13zM328 706l101 -156h-113l-47 84h-2l-47 -84h-114l102 156h120z" />
<glyph unicode="&#x10a;" horiz-adv-x="602" d="M566 18q-21 -11 -64 -19q-49 -9 -105 -9q-179 0 -276 101q-87 90 -87 235q0 170 112 268q103 90 263 90q54 0 102 -9q43 -8 66 -20l-35 -143q-25 11 -53 17q-35 7 -72 7q-83 0 -135 -48q-58 -53 -58 -150q0 -198 197 -198q72 0 120 19zM364 709q-78 0 -78 76q0 77 79 77 q75 0 75 -77q0 -76 -75 -76h-1z" />
<glyph unicode="&#x10b;" horiz-adv-x="452" d="M433 11q-43 -21 -135 -21q-123 0 -195 68q-72 67 -72 184q0 111 73 183q78 77 216 77q63 0 113 -17l-25 -132q-29 12 -78 12q-116 0 -114 -117q0 -57 36 -89q32 -29 83 -29q46 0 79 13zM283 551q-80 0 -80 79t81 79q76 0 76 -79t-76 -79h-1z" />
<glyph unicode="&#x10c;" horiz-adv-x="602" d="M566 18q-21 -11 -64 -19q-49 -9 -105 -9q-179 0 -276 101q-87 90 -87 235q0 170 112 268q103 90 263 90q54 0 102 -9q43 -8 66 -20l-35 -143q-25 11 -53 17q-35 7 -72 7q-83 0 -135 -48q-58 -53 -58 -150q0 -198 197 -198q72 0 120 19zM298 710l-99 126h121l45 -59h2 l44 59h121l-99 -126h-135z" />
<glyph unicode="&#x10d;" horiz-adv-x="452" d="M433 11q-43 -21 -135 -21q-123 0 -195 68q-72 67 -72 184q0 111 73 183q78 77 216 77q63 0 113 -17l-25 -132q-29 12 -78 12q-116 0 -114 -117q0 -57 36 -89q32 -29 83 -29q46 0 79 13zM212 550l-101 156h113l47 -84h2l47 84h114l-102 -156h-120z" />
<glyph unicode="&#x10e;" horiz-adv-x="710" d="M62 664q87 15 215 15q181 0 277 -67q58 -40 89 -102q33 -67 33 -157q0 -98 -34 -172q-30 -64 -83 -106q-106 -83 -317 -83q-60 0 -109 4q-41 3 -71 8v660zM243 134q6 -1 18 -2h20q93 -2 146 50q58 56 58 165q0 95 -53 147q-49 47 -134 47q-37 0 -55 -4v-403zM260 710 l-99 126h121l45 -59h2l44 59h121l-99 -126h-135z" />
<glyph unicode="&#x10f;" horiz-adv-x="620" d="M555 711v-556q0 -89 4 -155h-161l-7 66h-2q-23 -39 -65 -59q-38 -18 -83 -18q-88 0 -148 69q-61 71 -61 184q-1 120 66 193q62 68 154 68q87 0 120 -48h2v256h181zM374 291q-1 6 -1 11q-13 63 -71 63q-43 0 -66 -35q-21 -32 -21 -83q0 -115 86 -115q59 0 70 59q3 10 3 33 v67zM593 529q24 48 24 107q0 35 -15 69l110 18q30 -24 30 -76q0 -33 -9 -63q-8 -26 -21 -48q-10 -18 -24 -34l-18 -18z" />
<glyph unicode="&#x110;" horiz-adv-x="719" d="M4 415h67v252q87 15 215 15q186 0 277 -65q122 -84 122 -262q0 -98 -34 -173q-30 -67 -83 -108q-105 -84 -317 -84q-57 0 -109 4q-20 1 -40 3l-31 3v274h-67v141zM366 274h-114v-142l18 -2h20q95 0 147 51q57 55 57 168q0 100 -53 150q-48 45 -134 45q-37 0 -55 -4v-125 h114v-141z" />
<glyph unicode="&#x111;" horiz-adv-x="610" d="M555 535v-380q0 -89 4 -155h-161l-7 66h-2q-23 -39 -65 -59q-38 -18 -83 -18q-88 0 -148 69q-61 71 -61 184q-1 120 66 193q62 68 154 68q87 0 120 -48h2v80h-173v96h173v80h181v-80h82v-96h-82zM374 291q-1 6 -1 11q-13 63 -71 63q-43 0 -66 -35q-21 -32 -21 -83 q0 -115 86 -115q59 0 70 59q3 10 3 33v67z" />
<glyph unicode="&#x112;" horiz-adv-x="552" d="M485 272h-242v-124h271v-148h-452v674h438v-148h-257v-108h242v-146zM411 827v-92h-268v92h268z" />
<glyph unicode="&#x113;" horiz-adv-x="539" d="M202 183q4 -28 42 -45q35 -16 85 -16q74 0 134 19l23 -120q-42 -16 -91 -24q-44 -7 -93 -7q-129 0 -200 67q-71 66 -71 184q0 99 60 174q32 41 79 63q51 25 116 25q113 0 173 -75q54 -68 54 -177q0 -20 -2 -40q-2 -17 -5 -28h-304zM347 305q0 29 -14 51q-18 29 -56 29 q-36 0 -57 -28q-17 -23 -20 -52h147zM405 675v-96h-261v96h261z" />
<glyph unicode="&#x114;" horiz-adv-x="552" d="M485 272h-242v-124h271v-148h-452v674h438v-148h-257v-108h242v-146zM232 842q4 -45 53 -45q50 0 59 45h89q-2 -135 -147 -135q-74 0 -111 38q-34 34 -36 97h93z" />
<glyph unicode="&#x115;" horiz-adv-x="539" d="M202 183q4 -28 42 -45q35 -16 85 -16q74 0 134 19l23 -120q-42 -16 -91 -24q-44 -7 -93 -7q-129 0 -200 67q-71 66 -71 184q0 99 60 174q32 41 79 63q51 25 116 25q113 0 173 -75q54 -68 54 -177q0 -20 -2 -40q-2 -17 -5 -28h-304zM347 305q0 29 -14 51q-18 29 -56 29 q-36 0 -57 -28q-17 -23 -20 -52h147zM221 697q8 -58 53 -58q54 0 56 58h90q-2 -151 -145 -151t-145 151h91z" />
<glyph unicode="&#x116;" horiz-adv-x="552" d="M485 272h-242v-124h271v-148h-452v674h438v-148h-257v-108h242v-146zM277 709q-78 0 -78 76q0 77 79 77q75 0 75 -77q0 -76 -75 -76h-1z" />
<glyph unicode="&#x117;" horiz-adv-x="539" d="M202 183q4 -28 42 -45q35 -16 85 -16q74 0 134 19l23 -120q-42 -16 -91 -24q-44 -7 -93 -7q-129 0 -200 67q-71 66 -71 184q0 99 60 174q32 41 79 63q51 25 116 25q113 0 173 -75q54 -68 54 -177q0 -20 -2 -40q-2 -17 -5 -28h-304zM347 305q0 29 -14 51q-18 29 -56 29 q-36 0 -57 -28q-17 -23 -20 -52h147zM278 551q-80 0 -80 79t81 79q76 0 76 -79t-76 -79h-1z" />
<glyph unicode="&#x118;" horiz-adv-x="552" d="M522 -189q-46 -36 -120 -36q-109 0 -109 98q0 40 22 76q17 29 45 51h-298v674h437v-148h-256v-108h242v-146h-242v-124h270v-148h-29q-25 -17 -42 -39q-20 -26 -20 -47q0 -29 34 -29q20 0 41 8z" />
<glyph unicode="&#x119;" horiz-adv-x="539" d="M463 -187q-47 -38 -117 -38q-108 0 -108 89q0 37 23 74q16 27 42 51v1h-7q-125 1 -195 68q-70 66 -70 183q0 99 60 174q32 41 79 63q51 25 116 25q113 0 173 -75q54 -68 54 -177q0 -20 -2 -40q-2 -17 -5 -28h-304q4 -28 42 -45q35 -16 85 -16q74 0 134 19l23 -120 l-42 -15q-28 -14 -54 -41q-28 -29 -28 -51q0 -29 32 -29q22 0 43 10zM347 305q0 29 -13 51q-19 29 -56 29q-36 0 -58 -28q-17 -23 -20 -52h147z" />
<glyph unicode="&#x11a;" horiz-adv-x="552" d="M485 272h-242v-124h271v-148h-452v674h438v-148h-257v-108h242v-146zM209 710l-99 126h121l45 -59h2l44 59h121l-99 -126h-135z" />
<glyph unicode="&#x11b;" horiz-adv-x="539" d="M202 183q4 -28 42 -45q35 -16 85 -16q74 0 134 19l23 -120q-42 -16 -91 -24q-44 -7 -93 -7q-129 0 -200 67q-71 66 -71 184q0 99 60 174q32 41 79 63q51 25 116 25q113 0 173 -75q54 -68 54 -177q0 -20 -2 -40q-2 -17 -5 -28h-304zM347 305q0 29 -14 51q-18 29 -56 29 q-36 0 -57 -28q-17 -23 -20 -52h147zM214 550l-101 156h113l47 -84h2l47 84h114l-102 -156h-120z" />
<glyph unicode="&#x11c;" horiz-adv-x="697" d="M646 31q-45 -15 -103 -25q-70 -13 -130 -13q-187 0 -283 91t-96 243q1 170 116 265q107 89 278 89q64 0 119 -10q47 -9 76 -23l-36 -145q-31 14 -66 21q-41 8 -94 8q-89 0 -143 -46q-60 -51 -60 -149q0 -92 54 -147q53 -52 137 -52q44 0 57 6v116h-90v140h264v-369z M448 840l99 -126h-121l-45 59h-2l-44 -59h-121l99 126h135z" />
<glyph unicode="&#x11d;" horiz-adv-x="596" d="M540 72q0 -71 -16 -123q-19 -61 -61 -97q-39 -34 -96 -48q-48 -13 -111 -13q-112 0 -183 37l34 136q25 -14 61 -24q42 -12 81 -12q114 0 114 111v22h-2q-45 -55 -123 -55q-91 0 -148 66q-59 67 -59 173q0 114 65 187q64 71 158 71q86 0 127 -64h2l6 53h155q-2 -28 -3 -58 q-1 -40 -1 -93v-269zM360 289q0 5 -1 12q0 5 -1 11q-12 56 -64 56q-80 0 -80 -120q0 -111 80 -111q52 0 63 49q2 7 3 18v85zM361 706l101 -156h-113l-47 84h-2l-47 -84h-114l102 156h120z" />
<glyph unicode="&#x11e;" horiz-adv-x="697" d="M646 31q-45 -15 -103 -25q-70 -13 -130 -13q-187 0 -283 91t-96 243q1 170 116 265q107 89 278 89q64 0 119 -10q47 -9 76 -23l-36 -145q-31 14 -66 21q-41 8 -94 8q-89 0 -143 -46q-60 -51 -60 -149q0 -92 54 -147q53 -52 137 -52q44 0 57 6v116h-90v140h264v-369z M334 847q4 -45 53 -45q50 0 59 45h89q-2 -135 -147 -135q-74 0 -111 38q-34 34 -36 97h93z" />
<glyph unicode="&#x11f;" horiz-adv-x="596" d="M540 72q0 -71 -16 -123q-19 -61 -61 -97q-39 -34 -96 -48q-48 -13 -111 -13q-112 0 -183 37l34 136q25 -14 61 -24q42 -12 81 -12q114 0 114 111v22h-2q-45 -55 -123 -55q-91 0 -148 66q-59 67 -59 173q0 114 65 187q64 71 158 71q86 0 127 -64h2l6 53h155q-2 -28 -3 -58 q-1 -40 -1 -93v-269zM360 289q0 5 -1 12q0 5 -1 11q-12 56 -64 56q-80 0 -80 -120q0 -111 80 -111q52 0 63 49q2 7 3 18v85zM247 697q8 -58 53 -58q54 0 56 58h90q-2 -151 -145 -151t-145 151h91z" />
<glyph unicode="&#x120;" horiz-adv-x="697" d="M646 31q-45 -15 -103 -25q-70 -13 -130 -13q-187 0 -283 91t-96 243q1 170 116 265q107 89 278 89q64 0 119 -10q47 -9 76 -23l-36 -145q-31 14 -66 21q-41 8 -94 8q-89 0 -143 -46q-60 -51 -60 -149q0 -92 54 -147q53 -52 137 -52q44 0 57 6v116h-90v140h264v-369z M382 709q-78 0 -78 76q0 77 79 77q75 0 75 -77q0 -76 -75 -76h-1z" />
<glyph unicode="&#x121;" horiz-adv-x="596" d="M540 72q0 -71 -16 -123q-19 -61 -61 -97q-39 -34 -96 -48q-48 -13 -111 -13q-112 0 -183 37l34 136q25 -14 61 -24q42 -12 81 -12q114 0 114 111v22h-2q-45 -55 -123 -55q-91 0 -148 66q-59 67 -59 173q0 114 65 187q64 71 158 71q86 0 127 -64h2l6 53h155q-2 -28 -3 -58 q-1 -40 -1 -93v-269zM360 289q0 5 -1 12q0 5 -1 11q-12 56 -64 56q-80 0 -80 -120q0 -111 80 -111q52 0 63 49q2 7 3 18v85zM296 551q-80 0 -80 79t81 79q76 0 76 -79t-76 -79h-1z" />
<glyph unicode="&#x122;" horiz-adv-x="697" d="M646 31q-45 -15 -103 -25q-70 -13 -130 -13q-187 0 -283 91t-96 243q1 170 116 265q107 89 278 89q64 0 119 -10q47 -9 76 -23l-36 -145q-31 14 -66 21q-41 8 -94 8q-89 0 -143 -46q-60 -51 -60 -149q0 -92 54 -147q53 -52 137 -52q44 0 57 6v116h-90v140h264v-369z M259 -175q62 14 62 59q0 15 -9 33l-18 26l123 19q39 -29 39 -81q0 -63 -49 -97q-45 -32 -123 -34z" />
<glyph unicode="&#x123;" horiz-adv-x="596" d="M540 72q0 -71 -16 -123q-19 -61 -61 -97q-39 -34 -96 -48q-47 -13 -111 -13q-112 0 -183 37l34 136q25 -14 61 -24q42 -12 81 -12q114 0 114 111v22h-2q-43 -55 -122 -55q-91 0 -149 66q-59 66 -59 173q0 114 66 187q63 71 158 71q85 0 126 -64h2l6 53h155q-2 -28 -3 -58 q-1 -40 -1 -93v-269zM360 289q0 5 -1 12q0 5 -1 11q-12 56 -64 56q-80 0 -80 -120q0 -111 80 -111q52 0 63 49q2 7 3 18v85zM403 669q-70 -10 -70 -58q0 -14 10 -29q6 -11 18 -24l-115 -17q-39 27 -39 72q0 57 49 87q44 28 122 30z" />
<glyph unicode="&#x124;" horiz-adv-x="705" d="M243 674v-250h219v250h181v-674h-181v266h-219v-266h-181v674h181zM421 836l99 -126h-121l-45 59h-2l-44 -59h-121l99 126h135z" />
<glyph unicode="&#x125;" horiz-adv-x="599" d="M55 711h181v-271h2q23 28 58 46q34 17 75 17q173 0 173 -218v-285h-181v265q0 93 -64 93q-41 0 -59 -39q-4 -11 -4 -29v-290h-181v711zM219 863l99 -126h-121l-45 59h-2l-44 -59h-121l99 126h135z" />
<glyph unicode="&#x126;" horiz-adv-x="720" d="M650 468v-468h-181v236h-218v-236h-181v468h-67v104h67v102h181v-102h218v102h181v-102h67v-104h-67zM469 468h-218v-74h218v74z" />
<glyph unicode="&#x127;" horiz-adv-x="599" d="M363 0v265q0 93 -64 93q-41 0 -59 -39q-4 -11 -4 -29v-290h-181v535h-79v96h79v80h181v-80h178v-96h-178v-95h2q23 28 58 46q37 17 75 17q173 0 173 -218v-285h-181z" />
<glyph unicode="&#x128;" horiz-adv-x="305" d="M247 674v-674h-181v674h181zM10 714q-4 139 81 139q20 0 38 -6q12 -5 28 -14q31 -20 43 -20q22 0 27 44h78q4 -136 -84 -136q-35 0 -67 18l-22 13q-10 5 -19 5q-20 0 -23 -43h-80z" />
<glyph unicode="&#x129;" horiz-adv-x="292" d="M60 0v492h181v-492h-181zM1 553q-6 144 88 144q30 0 66 -20l24 -14q11 -6 19 -6q21 0 25 45h80q6 -140 -88 -140q-20 0 -39 7l-25 11q-3 1 -8 4q-3 1 -6 3l-14 8q-8 4 -16 4q-22 0 -24 -46h-82z" />
<glyph unicode="&#x12a;" horiz-adv-x="305" d="M243 674v-674h-181v674h181zM288 827v-92h-268v92h268z" />
<glyph unicode="&#x12b;" horiz-adv-x="292" d="M55 0v492h181v-492h-181zM277 675v-96h-261v96h261z" />
<glyph unicode="&#x12c;" horiz-adv-x="305" d="M243 674v-674h-181v674h181zM99 846q4 -45 53 -45q50 0 59 45h89q-2 -135 -147 -135q-74 0 -111 38q-34 34 -36 97h93z" />
<glyph unicode="&#x12d;" horiz-adv-x="292" d="M55 0v492h181v-492h-181zM92 697q8 -58 53 -58q54 0 56 58h90q-2 -151 -145 -151t-145 151h91z" />
<glyph unicode="&#x12e;" horiz-adv-x="305" d="M243 0h-86q-13 -30 -13 -56q0 -59 56 -59q25 0 43 6l25 -81q-47 -35 -112 -35q-121 0 -121 114q0 30 12 68l15 43v674h181v-674z" />
<glyph unicode="&#x12f;" horiz-adv-x="292" d="M144 542q-94 0 -94 89t95 89q96 0 96 -89t-96 -89h-1zM236 0h-86q-13 -30 -13 -57q0 -58 56 -58q25 0 43 6l25 -81q-47 -35 -112 -35q-120 0 -120 115q0 29 12 67l14 43v492h181v-492z" />
<glyph unicode="&#x130;" horiz-adv-x="305" d="M243 674v-674h-181v674h181zM154 709q-78 0 -78 76q0 77 79 77q75 0 75 -77q0 -76 -75 -76h-1z" />
<glyph unicode="&#x131;" horiz-adv-x="292" d="M55 0v492h181v-492h-181z" />
<glyph unicode="&#x132;" horiz-adv-x="734" d="M243 674v-674h-181v674h181zM496 674h181v-416q0 -142 -67 -208q-63 -61 -189 -61q-71 0 -119 16l19 145q40 -11 79 -11q47 0 70 25q26 28 26 94v416z" />
<glyph unicode="&#x133;" horiz-adv-x="604" d="M55 0v492h181v-492h-181zM145 543q-91 0 -91 85q0 86 92 86q90 0 92 -86q0 -85 -92 -85h-1zM255 -76q62 5 87 30q29 28 29 150v388h181v-426q0 -155 -74 -220q-71 -62 -206 -62zM460 543q-91 0 -91 85q0 86 92 86q90 0 92 -86q0 -85 -92 -85h-1z" />
<glyph unicode="&#x134;" horiz-adv-x="429" d="M191 674h181v-416q0 -142 -67 -208q-63 -61 -189 -61q-71 0 -119 16l19 145q40 -11 79 -11q47 0 70 25q26 28 26 94v416zM349 836l99 -126h-121l-45 59h-2l-44 -59h-121l99 126h135z" />
<glyph unicode="&#x135;" horiz-adv-x="312" d="M-37 -76q62 5 87 30q29 28 29 150v388h181v-426q0 -155 -74 -220q-71 -62 -206 -62zM217 706l101 -156h-109l-47 83h-2l-46 -83h-109l100 156h112z" />
<glyph unicode="&#x136;" horiz-adv-x="646" d="M62 674h179v-286h2l38 65l135 221h222l-214 -287l222 -387h-209l-142 273l-54 -69v-204h-179v674zM227 -175q62 14 62 59q0 15 -9 33l-18 26l123 19q39 -29 39 -81q0 -63 -49 -97q-45 -32 -123 -34z" />
<glyph unicode="&#x137;" horiz-adv-x="575" d="M236 292h2l16 32l97 168h215l-170 -198l195 -294h-222l-97 188l-36 -48v-140h-181v711h181v-419zM189 -176q62 12 62 59q0 15 -9 33l-18 26l123 19q39 -29 39 -81q0 -63 -49 -97q-45 -32 -123 -34z" />
<glyph unicode="&#x138;" horiz-adv-x="575" d="M236 292h2l16 32l97 168h215l-170 -198l195 -294h-222l-97 188l-36 -48v-140h-181v492h181v-200z" />
<glyph unicode="&#x139;" horiz-adv-x="528" d="M62 674h181v-523h259v-151h-440v674zM342 836l-120 -126h-144l81 126h183z" />
<glyph unicode="&#x13a;" horiz-adv-x="292" d="M55 711h181v-711h-181v711zM325 866l-120 -126h-144l81 126h183z" />
<glyph unicode="&#x13b;" horiz-adv-x="528" d="M62 674h181v-523h259v-151h-440v674zM166 -175q62 14 62 59q0 15 -9 33l-18 26l123 19q39 -29 39 -81q0 -63 -49 -97q-45 -32 -123 -34z" />
<glyph unicode="&#x13c;" horiz-adv-x="292" d="M55 711h181v-711h-181v711zM36 -176q62 12 62 59q0 15 -9 33l-18 26l123 19q39 -29 39 -81q0 -63 -49 -97q-45 -32 -123 -34z" />
<glyph unicode="&#x13d;" horiz-adv-x="528" d="M62 674h181v-523h259v-151h-440v674zM284 552q62 14 62 59q0 15 -9 33l-18 26l123 19q39 -29 39 -81q0 -63 -49 -97q-45 -32 -123 -34z" />
<glyph unicode="&#x13e;" horiz-adv-x="302" d="M55 711h181v-711h-181v711zM271 529q24 55 24 107q0 35 -15 69l110 18q30 -26 30 -82q0 -57 -26 -105q-9 -16 -22 -32l-17 -20z" />
<glyph unicode="&#x13f;" horiz-adv-x="528" d="M62 674h181v-523h259v-151h-440v674zM402 305q-78 0 -78 76q0 77 79 77q75 0 75 -77q0 -76 -75 -76h-1z" />
<glyph unicode="&#x140;" horiz-adv-x="389" d="M55 711h181v-711h-181v711zM342 324q-72 0 -72 76t73 76q69 0 69 -76t-69 -76h-1z" />
<glyph unicode="&#x141;" horiz-adv-x="535" d="M70 0v220l-72 -47v122l72 47v332h181v-213l122 80v-122l-122 -80v-188h259v-151h-440z" />
<glyph unicode="&#x142;" horiz-adv-x="307" d="M63 0v204l-63 -49v126l63 49v381h181v-248l71 55v-126l-71 -55v-337h-181z" />
<glyph unicode="&#x143;" horiz-adv-x="705" d="M62 0v674h213l107 -207q26 -48 56 -113q26 -60 50 -123h3q-14 125 -14 283v160h165v-674h-190l-115 224q-31 59 -58 118q-33 68 -55 125h-4q7 -127 7 -301v-166h-165zM529 836l-120 -126h-144l81 126h183z" />
<glyph unicode="&#x144;" horiz-adv-x="599" d="M55 324q0 45 -1 92l-3 76h156l8 -63h3q8 12 19 23q14 13 31 24q44 27 98 27q178 0 178 -213v-290h-181v268q0 90 -63 90q-24 0 -40 -14q-11 -11 -19 -29q-5 -11 -5 -36v-279h-181v324zM459 706l-123 -156h-122l85 156h160z" />
<glyph unicode="&#x145;" horiz-adv-x="705" d="M62 0v674h213l107 -207q26 -48 56 -113q26 -60 50 -123h3q-14 125 -14 283v160h165v-674h-190l-115 224q-31 59 -58 118q-33 68 -55 125h-4q7 -127 7 -301v-166h-165zM255 -172q62 14 62 59q0 15 -9 33l-18 26l123 19q39 -29 39 -81q0 -63 -49 -97q-45 -32 -123 -34z" />
<glyph unicode="&#x146;" horiz-adv-x="599" d="M55 324q0 45 -1 92l-3 76h156l8 -63h3q8 12 19 23q14 13 31 24q44 27 98 27q178 0 178 -213v-290h-181v268q0 90 -63 90q-24 0 -40 -14q-11 -11 -19 -29q-5 -11 -5 -36v-279h-181v324zM201 -176q62 12 62 59q0 15 -9 33l-18 26l123 19q39 -29 39 -81q0 -63 -49 -97 q-45 -32 -123 -34z" />
<glyph unicode="&#x147;" horiz-adv-x="705" d="M62 0v674h213l107 -207q26 -48 56 -113q26 -60 50 -123h3q-14 125 -14 283v160h165v-674h-190l-115 224q-31 59 -58 118q-33 68 -55 125h-4q7 -127 7 -301v-166h-165zM290 710l-99 126h121l45 -59h2l44 59h121l-99 -126h-135z" />
<glyph unicode="&#x148;" horiz-adv-x="599" d="M55 324q0 45 -1 92l-3 76h156l8 -63h3q8 12 19 23q14 13 31 24q44 27 98 27q178 0 178 -213v-290h-181v268q0 90 -63 90q-24 0 -40 -14q-11 -11 -19 -29q-5 -11 -5 -36v-279h-181v324zM239 550l-101 156h113l47 -84h2l47 84h114l-102 -156h-120z" />
<glyph unicode="&#x149;" horiz-adv-x="599" d="M55 324q0 45 -1 92l-3 76h156l8 -63h3q8 12 19 23q14 13 31 24q44 27 98 27q178 0 178 -213v-290h-181v268q0 90 -63 90q-24 0 -40 -14q-11 -11 -19 -29q-5 -11 -5 -36v-279h-181v324zM4 565q28 48 28 89q0 29 -15 53l112 29q11 -8 20 -27q10 -23 10 -50q0 -47 -30 -90 q-10 -16 -24 -31l-21 -19z" />
<glyph unicode="&#x14a;" horiz-adv-x="705" d="M62 0v674h213l107 -207q26 -48 56 -113q26 -60 50 -123h3q-14 125 -14 283v160h165v-621q0 -132 -69 -202q-61 -62 -174 -73l-40 136q91 24 105 67l-127 243q-31 59 -58 118q-33 68 -55 125h-4q7 -127 7 -301v-166h-165z" />
<glyph unicode="&#x14b;" horiz-adv-x="599" d="M55 324q0 45 -1 92l-3 76h156l8 -63h3q8 12 19 23q14 13 31 24q44 27 98 27q178 0 178 -213v-231q0 -131 -63 -196q-52 -54 -152 -65l-36 139q70 11 70 91v240q0 90 -63 90q-24 0 -40 -14q-11 -11 -19 -29q-5 -11 -5 -36v-279h-181v324z" />
<glyph unicode="&#x14c;" horiz-adv-x="730" d="M358 -11q-151 0 -240 102q-84 95 -84 242q0 151 90 250q93 102 245 102q155 0 245 -103q82 -94 82 -238q0 -163 -91 -259t-246 -96h-1zM367 132q64 0 102 57q36 56 36 149q0 89 -37 146q-38 58 -103 58q-64 0 -103 -59q-37 -56 -37 -146q-1 -92 37 -148q38 -57 103 -57h2 zM500 827v-92h-268v92h268z" />
<glyph unicode="&#x14d;" horiz-adv-x="589" d="M292 -11q-114 0 -186 67q-75 69 -75 186q0 119 73 189q73 72 198 72q115 0 186 -70q70 -70 70 -182q0 -127 -81 -198q-73 -64 -184 -64h-1zM297 116q75 0 75 130q0 56 -18 91q-20 39 -57 39q-42 0 -62 -41q-18 -34 -18 -89q0 -130 79 -130h1zM426 675v-96h-261v96h261z " />
<glyph unicode="&#x14e;" horiz-adv-x="730" d="M358 -11q-151 0 -240 102q-84 95 -84 242q0 151 90 250q93 102 245 102q155 0 245 -103q82 -94 82 -238q0 -163 -91 -259t-246 -96h-1zM367 132q64 0 102 57q36 56 36 149q0 89 -37 146q-38 58 -103 58q-64 0 -103 -59q-37 -56 -37 -146q-1 -92 37 -148q38 -57 103 -57h2 zM311 849q4 -45 53 -45q50 0 59 45h89q-2 -135 -147 -135q-74 0 -111 38q-34 34 -36 97h93z" />
<glyph unicode="&#x14f;" horiz-adv-x="589" d="M241 697q8 -58 53 -58q54 0 56 58h90q-2 -151 -145 -151t-145 151h91zM483 63q71 69 71 185q0 108 -67 175q-63 64 -166 71v-128q51 -22 51 -122q0 -54 -17 -88q-20 -39 -61 -39q-37 0 -56 38q-17 34 -17 89q0 106 54 124v126q-101 -7 -165 -69q-71 -69 -71 -186 q0 -109 69 -178q69 -68 181 -68q122 0 194 70z" />
<glyph unicode="&#x150;" horiz-adv-x="730" d="M358 -11q-151 0 -240 102q-84 95 -84 242q0 151 90 250q93 102 245 102q155 0 245 -103q82 -94 82 -238q0 -163 -91 -259t-246 -96h-1zM367 132q64 0 102 57q36 56 36 149q0 89 -37 146q-38 58 -103 58q-64 0 -103 -59q-37 -56 -37 -146q-1 -92 37 -148q38 -57 103 -57h2 zM427 838l-98 -118h-122l59 118h161zM623 838l-97 -118h-123l59 118h161z" />
<glyph unicode="&#x151;" horiz-adv-x="589" d="M292 -11q-114 0 -186 67q-75 69 -75 186q0 119 73 189q73 72 198 72q115 0 186 -70q70 -70 70 -182q0 -127 -81 -198q-73 -64 -184 -64h-1zM297 116q75 0 75 130q0 56 -18 91q-20 39 -57 39q-42 0 -62 -41q-18 -34 -18 -89q0 -130 79 -130h1zM319 705l-92 -155h-99 l57 155h134zM505 705l-92 -155h-99l56 155h135z" />
<glyph unicode="&#x152;" horiz-adv-x="952" d="M367 694h13q33 0 141 -10l21 -1h360l1 -2v-147l-1 -1h-259v-109h243l2 -2v-145l-2 -1h-243v-126h273l2 -1v-148l-2 -1h-402l-54 -4l-1 1v540q-33 12 -67 12q-84 0 -138 -72q-36 -55 -36 -138q0 -123 86 -179q42 -26 101 -26h5l2 -1v-141q0 -3 -41 -3q-211 0 -303 160 q-44 83 -44 182v12q0 139 84 241q102 110 259 110z" />
<glyph unicode="&#x153;" horiz-adv-x="898" d="M289 500h9q102 0 162 -69q68 69 165 69h9q116 0 178 -107q33 -66 33 -143v-6q-3 -61 -6 -61h-248l-1 1v120l1 1h87q0 58 -47 75q-12 3 -24 3q-77 0 -77 -94v-41q0 -96 57 -121q30 -13 61 -13h20q65 0 130 26q2 -5 24 -122q-75 -38 -189 -38h-5q-108 0 -174 62 q-65 -62 -167 -62h-5q-122 0 -197 95q-37 51 -46 113q-3 21 -3 34l1 1h186q2 0 4 -27q17 -88 76 -88q64 0 76 100l2 32q0 98 -51 127q-13 5 -26 5q-51 0 -70 -62q-5 -15 -8 -39l-1 -1h-187v1h-1q3 51 33 109q44 74 130 106q47 14 89 14z" />
<glyph unicode="&#x154;" horiz-adv-x="617" d="M62 664q42 7 94 11q61 4 124 4q159 0 228 -53q66 -51 66 -146q0 -58 -38 -105q-32 -41 -77 -58v-3q58 -27 86 -121l23 -85q5 -18 7 -28q8 -31 14 -49q7 -22 11 -31h-184q-9 17 -20 54q-14 44 -27 102t-35 79q-20 18 -64 18h-29v-253h-179v664zM241 383h47q107 0 107 83 q0 79 -93 79q-23 0 -40 -1q-13 -1 -21 -3v-158zM477 836l-120 -126h-144l81 126h183z" />
<glyph unicode="&#x155;" horiz-adv-x="403" d="M55 326q0 111 -4 166h154l7 -89h4q18 51 59 78q34 22 72 22q23 0 36 -3v-169q-22 5 -46 5q-83 0 -99 -62q-2 -16 -2 -31v-243h-181v326zM370 706l-123 -156h-122l85 156h160z" />
<glyph unicode="&#x156;" horiz-adv-x="617" d="M62 664q42 7 94 11q61 4 124 4q159 0 228 -53q66 -51 66 -146q0 -58 -38 -105q-32 -41 -77 -58v-3q58 -27 86 -121l23 -85q5 -18 7 -28q8 -31 14 -49q7 -22 11 -31h-184q-9 17 -20 54q-14 44 -27 102t-35 79q-20 18 -64 18h-29v-253h-179v664zM241 383h47q107 0 107 83 q0 79 -93 79q-23 0 -40 -1q-13 -1 -21 -3v-158zM210 -175q62 14 62 59q0 15 -9 33l-18 26l123 19q39 -29 39 -81q0 -63 -49 -97q-45 -32 -123 -34z" />
<glyph unicode="&#x157;" horiz-adv-x="403" d="M55 326q0 111 -4 166h154l7 -89h4q18 51 59 78q34 22 72 22q23 0 36 -3v-169q-22 5 -46 5q-83 0 -99 -62q-2 -16 -2 -31v-243h-181v326zM43 -176q62 12 62 59q0 15 -9 33l-18 26l123 19q39 -29 39 -81q0 -63 -49 -97q-45 -32 -123 -34z" />
<glyph unicode="&#x158;" horiz-adv-x="617" d="M62 664q42 7 94 11q61 4 124 4q159 0 228 -53q66 -51 66 -146q0 -58 -38 -105q-32 -41 -77 -58v-3q58 -27 86 -121l23 -85q5 -18 7 -28q8 -31 14 -49q7 -22 11 -31h-184q-9 17 -20 54q-14 44 -27 102t-35 79q-20 18 -64 18h-29v-253h-179v664zM241 383h47q107 0 107 83 q0 79 -93 79q-23 0 -40 -1q-13 -1 -21 -3v-158zM236 710l-99 126h121l45 -59h2l44 59h121l-99 -126h-135z" />
<glyph unicode="&#x159;" horiz-adv-x="403" d="M55 326q0 111 -4 166h154l7 -89h4q18 51 59 78q34 22 72 22q23 0 36 -3v-169q-22 5 -46 5q-83 0 -99 -62q-2 -16 -2 -31v-243h-181v326zM149 550l-101 156h113l47 -84h2l47 84h114l-102 -156h-120z" />
<glyph unicode="&#x15a;" horiz-adv-x="561" d="M74 180q34 -18 77 -29q51 -13 98 -13q92 0 92 55q0 41 -106 77q-91 33 -138 79q-52 52 -52 124q0 92 72 150q74 61 199 61q56 0 105 -10q41 -8 77 -24l-38 -145q-6 3 -12 5q-7 3 -14 5q-16 7 -33 11q-43 11 -87 11q-85 0 -85 -50q0 -33 121 -79q175 -65 175 -203 q0 -93 -70 -151q-76 -64 -217 -64q-57 0 -115 13q-52 12 -83 28zM475 836l-120 -126h-144l81 126h183z" />
<glyph unicode="&#x15b;" horiz-adv-x="451" d="M60 152q61 -37 136 -37q54 0 54 27q0 21 -64 42q-77 24 -114 66q-32 37 -31 84q0 74 58 121q60 48 156 48q42 0 84 -9q35 -7 62 -19l-29 -122q-21 10 -48 18q-34 9 -61 9q-49 0 -49 -28q0 -21 74 -45q133 -43 135 -152q0 -74 -55 -118q-60 -47 -170 -47q-101 0 -169 35z M403 706l-123 -156h-122l85 156h160z" />
<glyph unicode="&#x15c;" horiz-adv-x="561" d="M74 180q34 -18 77 -29q51 -13 98 -13q92 0 92 55q0 41 -106 77q-91 33 -138 79q-52 52 -52 124q0 92 72 150q74 61 199 61q56 0 105 -10q41 -8 77 -24l-38 -145q-6 3 -12 5q-7 3 -14 5q-16 7 -33 11q-43 11 -87 11q-85 0 -85 -50q0 -33 121 -79q175 -65 175 -203 q0 -93 -70 -151q-76 -64 -217 -64q-57 0 -115 13q-52 12 -83 28zM352 836l99 -126h-121l-45 59h-2l-44 -59h-121l99 126h135z" />
<glyph unicode="&#x15d;" horiz-adv-x="451" d="M60 152q61 -37 136 -37q54 0 54 27q0 21 -64 42q-77 24 -114 66q-32 37 -31 84q0 74 58 121q60 48 156 48q42 0 84 -9q35 -7 62 -19l-29 -122q-21 10 -48 18q-34 9 -61 9q-49 0 -49 -28q0 -21 74 -45q133 -43 135 -152q0 -74 -55 -118q-60 -47 -170 -47q-101 0 -169 35z M290 706l101 -156h-113l-47 84h-2l-47 -84h-114l102 156h120z" />
<glyph unicode="&#x15e;" horiz-adv-x="561" d="M74 180q34 -18 77 -29q51 -13 98 -13q93 0 93 55q0 40 -107 77q-91 33 -138 79q-52 52 -52 124q0 92 72 150q75 61 200 61q55 0 104 -10q41 -8 77 -24l-38 -145q-6 3 -12 5l-13 5q-17 7 -33 11q-43 11 -87 11q-86 0 -86 -50q0 -33 121 -79q175 -65 175 -203 q0 -76 -48 -130q-53 -59 -151 -77l-20 -39q73 -8 73 -71q0 -48 -40 -72q-34 -21 -89 -21q-52 0 -86 21l22 62q31 -17 55 -17q33 0 33 23q0 29 -78 34l34 72h-1q-107 0 -189 41z" />
<glyph unicode="&#x15f;" horiz-adv-x="451" d="M60 151q61 -37 136 -37q54 0 54 27q0 23 -64 42q-77 25 -113 67q-32 37 -32 84q1 74 59 121q59 48 155 48q42 0 84 -9q35 -7 62 -19l-29 -122q-21 10 -48 18q-34 9 -61 9q-49 0 -49 -28q0 -21 74 -45q135 -45 135 -153q0 -131 -155 -159l-20 -36q73 -10 73 -74 q0 -48 -39 -70q-33 -20 -90 -20q-54 0 -86 21l22 62q31 -17 55 -17q33 0 33 23q0 29 -78 34l34 72h-1q-24 0 -59 7q-47 9 -83 27z" />
<glyph unicode="&#x160;" horiz-adv-x="561" d="M74 180q34 -18 77 -29q51 -13 98 -13q92 0 92 55q0 41 -106 77q-91 33 -138 79q-52 52 -52 124q0 92 72 150q74 61 199 61q56 0 105 -10q41 -8 77 -24l-38 -145q-6 3 -12 5q-7 3 -14 5q-16 7 -33 11q-43 11 -87 11q-85 0 -85 -50q0 -33 121 -79q175 -65 175 -203 q0 -93 -70 -151q-76 -64 -217 -64q-57 0 -115 13q-52 12 -83 28zM222 710l-99 126h121l45 -59h2l44 59h121l-99 -126h-135z" />
<glyph unicode="&#x161;" horiz-adv-x="451" d="M60 152q61 -37 136 -37q54 0 54 27q0 21 -64 42q-77 24 -114 66q-32 37 -31 84q0 74 58 121q60 48 156 48q42 0 84 -9q35 -7 62 -19l-29 -122q-21 10 -48 18q-34 9 -61 9q-49 0 -49 -28q0 -21 74 -45q133 -43 135 -152q0 -74 -55 -118q-60 -47 -170 -47q-101 0 -169 35z M168 550l-101 156h113l47 -84h2l47 84h114l-102 -156h-120z" />
<glyph unicode="&#x162;" horiz-adv-x="570" d="M193 522h-172v152h528v-152h-175v-522h-181v522zM172 -175q62 14 62 59q0 15 -9 33l-18 26l123 19q39 -29 39 -81q0 -63 -49 -97q-45 -32 -123 -34z" />
<glyph unicode="&#x163;" horiz-adv-x="383" d="M253 632v-140h102v-132h-102v-141q0 -82 57 -82q28 0 43 4v-137q-37 -14 -107 -14q-78 0 -123 45q-46 46 -46 153v172h-61v132h61v92zM103 -176q62 12 62 59q0 15 -9 33l-18 26l123 19q39 -29 39 -81q0 -63 -49 -97q-45 -32 -123 -34z" />
<glyph unicode="&#x164;" horiz-adv-x="570" d="M193 522h-172v152h528v-152h-175v-522h-181v522zM217 710l-99 126h121l45 -59h2l44 59h121l-99 -126h-135z" />
<glyph unicode="&#x165;" horiz-adv-x="385" d="M253 632v-140h102v-132h-102v-141q0 -82 57 -82q28 0 43 4v-137q-37 -14 -107 -14q-78 0 -123 45q-46 46 -46 153v172h-61v132h61v93zM309 600q31 20 31 65q0 27 -13 53l112 17q30 -24 30 -69q0 -53 -41 -90q-34 -31 -78 -40z" />
<glyph unicode="&#x166;" horiz-adv-x="570" d="M374 522v-141h110v-104h-110v-277h-181v277h-112v104h112v141h-172v152h528v-152h-175z" />
<glyph unicode="&#x167;" horiz-adv-x="383" d="M253 360v-51h76v-91h-76v-13q0 -68 57 -68q28 0 43 4v-137q-37 -14 -107 -14q-78 0 -123 45q-46 46 -46 153v30h-61v91h61v51h-61v132h61v92l176 48v-140h102v-132h-102z" />
<glyph unicode="&#x168;" horiz-adv-x="697" d="M242 674v-383q0 -159 106 -159q107 0 107 159v383h181v-372q0 -313 -293 -313q-282 0 -282 317v368h181zM202 714q-4 139 81 139q20 0 38 -6q12 -5 28 -14q31 -20 43 -20q22 0 27 44h78q4 -136 -84 -136q-35 0 -67 18l-22 13q-10 5 -19 5q-20 0 -23 -43h-80z" />
<glyph unicode="&#x169;" horiz-adv-x="598" d="M541 168q0 -48 1 -94q1 -36 3 -74h-156l-8 65h-3q-20 -30 -48 -48q-43 -28 -101 -28q-175 0 -175 213v290h181v-261q0 -97 63 -97q43 0 58 42q4 9 4 26v290h181v-324zM149 553q-6 144 88 144q30 0 66 -20l23 -14q12 -6 20 -6q21 0 25 45h80q5 -140 -88 -140q-20 0 -39 7 l-25 11q-3 1 -8 4q-3 1 -6 3l-14 8q-8 4 -16 4q-23 0 -24 -46h-82z" />
<glyph unicode="&#x16a;" horiz-adv-x="697" d="M242 674v-383q0 -159 106 -159q107 0 107 159v383h181v-372q0 -313 -293 -313q-282 0 -282 317v368h181zM484 827v-92h-268v92h268z" />
<glyph unicode="&#x16b;" horiz-adv-x="598" d="M541 168q0 -48 1 -94q1 -36 3 -74h-156l-8 65h-3q-20 -30 -48 -48q-43 -28 -101 -28q-175 0 -175 213v290h181v-261q0 -97 63 -97q43 0 58 42q4 9 4 26v290h181v-324zM430 675v-96h-261v96h261z" />
<glyph unicode="&#x16c;" horiz-adv-x="697" d="M242 674v-383q0 -159 106 -159q107 0 107 159v383h181v-372q0 -313 -293 -313q-282 0 -282 317v368h181zM295 840q4 -45 53 -45q50 0 59 45h89q-2 -135 -147 -135q-74 0 -111 38q-34 34 -36 97h93z" />
<glyph unicode="&#x16d;" horiz-adv-x="598" d="M541 168q0 -48 1 -94q1 -36 3 -74h-156l-8 65h-3q-20 -30 -48 -48q-43 -28 -101 -28q-175 0 -175 213v290h181v-261q0 -97 63 -97q43 0 58 42q4 9 4 26v290h181v-324zM245 697q8 -58 53 -58q54 0 56 58h90q-2 -151 -145 -151t-145 151h91z" />
<glyph unicode="&#x16e;" horiz-adv-x="697" d="M242 674v-383q0 -159 106 -159q107 0 107 159v383h181v-372q0 -313 -293 -313q-282 0 -282 317v368h181zM351 891q120 0 120 -102q0 -100 -121 -100q-122 0 -122 99q0 103 122 103h1zM347 834q-41 0 -41 -45q0 -43 42 -43q44 0 44 43q0 45 -44 45h-1z" />
<glyph unicode="&#x16f;" horiz-adv-x="598" d="M541 168q0 -48 1 -94q1 -36 3 -74h-156l-8 65h-3q-20 -30 -48 -48q-43 -28 -101 -28q-175 0 -175 213v290h181v-261q0 -97 63 -97q43 0 58 42q4 9 4 26v290h181v-324zM301 741q119 0 119 -101q0 -100 -120 -100q-121 0 -121 99q0 102 121 102h1zM299 686q-42 0 -42 -47 q0 -44 42 -44q44 0 44 45q0 46 -43 46h-1z" />
<glyph unicode="&#x170;" horiz-adv-x="697" d="M242 674v-383q0 -159 106 -159q107 0 107 159v383h181v-372q0 -313 -293 -313q-282 0 -282 317v368h181zM409 838l-98 -118h-122l59 118h161zM605 838l-97 -118h-123l59 118h161z" />
<glyph unicode="&#x171;" horiz-adv-x="598" d="M541 168q0 -48 1 -94q1 -36 3 -74h-156l-8 65h-3q-20 -30 -48 -48q-43 -28 -101 -28q-175 0 -175 213v290h181v-261q0 -97 63 -97q43 0 58 42q4 9 4 26v290h181v-324zM344 705l-92 -155h-99l57 155h134zM530 705l-92 -155h-99l56 155h135z" />
<glyph unicode="&#x172;" horiz-adv-x="697" d="M494 -189q-52 -36 -120 -36q-109 0 -109 93q0 36 20 72q14 25 38 51h-6q-256 11 -256 316v367h181v-382q0 -159 106 -159q107 0 107 159v382h181v-371q0 -256 -197 -302q-21 -19 -34 -39q-16 -24 -16 -43q0 -34 38 -34q20 0 42 8z" />
<glyph unicode="&#x173;" horiz-adv-x="598" d="M541 168q0 -48 1 -94q1 -36 3 -74h-60q-13 -30 -13 -57q0 -58 56 -58q25 0 43 6l24 -81q-46 -35 -111 -35q-121 0 -121 115q0 29 12 67l14 43l-8 65h-3q-20 -30 -48 -48q-43 -28 -101 -28q-175 0 -175 213v290h181v-261q0 -97 63 -97q43 0 58 42q4 9 4 26v290h181v-324z " />
<glyph unicode="&#x174;" horiz-adv-x="906" d="M170 0l-155 674h194l57 -371l16 -116h2q8 53 19 117q8 53 21 123l43 247h193l42 -259q9 -56 16 -112q7 -50 14 -111h2l34 235l40 247h183l-166 -674h-197l-45 264q-16 93 -28 202h-2l-8 -57q-4 -29 -8 -51q-8 -54 -16 -94l-51 -264h-200zM528 836l99 -126h-121l-45 59h-2 l-44 -59h-121l99 126h135z" />
<glyph unicode="&#x175;" horiz-adv-x="769" d="M192 492l28 -181l6 -38q4 -22 6 -40q7 -46 12 -85h2q6 36 16 85l56 259h141l44 -206l3 -10l8 -42q10 -50 15 -86h2q4 41 11 86q6 39 14 85l29 173h176l-147 -492h-170l-34 146q-12 54 -27 150h-2q-9 -81 -25 -148l-37 -148h-170l-141 492h184zM446 706l101 -156h-113 l-47 84h-2l-47 -84h-114l102 156h120z" />
<glyph unicode="&#x176;" horiz-adv-x="629" d="M219 0v272l-212 402h207l57 -152q17 -43 24 -64q12 -31 22 -61h2q19 61 43 125l55 152h204l-221 -395v-279h-181zM383 836l99 -126h-121l-45 59h-2l-44 -59h-121l99 126h135z" />
<glyph unicode="&#x177;" horiz-adv-x="545" d="M205 492l59 -221l21 -88h4l63 309h192l-105 -313q-52 -146 -95 -224q-37 -66 -80 -104q-39 -34 -86 -53q-37 -15 -78 -19l-37 152q32 5 62 19q34 13 58 45q9 13 9 22q0 5 -1 11q-2 7 -6 15l-180 449h200zM341 706l101 -156h-113l-47 84h-2l-47 -84h-114l102 156h120z" />
<glyph unicode="&#x178;" horiz-adv-x="629" d="M219 0v272l-212 402h207l57 -152q17 -43 24 -64q12 -31 22 -61h2q19 61 43 125l55 152h204l-221 -395v-279h-181zM216 709q-77 0 -77 77q0 76 78 76q74 0 74 -76q0 -77 -74 -77h-1zM433 709q-76 0 -76 77q0 76 77 76q75 0 75 -76q0 -77 -75 -77h-1z" />
<glyph unicode="&#x179;" horiz-adv-x="588" d="M21 96l298 425v4h-270v149h504v-103l-289 -418v-4h294v-149h-537v96zM470 836l-120 -126h-144l81 126h183z" />
<glyph unicode="&#x17a;" horiz-adv-x="486" d="M24 103l126 153q44 50 84 91v2h-194v143h414v-108l-129 -156l-32 -37q-24 -27 -44 -46v-2h214v-143h-439v103zM417 706l-123 -156h-122l85 156h160z" />
<glyph unicode="&#x17b;" horiz-adv-x="588" d="M21 96l298 425v4h-270v149h504v-103l-289 -418v-4h294v-149h-537v96zM298 709q-78 0 -78 76q0 77 79 77q75 0 75 -77q0 -76 -75 -76h-1z" />
<glyph unicode="&#x17c;" horiz-adv-x="486" d="M24 103l126 153q44 50 84 91v2h-194v143h414v-108l-129 -156l-32 -37q-24 -27 -44 -46v-2h214v-143h-439v103zM248 551q-80 0 -80 79t81 79q76 0 76 -79t-76 -79h-1z" />
<glyph unicode="&#x17d;" horiz-adv-x="588" d="M21 96l298 425v4h-270v149h504v-103l-289 -418v-4h294v-149h-537v96zM231 710l-99 126h121l45 -59h2l44 59h121l-99 -126h-135z" />
<glyph unicode="&#x17e;" horiz-adv-x="486" d="M24 103l126 153q44 50 84 91v2h-194v143h414v-108l-129 -156l-32 -37q-24 -27 -44 -46v-2h214v-143h-439v103zM185 550l-101 156h113l47 -84h2l47 84h114l-102 -156h-120z" />
<glyph unicode="&#x192;" horiz-adv-x="573" d="M115 416h88l3 27q1 12 3 25q3 16 8 31q12 41 34 73q27 40 68 62q48 27 114 27q57 0 89 -17l-28 -126q-18 8 -45 8q-59 0 -68 -69l-6 -41h94v-124h-109l-21 -167q-6 -49 -17 -84q-14 -41 -36 -69q-50 -65 -155 -65q-68 2 -97 17l24 124q17 -5 43 -7q34 1 48 24 q15 26 26 112l13 115h-73v124z" />
<glyph unicode="&#x1fc;" horiz-adv-x="66" d="M331 1152h188v-1l-124 -129h-148v0q80 127 84 130zM782 945l1 -2v-147l-1 -2h-275l15 -112h257l2 -2v-146l-2 -1h-234l17 -121h261l1 -2v-147l-1 -1h-417q-2 0 -8 56l-15 107h-144l-1 1h-1l53 145h72l-31 245h-3q-32 -107 -84 -242l-114 -312h-1h-186h-1h-1l282 683h559z " />
<glyph unicode="&#x1fd;" horiz-adv-x="816" d="M482 190q9 -69 122 -69q73 0 139 26l23 -120q-42 -21 -95 -31q-43 -7 -94 -7q-131 0 -187 79h-4q-33 -37 -75 -57q-47 -22 -108 -22q-80 0 -129 47q-47 44 -47 113q0 89 81 137q76 45 206 45v12q0 4 -4 10t-13 12q-23 15 -68 15q-35 0 -74 -12q-31 -10 -59 -25l-33 113 l31 14q20 9 41 16q55 17 109 17q113 0 164 -69h2q64 69 166 69q103 0 161 -75q52 -69 52 -177q0 -12 -2 -34l-2 -27h-303zM319 223q-116 0 -116 -61q0 -48 53 -48q38 0 59 38q4 7 4 28v43zM624 310v10l-2 12q-3 15 -10 26q-17 29 -57 29q-36 0 -57 -28q-17 -23 -17 -49h143z M567 706l-123 -156h-122l85 156h160z" />
<glyph unicode="&#x1fe;" horiz-adv-x="730" d="M75 0l55 84q-96 96 -96 254q0 147 90 245q93 102 242 102q75 0 140 -27l54 80l101 -67l-54 -84q89 -95 89 -246q0 -160 -92 -256q-90 -96 -239 -96q-70 0 -133 25l-60 -90zM423 530q-24 15 -58 15q-68 0 -109 -55q-41 -57 -41 -152q0 -52 16 -100h1zM315 142 q19 -13 50 -13q150 0 150 209q0 41 -11 88l-2 1zM541 840l-120 -126h-144l81 126h183z" />
<glyph unicode="&#x1ff;" horiz-adv-x="589" d="M295 503q67 0 116 -23l49 73l59 -41l-47 -70q86 -69 86 -196q0 -122 -81 -193q-73 -64 -181 -64q-65 0 -113 22l-51 -75l-57 45l46 67q-90 68 -90 197q0 115 72 186q72 72 191 72h1zM334 363q-18 13 -40 13q-46 0 -70 -42q-20 -36 -20 -88q0 -38 10 -59l2 -1zM258 129 q13 -13 38 -13q89 0 89 126q0 34 -7 58l-3 1zM459 706l-123 -156h-122l85 156h160z" />
<glyph unicode="&#x218;" horiz-adv-x="561" d="M74 180q34 -18 77 -29q51 -13 98 -13q92 0 92 55q0 41 -106 77q-91 33 -138 79q-52 52 -52 124q0 92 72 150q74 61 199 61q56 0 105 -10q41 -8 77 -24l-38 -145q-6 3 -12 5q-7 3 -14 5q-16 7 -33 11q-43 11 -87 11q-85 0 -85 -50q0 -33 121 -79q175 -65 175 -203 q0 -93 -70 -151q-76 -64 -217 -64q-57 0 -115 13q-52 12 -83 28zM180 -175q62 14 62 59q0 15 -9 33l-18 26l123 19q39 -29 39 -81q0 -63 -49 -97q-45 -32 -123 -34z" />
<glyph unicode="&#x219;" horiz-adv-x="451" d="M60 152q61 -37 136 -37q54 0 54 27q0 21 -64 42q-77 24 -114 66q-32 37 -31 84q0 74 58 121q60 48 156 48q42 0 84 -9q35 -7 62 -19l-29 -122q-21 10 -48 18q-34 9 -61 9q-49 0 -49 -28q0 -21 74 -45q133 -43 135 -152q0 -74 -55 -118q-60 -47 -170 -47q-101 0 -169 35z M124 -176q62 12 62 59q0 15 -9 33l-18 26l123 19q39 -29 39 -81q0 -63 -49 -97q-45 -32 -123 -34z" />
<glyph unicode="&#x2c6;" d="M211 706l101 -156h-113l-47 84h-2l-47 -84h-114l102 156h120z" />
<glyph unicode="&#x2c7;" d="M89 550l-101 156h113l47 -84h2l47 84h114l-102 -156h-120z" />
<glyph unicode="&#x2d8;" d="M96 697q8 -58 53 -58q54 0 56 58h90q-2 -151 -145 -151t-145 151h91z" />
<glyph unicode="&#x2d9;" d="M114 551q-80 0 -80 79t81 79q76 0 76 -79t-76 -79h-1z" />
<glyph unicode="&#x2da;" horiz-adv-x="400" d="M202 741q119 0 119 -101q0 -100 -120 -100q-121 0 -121 99q0 102 121 102h1zM200 686q-42 0 -42 -47q0 -44 42 -44q44 0 44 45q0 46 -43 46h-1z" />
<glyph unicode="&#x2db;" d="M156 1q-13 -30 -13 -62q0 -54 54 -54q13 0 26 3l11 2q4 2 8 3l24 -83q-46 -35 -111 -35q-121 0 -121 115q0 30 12 67q4 13 10 26l4 11l4 7h92z" />
<glyph unicode="&#x2dc;" d="M5 553q-6 144 88 144q30 0 66 -20l24 -14q11 -6 19 -6q21 0 25 45h80q6 -140 -88 -140q-20 0 -39 7l-25 11q-3 1 -8 4q-3 1 -6 3l-14 8q-8 4 -16 4q-22 0 -24 -46h-82z" />
<glyph unicode="&#x2dd;" d="M169 705l-92 -155h-99l57 155h134zM355 705l-92 -155h-99l56 155h135z" />
<glyph unicode="&#x37e;" horiz-adv-x="303" d="M21 -118q21 83 34 152q15 79 20 144l178 5q-41 -147 -115 -291zM158 269q-107 0 -107 111q0 109 108 109t108 -109q0 -111 -108 -111h-1z" />
<glyph unicode="&#x384;" horiz-adv-x="304" d="M280 706l-80 -156h-116l43 156h153z" />
<glyph unicode="&#x385;" horiz-adv-x="474" d="M320 738l-58 -183h-92l22 183h128zM76 560q-70 0 -70 69t71 69q67 0 67 -69t-67 -69h-1zM394 560q-68 0 -68 69t69 69t69 -69t-69 -69h-1z" />
<glyph unicode="&#x386;" horiz-adv-x="685" d="M249 156l-38 -156h-187l196 674h240l201 -674h-195l-43 156h-174zM398 289l-31 121l-33 133h-2l-30 -133l-29 -121h125zM140 674l-37 -182h-102l-1 182h140z" />
<glyph unicode="&#x387;" horiz-adv-x="303" d="M150 198q-49 0 -80 33q-32 32 -32 83q0 50 32 83q32 32 82 32q111 0 113 -115q0 -116 -114 -116h-1z" />
<glyph unicode="&#x388;" horiz-adv-x="677" d="M610 272h-242v-124h271v-148h-452v674h438v-148h-257v-108h242v-146zM140 674l-38 -182h-102v182h140z" />
<glyph unicode="&#x389;" horiz-adv-x="829" d="M368 674v-250h218v250h181v-674h-181v266h-218v-266h-181v674h181zM140 674l-37 -182h-102l-1 182h140z" />
<glyph unicode="&#x38a;" horiz-adv-x="430" d="M368 674v-674h-181v674h181zM140 674l-38 -182h-102v182h140z" />
<glyph unicode="&#x38c;" horiz-adv-x="820" d="M448 -11q-151 0 -240 102q-84 95 -84 242q0 151 90 250q93 102 245 102q155 0 245 -103q82 -94 82 -238q0 -163 -91 -259t-246 -96h-1zM457 132q64 0 102 57q36 56 36 149q0 89 -37 146q-38 58 -103 58q-64 0 -103 -59q-37 -56 -37 -146q-1 -92 37 -148q38 -57 103 -57h2 zM141 674l-38 -182h-102v182h140z" />
<glyph unicode="&#x38e;" horiz-adv-x="810" d="M200 680q52 0 104 -20q62 -24 104 -70q68 -71 81 -203h8q15 116 86 195q89 98 189 98l27 -154q-75 -19 -135 -94q-55 -70 -76 -159q-16 -73 -16 -138v-135h-181v135q0 69 -9 131q-17 106 -62 171q-54 78 -147 94zM140 674l-38 -182h-102v182h140z" />
<glyph unicode="&#x38f;" horiz-adv-x="846" d="M683 136h130v-136h-317v104q27 21 46 42q22 25 38 52q35 64 35 152q0 83 -40 137q-42 55 -107 55q-66 0 -108 -54q-43 -55 -43 -139q0 -82 35 -150q32 -63 84 -95v-104h-318v136h127v4q-47 37 -77 90q-38 66 -38 144q0 129 94 219q97 92 247 92q78 0 143 -26 q59 -24 103 -68q84 -86 84 -205q0 -45 -12 -86q-10 -36 -29 -69q-16 -28 -38 -53q-18 -20 -39 -38v-4zM140 674l-37 -182h-102l-1 182h140z" />
<glyph unicode="&#x390;" horiz-adv-x="299" d="M237 168q0 -48 45 -43l-9 -124q-21 -12 -75 -12q-72 0 -105 34q-37 38 -37 128v341h181v-324zM239 728l-58 -180h-90l21 180h127zM-3 551q-69 0 -69 69q0 68 70 68q67 0 67 -68q0 -69 -67 -69h-1zM312 551q-68 0 -68 69q0 68 69 68q68 0 68 -68q0 -69 -68 -69h-1z" />
<glyph unicode="&#x391;" horiz-adv-x="675" d="M239 156l-38 -156h-187l196 674h240l201 -674h-195l-43 156h-174zM388 289l-31 121l-33 133h-2l-30 -133l-29 -121h125z" />
<glyph unicode="&#x392;" horiz-adv-x="631" d="M62 664q77 15 213 15q140 0 206 -33q91 -43 91 -139q0 -45 -25 -80q-29 -40 -85 -61v-2q132 -37 132 -164q0 -91 -76 -148q-39 -30 -104 -44q-69 -16 -174 -16q-116 0 -178 12v660zM241 415h36q114 0 114 70q0 64 -91 64q-20 0 -36 -1l-23 -3v-130zM241 126q13 -2 52 -2 q49 0 78 20q33 22 33 64q0 79 -120 79h-43v-161z" />
<glyph unicode="&#x393;" horiz-adv-x="495" d="M492 674v-151h-249v-523h-181v674h430z" />
<glyph unicode="&#x395;" horiz-adv-x="552" d="M485 272h-242v-124h271v-148h-452v674h438v-148h-257v-108h242v-146z" />
<glyph unicode="&#x396;" horiz-adv-x="588" d="M21 96l298 425v4h-270v149h504v-103l-289 -418v-4h294v-149h-537v96z" />
<glyph unicode="&#x397;" horiz-adv-x="705" d="M243 674v-250h219v250h181v-674h-181v266h-219v-266h-181v674h181z" />
<glyph unicode="&#x398;" horiz-adv-x="733" d="M359 -11q-152 0 -241 102q-84 95 -84 242q0 151 90 250q94 102 246 102q155 0 245 -103q83 -95 83 -239q0 -162 -91 -258q-92 -96 -247 -96h-1zM368 132q65 0 103 57q37 56 37 149q0 89 -37 146q-39 58 -104 58t-105 -59q-38 -56 -38 -146q0 -92 38 -148q39 -57 105 -57 h1zM457 414v-145h-183v145h183z" />
<glyph unicode="&#x399;" horiz-adv-x="305" d="M243 674v-674h-181v674h181z" />
<glyph unicode="&#x39a;" horiz-adv-x="646" d="M62 674h179v-286h2l38 65l135 221h222l-214 -287l222 -387h-209l-142 273l-54 -69v-204h-179v674z" />
<glyph unicode="&#x39b;" horiz-adv-x="665" d="M455 0l-98 378q-17 77 -35 150h-2l-29 -151l-88 -377h-189l196 674h238l205 -674h-198z" />
<glyph unicode="&#x39c;" horiz-adv-x="865" d="M633 242q-2 55 -3 125q-1 63 -1 146h-3q-15 -62 -35 -138q-18 -65 -36 -126l-67 -235h-141l-56 235q-13 52 -28 125q-14 67 -26 139h-2l-10 -271l-11 -242h-166l42 674h243l44 -182q15 -58 28 -120q15 -67 25 -126h3l30 128q18 73 31 120l51 180h237l34 -674h-175z" />
<glyph unicode="&#x39d;" horiz-adv-x="705" d="M62 0v674h213l107 -207q26 -48 56 -113q26 -60 50 -123h3q-14 125 -14 283v160h165v-674h-190l-115 224q-31 59 -58 118q-33 68 -55 125h-4q7 -127 7 -301v-166h-165z" />
<glyph unicode="&#x39e;" horiz-adv-x="589" d="M536 674v-146h-478v146h478zM505 417v-146h-417v146h417zM552 148v-148h-510v148h510z" />
<glyph unicode="&#x39f;" horiz-adv-x="730" d="M358 -11q-151 0 -240 102q-84 95 -84 242q0 151 90 250q93 102 245 102q155 0 245 -103q82 -94 82 -238q0 -163 -91 -259t-246 -96h-1zM367 132q64 0 102 57q36 56 36 149q0 89 -37 146q-38 58 -103 58q-64 0 -103 -59q-37 -56 -37 -146q-1 -92 37 -148q38 -57 103 -57h2 z" />
<glyph unicode="&#x3a0;" horiz-adv-x="681" d="M619 0h-181v522h-195v-522h-181v674h557v-674z" />
<glyph unicode="&#x3a1;" horiz-adv-x="602" d="M62 664q41 7 91 11q60 4 131 4q144 0 214 -54q77 -57 77 -162q0 -106 -66 -166q-79 -70 -224 -70l-44 2v-229h-179v664zM241 367q4 0 8 -1l33 -1q114 0 114 94q0 84 -102 84q-35 0 -53 -4v-172z" />
<glyph unicode="&#x3a3;" horiz-adv-x="590" d="M261 148h293v-148h-522v101l185 233l-175 223v117h489v-148h-260v-4l139 -181l-149 -189v-4z" />
<glyph unicode="&#x3a4;" horiz-adv-x="570" d="M193 522h-172v152h528v-152h-175v-522h-181v522z" />
<glyph unicode="&#x3a5;" horiz-adv-x="642" d="M35 680q52 0 104 -20q62 -24 104 -70q68 -71 81 -203h8q15 116 86 195q89 98 189 98l27 -154q-75 -19 -135 -94q-55 -70 -76 -159q-16 -73 -16 -138v-135h-181v135q0 69 -9 131q-17 106 -62 171q-54 78 -147 94z" />
<glyph unicode="&#x3a6;" horiz-adv-x="815" d="M490 -29h-168v56q-122 16 -200 90q-89 83 -89 217q0 71 27 131q25 53 70 94q40 37 94 61q48 22 100 30v53h168v-53q120 -17 199 -90q42 -40 65 -93q25 -57 25 -126q0 -133 -88 -218q-79 -76 -203 -96v-56zM323 526q-44 -12 -74 -56q-35 -53 -35 -136q0 -74 37 -126 q31 -46 72 -55v373zM491 153q43 11 72 50q37 49 37 132q0 86 -35 138q-30 43 -74 53v-373z" />
<glyph unicode="&#x3a7;" horiz-adv-x="631" d="M410 0l-49 110l-52 117h-2q-8 -25 -20 -57l-69 -170h-205l190 341l-183 333h207l46 -107q20 -48 45 -112h2l20 58q10 28 20 53l41 108h206l-183 -329l195 -345h-209z" />
<glyph unicode="&#x3a8;" horiz-adv-x="767" d="M729 479q0 -149 -79 -228q-67 -68 -184 -76v-175h-164v175q-116 8 -184 69q-78 70 -78 199v231h173v-204q0 -86 26 -124q21 -32 63 -35v363h164v-365q43 4 64 42q26 48 26 155v168h173v-195z" />
<glyph unicode="&#x3aa;" horiz-adv-x="305" d="M46 715q-77 0 -77 76t78 76q73 0 73 -76t-73 -76h-1zM259 715q-75 0 -75 76t76 76q75 0 75 -76t-75 -76h-1zM243 674v-674h-181v674h181z" />
<glyph unicode="&#x3ab;" horiz-adv-x="642" d="M218 698q-77 0 -77 76t78 76q73 0 73 -76t-73 -76h-1zM431 698q-75 0 -75 76t76 76q75 0 75 -76t-75 -76h-1zM35 680q52 0 104 -20q62 -24 104 -70q68 -71 81 -203h8q15 116 86 195q89 98 189 98l27 -154q-75 -19 -135 -94q-55 -70 -76 -159q-16 -73 -16 -138v-135h-181 v135q0 69 -9 131q-17 106 -62 171q-54 78 -147 94z" />
<glyph unicode="&#x3ac;" horiz-adv-x="597" d="M441 706l-80 -156h-116l42 156h154zM551 492q-6 -73 -10 -152q-4 -91 -4 -156q0 -66 44 -60l-9 -124q-16 -11 -63 -11q-90 0 -116 84h-2q-49 -84 -154 -84q-87 0 -145 66q-61 70 -61 180q0 120 71 197q66 71 154 71t127 -66h4l13 55h151zM214 244q0 -113 74 -113 q60 0 71 78q3 21 3 40q0 25 -1 35q-12 82 -69 82q-36 0 -58 -37q-20 -34 -20 -84v-1z" />
<glyph unicode="&#x3ad;" horiz-adv-x="481" d="M394 706l-79 -156h-117l43 156h153zM133 262q-80 29 -80 102q0 56 53 95q61 44 169 44q102 0 171 -37l-30 -113q-52 26 -112 26q-70 0 -70 -35q0 -31 103 -32h43v-115h-42q-55 -1 -80 -7q-32 -8 -32 -27q0 -22 26 -33q22 -9 57 -9q66 0 127 28l23 -115q-40 -25 -100 -36 q-47 -9 -99 -9q-95 0 -156 34q-73 40 -73 118q0 44 31 77q28 29 71 39v5z" />
<glyph unicode="&#x3ae;" horiz-adv-x="599" d="M437 706l-80 -156h-117l43 156h154zM218 429q8 12 19 23q14 13 31 24q44 27 98 27q178 0 178 -213v-366q0 -26 1 -46q2 -52 9 -76h-172q-10 15 -15 69q-4 42 -4 102v295q0 90 -63 90q-24 0 -40 -14q-11 -11 -19 -29q-5 -11 -5 -37v-278h-181v324q0 115 -16 168h158 q17 -30 18 -63h3z" />
<glyph unicode="&#x3af;" horiz-adv-x="299" d="M285 707l-80 -156h-119l43 156h156zM236 168q0 -48 45 -43l-9 -124q-21 -12 -75 -12q-72 0 -105 34q-37 38 -37 128v341h181v-324z" />
<glyph unicode="&#x3b0;" horiz-adv-x="573" d="M500 492q15 -31 25 -74q12 -53 12 -112q0 -62 -13 -116q-15 -59 -44 -101q-33 -47 -81 -73q-53 -27 -124 -27q-100 0 -162 53q-66 58 -66 164v123q0 58 -2 94q-3 45 -11 69h177q17 -18 17 -98v-178q0 -82 62 -82q38 0 56 51q15 41 15 111q0 56 -10 118q-8 50 -18 78h167z M365 726l-58 -180h-90l22 180h126zM122 549q-69 0 -69 69q0 68 70 68q67 0 67 -68q0 -69 -67 -69h-1zM439 549q-67 0 -67 69q0 68 68 68t68 -68q0 -69 -68 -69h-1z" />
<glyph unicode="&#x3b1;" horiz-adv-x="596" d="M551 492q-6 -73 -10 -152q-4 -91 -4 -156q0 -66 44 -60l-9 -124q-16 -11 -63 -11q-90 0 -116 84h-2q-49 -84 -154 -84q-87 0 -145 66q-61 70 -61 180q0 120 71 197q66 71 154 71t127 -66h4l13 55h151zM214 244q0 -113 74 -113q60 0 71 78q3 21 3 40q0 25 -1 35 q-12 82 -69 82q-36 0 -58 -37q-20 -34 -20 -84v-1z" />
<glyph unicode="&#x3b2;" horiz-adv-x="599" d="M227 26v-53q0 -56 2 -93q3 -50 11 -78h-168q-10 20 -15 71q-5 45 -5 100v432q0 103 23 167q19 52 58 87q32 29 71 44q46 18 102 18q100 0 158 -56q52 -52 52 -131q0 -41 -18 -80q-21 -46 -59 -66v-6q52 -13 90 -63q39 -52 39 -117q0 -93 -60 -153t-154 -60q-80 0 -125 37 h-2zM226 161q34 -38 79 -38q42 0 63 28q18 23 18 59q0 84 -88 95q-4 1 -10 0h-10v108q7 0 16 3q61 16 61 89q0 77 -58 77q-33 0 -50 -29q-21 -35 -21 -113v-279z" />
<glyph unicode="&#x3b3;" horiz-adv-x="536" d="M168 -198q1 40 1 71q0 37 -2 69q-4 73 -16 137q-11 58 -32 120q-18 55 -42 112q-22 49 -48 99q-21 41 -45 82h199q67 -103 104 -317h5q24 61 38 125q17 77 17 144l-1 48h171l2 -20v-20q0 -92 -47 -209q-45 -112 -126 -227q-7 -8 -7 -24l3 -190h-174z" />
<glyph unicode="&#x3b4;" horiz-adv-x="589" d="M472 561q-18 11 -49 21q-41 13 -74 13q-42 0 -42 -18q0 -10 49 -50l82 -66q119 -96 119 -218q0 -114 -78 -185q-76 -69 -190 -69q-111 0 -184 67q-74 69 -74 175q0 83 51 146q22 26 51 48q25 18 54 32v4l-32 33q-10 12 -16 23q-20 31 -20 63q0 56 55 96q59 45 156 45 q60 0 115 -17q44 -13 72 -33zM283 373q-67 -44 -67 -139q0 -47 23 -81q24 -37 61 -37q76 0 76 111q0 64 -51 110z" />
<glyph unicode="&#x3b5;" horiz-adv-x="481" d="M133 262q-80 29 -80 102q0 56 53 95q61 44 169 44q104 0 171 -37l-30 -113q-52 26 -112 26q-70 0 -70 -35q0 -31 103 -32h43v-115h-42q-55 -1 -80 -7q-32 -8 -32 -27q0 -22 26 -33q22 -9 57 -9q66 0 127 28l23 -115q-40 -25 -100 -36q-47 -9 -99 -9q-95 0 -156 34 q-73 40 -73 118q0 44 31 77q28 29 71 39v5z" />
<glyph unicode="&#x3b6;" horiz-adv-x="456" d="M260 -121q21 52 23 94q-26 5 -50 11q-32 8 -59 19q-61 25 -97 72q-44 58 -44 146q0 192 184 355v5h-37q-73 0 -109 14l16 113q21 -2 62 -3h279l25 -116q-92 -38 -162 -134q-73 -101 -73 -200q0 -91 68 -127q28 -16 72 -26q17 -5 40 -9l39 -6q11 -2 11 -15 q0 -131 -79 -228z" />
<glyph unicode="&#x3b7;" horiz-adv-x="599" d="M218 429q8 12 19 23q14 13 31 24q44 27 98 27q178 0 178 -213v-366q0 -26 1 -46q2 -52 9 -76h-172q-10 15 -15 69q-4 42 -4 102v295q0 90 -63 90q-24 0 -40 -14q-11 -11 -19 -29q-5 -11 -5 -37v-278h-181v324q0 115 -16 168h158q17 -30 18 -63h3z" />
<glyph unicode="&#x3b8;" horiz-adv-x="586" d="M291 -11q-260 0 -260 371q0 160 67 257q72 104 202 104q127 0 194 -101q61 -94 61 -260q0 -173 -64 -269q-68 -102 -199 -102h-1zM376 423q0 78 -21 125q-22 49 -60 49q-42 0 -65 -49q-21 -47 -21 -125h167zM210 296q0 -85 20 -132q22 -51 65 -51t64 51q20 46 20 132 h-169z" />
<glyph unicode="&#x3b9;" horiz-adv-x="299" d="M236 168q0 -48 45 -43l-9 -124q-21 -12 -75 -12q-72 0 -105 34q-37 38 -37 128v341h181v-324z" />
<glyph unicode="&#x3ba;" horiz-adv-x="571" d="M386 265q31 -8 58 -43q19 -26 48 -82l75 -140h-207l-45 96q-44 94 -73 97h-6v-193h-181v359q0 42 -4 80q-4 42 -10 53h177q18 -18 18 -90v-109h2q27 40 63 100l57 99h202v-6l-130 -162q-23 -29 -44 -54v-5z" />
<glyph unicode="&#x3bb;" horiz-adv-x="538" d="M291 198q-11 38 -26 103h-6q-8 -50 -20 -101l-49 -200h-188l170 450q3 9 4 16q1 5 1 10t-2 12q-1 6 -4 14q-27 72 -92 72h-24l16 137q22 6 57 6q82 0 140 -65q25 -28 48 -70q19 -36 37 -86l184 -496h-192z" />
<glyph unicode="&#x3bc;" horiz-adv-x="598" d="M382 64q-12 -29 -39 -48q-32 -22 -73 -22q-31 0 -53 19v-35q0 -46 2 -94q3 -57 8 -82h-159q-6 15 -10 70q-3 48 -3 106v514h181v-268q0 -92 58 -92q47 0 63 42q4 11 4 28v290h181v-322q0 -45 39 -47l-9 -122q-19 -12 -65 -12q-92 0 -121 75h-4z" />
<glyph unicode="&#x3bd;" horiz-adv-x="529" d="M191 492l54 -209l26 -118h5q30 67 46 140q18 77 18 150q0 23 -1 37h170q2 -13 2 -39q0 -97 -51 -222q-23 -55 -55 -116q-28 -53 -66 -115h-175l-167 492h194z" />
<glyph unicode="&#x3be;" horiz-adv-x="489" d="M411 317h-28q-160 0 -160 -101q0 -74 122 -105q59 -14 124 -24q13 -1 13 -14q0 -49 -23 -118q-24 -71 -56 -110l-110 35q18 42 20 93q-25 4 -44 8q-26 5 -47 11q-54 15 -92 37q-46 26 -71 64q-28 43 -28 102q0 153 150 196v6q-102 42 -102 143q0 77 61 127q66 54 180 54 q47 0 84 -7q30 -7 62 -20l-27 -115q-42 17 -86 17q-93 0 -93 -78q0 -69 124 -80q9 -1 27 -1v-120z" />
<glyph unicode="&#x3bf;" horiz-adv-x="589" d="M292 -11q-114 0 -186 67q-75 69 -75 186q0 119 73 189q73 72 198 72q115 0 186 -70q70 -70 70 -182q0 -127 -81 -198q-73 -64 -184 -64h-1zM297 116q75 0 75 130q0 56 -18 91q-20 39 -57 39q-42 0 -62 -41q-18 -34 -18 -89q0 -130 79 -130h1z" />
<glyph unicode="&#x3c0;" horiz-adv-x="620" d="M534 356v-199q0 -96 11 -157h-172q-10 14 -14 59q-4 37 -4 86v211h-82q-1 -89 -14 -190q-14 -113 -35 -166h-173q21 76 35 180q14 108 12 176h-19q-12 0 -22 -1q-25 -1 -42 -5l-17 105q35 37 190 37h418l-16 -136h-56z" />
<glyph unicode="&#x3c1;" horiz-adv-x="604" d="M232 27v-103q0 -26 1 -46q1 -52 5 -76h-175q-5 16 -9 69q-3 50 -3 102v221q0 103 33 170q13 28 33 50q16 19 38 36q72 53 167 53q113 0 182 -71t69 -186q0 -121 -74 -193q-66 -64 -156 -64q-74 0 -109 38h-2zM232 198q0 -13 3 -27q18 -45 70 -45q85 0 85 117 q0 112 -78 112q-80 0 -80 -122v-35z" />
<glyph unicode="&#x3c2;" horiz-adv-x="475" d="M425 351q-43 17 -87 17q-121 0 -121 -131q0 -84 88 -114q30 -10 71 -19l74 -15q8 -2 8 -14q0 -57 -23 -128q-24 -71 -54 -104l-111 36q7 14 14 45q6 27 9 48l-29 7q-20 4 -37 10q-88 24 -137 77q-59 62 -59 161q0 112 77 191q83 85 220 85q79 0 131 -26z" />
<glyph unicode="&#x3c3;" horiz-adv-x="612" d="M496 376q26 -26 41 -67q12 -35 12 -68q0 -124 -77 -191q-69 -61 -179 -61q-115 0 -186 65q-76 68 -76 185q0 120 74 191q75 73 206 73h292l-8 -129q-42 0 -97 7zM297 116q75 0 75 130q0 56 -16 91q-19 39 -56 39q-44 0 -65 -41q-18 -34 -18 -89q0 -130 79 -130h1z" />
<glyph unicode="&#x3c4;" horiz-adv-x="469" d="M377 2q-24 -13 -79 -13q-89 0 -127 47q-34 42 -34 136v184h-36q-57 0 -89 -6l-23 106q5 4 10 6q6 4 12 7q15 7 35 11q48 12 133 12h281l-17 -136h-125v-170q0 -59 47 -59h19z" />
<glyph unicode="&#x3c5;" horiz-adv-x="573" d="M500 492q15 -31 25 -74q12 -53 12 -112q0 -62 -13 -116q-15 -59 -44 -101q-33 -47 -81 -73q-53 -27 -124 -27q-100 0 -162 53q-66 58 -66 164v123q0 58 -2 94q-3 45 -11 69h177q17 -18 17 -98v-178q0 -82 62 -82q38 0 56 51q15 41 15 111q0 56 -10 118q-8 50 -18 78h167z " />
<glyph unicode="&#x3c6;" horiz-adv-x="741" d="M282 409q-30 -23 -49 -60q-23 -44 -23 -96q0 -119 85 -143v206q0 96 57 146q50 44 124 41q96 -3 163 -69q70 -71 70 -178q0 -116 -82 -191q-73 -66 -174 -76v-187h-158v187q-110 10 -181 71q-83 71 -83 190q0 50 19 96q16 41 46 76q54 63 120 82zM452 108q88 22 88 144 q0 55 -22 94q-21 36 -46 36q-20 0 -20 -27v-247z" />
<glyph unicode="&#x3c7;" horiz-adv-x="524" d="M192 492l83 -204h4q9 26 28 77l49 127h170l-168 -335l167 -350l-171 -38l-103 237h-6l-17 -49l-80 -188l-153 39l172 349l-168 335h193z" />
<glyph unicode="&#x3c8;" horiz-adv-x="758" d="M305 -11q-53 4 -95 18q-47 16 -81 45q-37 33 -57 83q-21 54 -21 128v98q0 44 -1 72q-2 34 -6 59h164q15 -17 15 -98v-117q0 -86 24 -126q20 -34 58 -38v507h158v-507q46 1 70 58q20 47 20 118q0 66 -11 130l-10 45q-5 17 -9 28h159q18 -36 28 -77q13 -52 13 -115 q0 -126 -58 -207q-67 -95 -202 -104v-187h-158v187z" />
<glyph unicode="&#x3c9;" horiz-adv-x="750" d="M454 206q0 -66 34 -66q56 0 56 133q0 60 -16 116q-17 61 -49 100v3h162q30 -30 52 -87q26 -68 26 -141q0 -126 -61 -202q-59 -73 -152 -73q-96 0 -133 74h-4q-49 -74 -133 -74q-85 0 -143 67q-62 72 -62 194q0 79 26 147q20 54 54 95h161v-3q-67 -92 -67 -226 q0 -123 53 -123q35 0 33 66l-2 173h168z" />
<glyph unicode="&#x3ca;" horiz-adv-x="299" d="M44 543q-78 0 -78 77t79 77q74 0 74 -77t-74 -77h-1zM257 543q-75 0 -75 77t76 77t76 -77t-76 -77h-1zM237 168q0 -48 45 -43l-9 -124q-21 -12 -75 -12q-72 0 -105 34q-37 38 -37 128v341h181v-324z" />
<glyph unicode="&#x3cb;" horiz-adv-x="573" d="M171 543q-77 0 -77 77t78 77q74 0 74 -77t-74 -77h-1zM384 543q-76 0 -76 77t77 77q76 0 76 -77t-76 -77h-1zM500 492q15 -31 25 -74q12 -53 12 -112q0 -62 -13 -116q-15 -59 -44 -101q-33 -47 -81 -73q-53 -27 -124 -27q-100 0 -162 53q-66 58 -66 164v123q0 58 -2 94 q-3 45 -11 69h177q17 -18 17 -98v-178q0 -82 62 -82q38 0 56 51q15 41 15 111q0 56 -10 118q-8 50 -18 78h167z" />
<glyph unicode="&#x3cc;" horiz-adv-x="589" d="M433 706l-79 -156h-117l43 156h153zM292 -11q-114 0 -186 67q-75 69 -75 186q0 119 73 189q73 72 198 72q115 0 186 -70q70 -70 70 -182q0 -127 -81 -198q-73 -64 -184 -64h-1zM297 116q75 0 75 130q0 56 -18 91q-20 39 -57 39q-42 0 -62 -41q-18 -34 -18 -89 q0 -130 79 -130h1z" />
<glyph unicode="&#x3cd;" horiz-adv-x="573" d="M419 707l-79 -156h-118l42 156h155zM500 492q15 -31 25 -74q12 -53 12 -112q0 -62 -13 -116q-15 -59 -44 -101q-33 -47 -81 -73q-53 -27 -124 -27q-100 0 -162 53q-66 58 -66 164v123q0 58 -2 94q-3 45 -11 69h177q17 -18 17 -98v-178q0 -82 62 -82q38 0 56 51 q15 41 15 111q0 56 -10 118q-8 50 -18 78h167z" />
<glyph unicode="&#x3ce;" horiz-adv-x="750" d="M514 706l-80 -156h-116l43 156h153zM455 206q0 -66 34 -66q56 0 56 133q0 60 -16 116q-17 61 -49 100v3h162q30 -30 52 -87q26 -68 26 -141q0 -126 -61 -202q-59 -73 -152 -73q-96 0 -133 74h-4q-22 -33 -54 -52q-36 -22 -80 -22q-85 0 -143 67q-62 72 -62 194 q0 79 26 147q20 54 54 95h162v-3q-68 -91 -68 -226q0 -123 54 -123q35 0 33 66l-2 173h168z" />
<glyph unicode="&#x401;" horiz-adv-x="552" d="M485 272h-242v-124h271v-148h-452v674h438v-148h-257v-108h242v-146zM171 709q-77 0 -77 77q0 76 78 76q74 0 74 -76q0 -77 -74 -77h-1zM388 709q-76 0 -76 77q0 76 77 76q75 0 75 -76q0 -77 -75 -77h-1z" />
<glyph unicode="&#x402;" horiz-adv-x="747" d="M601 674v-148h-229v-98h4q44 24 111 24q55 0 98 -22q37 -20 67 -58q62 -74 62 -202q0 -214 -164 -286q-57 -36 -117 -41l-27 149q25 6 43 14q22 10 36 25q39 37 39 127q0 81 -28 116q-25 32 -68 32q-17 0 -33 -5l-13 -6q-5 -2 -10 -5v-290h-181v526h-169v148h579z" />
<glyph unicode="&#x403;" horiz-adv-x="514" d="M492 674v-148h-249v-526h-181v674h430zM454 836l-120 -126h-144l81 126h183z" />
<glyph unicode="&#x404;" horiz-adv-x="603" d="M542 513q-25 11 -57 18q-38 9 -77 9q-76 0 -124 -38q-42 -35 -56 -93h289v-140h-287q19 -132 192 -132q68 0 121 21l26 -136q-26 -13 -68 -22q-52 -11 -105 -11q-173 0 -269 95q-93 91 -93 251q0 144 88 241q47 51 114 79q73 30 164 30q57 0 110 -12q39 -9 67 -23z" />
<glyph unicode="&#x405;" horiz-adv-x="561" d="M74 180q34 -18 77 -29q51 -13 98 -13q92 0 92 55q0 41 -106 77q-91 33 -138 79q-52 52 -52 124q0 92 72 150q74 61 199 61q56 0 105 -10q41 -8 77 -24l-38 -145q-6 3 -12 5q-7 3 -14 5q-16 7 -33 11q-43 11 -87 11q-85 0 -85 -50q0 -33 121 -79q175 -65 175 -203 q0 -93 -70 -151q-76 -64 -217 -64q-57 0 -115 13q-52 12 -83 28z" />
<glyph unicode="&#x406;" horiz-adv-x="305" d="M243 674v-674h-181v674h181z" />
<glyph unicode="&#x407;" horiz-adv-x="305" d="M243 674v-674h-181v674h181zM45 709q-77 0 -77 77q0 76 78 76q74 0 74 -76q0 -77 -74 -77h-1zM262 709q-76 0 -76 77q0 76 77 76q75 0 75 -76q0 -77 -75 -77h-1z" />
<glyph unicode="&#x408;" horiz-adv-x="429" d="M191 674h181v-416q0 -142 -67 -208q-63 -61 -189 -61q-71 0 -119 16l19 145q40 -11 79 -11q47 0 70 25q26 28 26 94v416z" />
<glyph unicode="&#x409;" horiz-adv-x="972" d="M594 674v-234q38 5 79 5q112 0 186 -54q81 -59 81 -165q0 -98 -69 -157q-48 -41 -126 -60q-67 -16 -156 -16q-57 0 -104 3q-40 3 -70 8v522h-115v-141q0 -148 -27 -229q-31 -93 -106 -134q-62 -34 -147 -34l-23 145q51 7 80 38q47 51 47 204v299h470zM593 130 q12 -2 24 -3h21q48 0 80 25q34 26 34 71t-33 69q-29 21 -77 21q-13 0 -26 -1l-23 -3v-179z" />
<glyph unicode="&#x40a;" horiz-adv-x="978" d="M243 674v-243h178v243h179v-234q40 5 79 5q116 0 188 -53q79 -59 79 -165q0 -99 -69 -158q-48 -41 -126 -60q-67 -17 -155 -17q-113 0 -175 12v276h-178v-280h-181v674h181zM600 130q26 -3 46 -3q112 0 112 95q0 91 -110 91q-13 0 -26 -1l-22 -3v-179z" />
<glyph unicode="&#x40b;" horiz-adv-x="755" d="M592 674v-148h-220v-110h4q57 37 138 37q87 0 135 -54q49 -56 49 -162v-237h-180v214q0 50 -20 73q-19 21 -54 21q-42 0 -72 -24v-284h-181v526h-170v148h571z" />
<glyph unicode="&#x40c;" horiz-adv-x="633" d="M240 674v-272h8l166 272h220l-227 -295q55 -17 89 -59q30 -36 50 -98q3 -11 9 -28l28 -84q21 -64 42 -110h-194q-14 29 -26 71q-5 14 -11 36l-10 37q-17 61 -39 90q-29 37 -76 37h-29v-271h-178v674h178zM493 831l-120 -126h-144l81 126h183z" />
<glyph unicode="&#x40e;" horiz-adv-x="617" d="M207 676l82 -223q11 -28 25 -70l22 -63h3l35 136l59 220h190l-120 -326l-32 -81q-18 -42 -33 -74q-36 -77 -71 -119q-36 -45 -79 -67q-49 -25 -112 -25q-49 0 -86 13l12 145q23 -6 58 -6q59 0 74 39q5 14 -3 27l-228 474h204zM274 836q0 -61 37 -61q35 0 41 61h118 q-10 -131 -161 -131q-141 0 -154 131h119z" />
<glyph unicode="&#x40f;" horiz-adv-x="690" d="M243 674v-526h205v526h181v-674h-201l-8 -188h-148l-8 188h-202v674h181z" />
<glyph unicode="&#x410;" horiz-adv-x="675" d="M239 156l-38 -156h-187l196 674h240l201 -674h-195l-43 156h-174zM388 289l-31 121l-33 133h-2l-30 -133l-29 -121h125z" />
<glyph unicode="&#x411;" horiz-adv-x="628" d="M540 674v-147h-299v-87q42 5 82 5q120 0 197 -59q75 -58 75 -160q0 -97 -68 -155q-48 -41 -130 -62q-71 -17 -159 -17q-114 0 -176 12v670h478zM240 130q24 -3 53 -3q48 0 81 27q31 26 31 69q0 37 -28 62q-34 28 -89 28q-10 0 -23 -1l-25 -3v-179z" />
<glyph unicode="&#x412;" horiz-adv-x="631" d="M62 664q77 15 213 15q140 0 206 -33q91 -43 91 -139q0 -45 -25 -80q-29 -40 -85 -61v-2q132 -37 132 -164q0 -91 -76 -148q-39 -30 -104 -44q-69 -16 -174 -16q-116 0 -178 12v660zM241 415h36q114 0 114 70q0 64 -91 64q-20 0 -36 -1l-23 -3v-130zM241 126q13 -2 52 -2 q49 0 78 20q33 22 33 64q0 79 -120 79h-43v-161z" />
<glyph unicode="&#x413;" horiz-adv-x="514" d="M492 674v-148h-249v-526h-181v674h430z" />
<glyph unicode="&#x414;" horiz-adv-x="713" d="M629 674v-532l71 -5l-8 -311h-136l-9 174h-382l-9 -174h-136l-6 311l59 5q39 67 63 150q24 89 24 198v184h469zM327 454q0 -99 -28 -199q-17 -60 -43 -109h192v381h-121v-73z" />
<glyph unicode="&#x415;" horiz-adv-x="552" d="M485 272h-242v-124h271v-148h-452v674h438v-148h-257v-108h242v-146z" />
<glyph unicode="&#x416;" horiz-adv-x="907" d="M209 674l149 -271h8v271h174v-271h7l151 271h210l-226 -297q60 -7 100 -52q34 -39 56 -108l50 -164q10 -29 20 -53h-182q-13 30 -25 71l-11 37l-9 37q-16 57 -40 87q-31 39 -80 39h-21v-271h-174v271h-21q-49 0 -80 -39q-24 -30 -40 -87l-19 -74q-12 -42 -26 -71h-181 q19 43 39 107l33 106q21 67 55 106q39 45 98 58l-226 297h211z" />
<glyph unicode="&#x417;" horiz-adv-x="566" d="M38 630q43 24 91 37q63 18 132 18q116 0 185 -52q65 -49 65 -124q0 -123 -132 -157v-2q63 -9 107 -49q47 -44 47 -107q0 -55 -28 -97q-24 -38 -70 -64q-41 -22 -94 -34q-48 -10 -100 -10q-58 0 -112 12q-59 12 -101 36l36 139q28 -14 70 -26q54 -15 98 -15q111 0 111 72 q0 43 -42 61q-29 12 -81 12h-75v132h74q104 0 104 67q0 60 -93 60q-36 0 -81 -12q-36 -10 -71 -25z" />
<glyph unicode="&#x418;" horiz-adv-x="704" d="M227 674v-164q0 -169 -8 -313h3q26 58 60 129q29 60 59 119l115 229h185v-674h-165v237l2 73q3 77 10 139h-3q-45 -125 -110 -246l-105 -203h-208v674h165z" />
<glyph unicode="&#x419;" horiz-adv-x="704" d="M227 674v-164q0 -169 -8 -313h3q26 58 60 129q29 60 59 119l115 229h185v-674h-165v237l2 73q3 77 10 139h-3q-45 -125 -110 -246l-105 -203h-208v674h165zM314 834q0 -61 37 -61q35 0 41 61h118q-10 -131 -161 -131q-141 0 -154 131h119z" />
<glyph unicode="&#x41a;" horiz-adv-x="633" d="M240 674v-272h8l166 272h220l-227 -295q55 -17 89 -59q30 -36 50 -98q3 -11 9 -28l28 -84q21 -64 42 -110h-194q-14 29 -26 71q-5 14 -11 36l-10 37q-17 61 -39 90q-29 37 -76 37h-29v-271h-178v674h178z" />
<glyph unicode="&#x41b;" horiz-adv-x="666" d="M604 674v-674h-181v526h-122v-141q0 -148 -27 -229q-31 -93 -106 -134q-62 -34 -148 -34l-22 145q51 7 79 37q48 51 48 204v300h479z" />
<glyph unicode="&#x41c;" horiz-adv-x="865" d="M633 242q-2 55 -3 125q-1 63 -1 146h-3q-15 -62 -35 -138q-18 -65 -36 -126l-67 -235h-141l-56 235q-13 52 -28 125q-14 67 -26 139h-2l-10 -271l-11 -242h-166l42 674h243l44 -182q15 -58 28 -120q15 -67 25 -126h3l30 128q18 73 31 120l51 180h237l34 -674h-175z" />
<glyph unicode="&#x41d;" horiz-adv-x="705" d="M243 674v-250h219v250h181v-674h-181v266h-219v-266h-181v674h181z" />
<glyph unicode="&#x41e;" horiz-adv-x="730" d="M358 -11q-151 0 -240 102q-84 95 -84 242q0 151 90 250q93 102 245 102q155 0 245 -103q82 -94 82 -238q0 -163 -91 -259t-246 -96h-1zM367 132q64 0 102 57q36 56 36 149q0 89 -37 146q-38 58 -103 58q-64 0 -103 -59q-37 -56 -37 -146q-1 -92 37 -148q38 -57 103 -57h2 z" />
<glyph unicode="&#x41f;" horiz-adv-x="693" d="M632 674v-674h-181v526h-208v-526h-181v674h570z" />
<glyph unicode="&#x420;" horiz-adv-x="602" d="M62 664q41 7 91 11q60 4 131 4q144 0 214 -54q77 -57 77 -162q0 -106 -66 -166q-79 -70 -224 -70l-44 2v-229h-179v664zM241 367q4 0 8 -1l33 -1q114 0 114 94q0 84 -102 84q-35 0 -53 -4v-172z" />
<glyph unicode="&#x421;" horiz-adv-x="602" d="M566 18q-21 -11 -64 -19q-49 -9 -105 -9q-179 0 -276 101q-87 90 -87 235q0 170 112 268q103 90 263 90q54 0 102 -9q43 -8 66 -20l-35 -143q-25 11 -53 17q-35 7 -72 7q-83 0 -135 -48q-58 -53 -58 -150q0 -198 197 -198q72 0 120 19z" />
<glyph unicode="&#x422;" horiz-adv-x="570" d="M193 522h-172v152h528v-152h-175v-522h-181v522z" />
<glyph unicode="&#x423;" horiz-adv-x="617" d="M207 676l82 -223q11 -28 25 -70l22 -63h3l35 136l59 220h190l-120 -326l-32 -81q-18 -42 -33 -74q-36 -77 -71 -119q-36 -45 -79 -67q-49 -25 -112 -25q-49 0 -86 13l12 145q23 -6 58 -6q59 0 74 39q5 14 -3 27l-228 474h204z" />
<glyph unicode="&#x424;" horiz-adv-x="817" d="M493 703v-58q57 -5 106 -24q54 -20 93 -55q43 -38 66 -92q25 -59 25 -134q0 -144 -89 -225q-76 -70 -203 -83v-61h-168v61q-124 10 -200 79q-89 80 -89 223q0 75 27 136q25 54 70 94q40 35 94 57q48 19 100 24v58h168zM324 522q-43 -8 -72 -47q-37 -50 -37 -137 q0 -82 38 -134q31 -42 71 -47v365zM492 157q42 7 71 44q39 49 39 139q0 87 -37 136q-28 38 -73 46v-365z" />
<glyph unicode="&#x425;" horiz-adv-x="631" d="M410 0l-49 110l-52 117h-2q-7 -23 -20 -57l-69 -170h-205l190 341l-183 333h207l46 -107q20 -48 45 -112h2q18 53 40 111l41 108h206l-183 -329l195 -345h-209z" />
<glyph unicode="&#x426;" horiz-adv-x="713" d="M243 674v-526h204v526h181v-532l71 -5l-8 -311h-136l-9 174h-484v674h181z" />
<glyph unicode="&#x427;" horiz-adv-x="661" d="M235 674v-192q0 -102 100 -102q41 0 84 20v274h180v-685h-180v279h-3q-74 -31 -146 -31q-215 0 -215 213v224h180z" />
<glyph unicode="&#x428;" horiz-adv-x="942" d="M239 674v-526h143v526h177v-526h144v526h177v-674h-818v674h177z" />
<glyph unicode="&#x429;" horiz-adv-x="964" d="M239 674v-526h143v526h177v-526h144v526h177v-532l71 -5l-8 -311h-136l-9 174h-736v674h177z" />
<glyph unicode="&#x42a;" horiz-adv-x="738" d="M366 674v-227q38 6 82 6q106 0 178 -58q79 -62 79 -166q0 -91 -55 -148q-48 -48 -128 -70q-67 -19 -158 -19q-115 0 -177 12v523h-170v147h349zM365 130q20 -3 50 -3q100 0 100 96q0 92 -101 92q-21 0 -49 -4v-181z" />
<glyph unicode="&#x42b;" horiz-adv-x="898" d="M241 674v-227q40 6 73 6q113 0 188 -56q83 -61 83 -170q0 -89 -55 -146q-48 -48 -134 -70q-71 -19 -159 -19q-113 0 -175 12v670h179zM240 130q15 -3 45 -3q44 0 75 25q35 27 35 71t-37 70q-31 22 -70 22q-10 0 -23 -1l-25 -3v-181zM821 674v-673h-181v673h181z" />
<glyph unicode="&#x42c;" horiz-adv-x="628" d="M241 674v-227q44 6 82 6q118 0 192 -55q80 -60 80 -168q0 -92 -55 -149q-48 -48 -135 -70q-72 -19 -166 -19q-115 0 -177 12v670h179zM240 130q24 -3 51 -3q114 0 114 95q0 93 -111 93q-14 0 -28 -1l-26 -3v-181z" />
<glyph unicode="&#x42d;" horiz-adv-x="595" d="M89 410h278q-7 57 -48 92q-45 38 -118 38q-36 0 -76 -8q-30 -7 -59 -17l-34 132q35 15 78 25q54 13 106 13q90 0 158 -29q64 -26 107 -77q80 -92 80 -244q0 -166 -105 -259q-98 -87 -258 -87q-50 0 -102 10q-46 9 -70 21l30 138q50 -21 130 -21q156 0 179 133h-276v140z " />
<glyph unicode="&#x42e;" horiz-adv-x="944" d="M242 674v-252h73q24 117 102 189q81 74 196 74q141 0 223 -103q76 -95 76 -238q0 -163 -84 -259t-225 -96q-122 0 -202 81q-75 77 -91 201h-68v-271h-180v674h180zM610 131q57 0 89 58q31 56 31 149q0 89 -32 146q-33 59 -89 59q-57 0 -90 -59q-33 -57 -33 -147 q0 -92 33 -148q33 -58 90 -58h1z" />
<glyph unicode="&#x42f;" horiz-adv-x="625" d="M6 0q21 33 37 82l14 43q3 9 4 14q11 33 19 53q23 57 54 87q21 21 55 35v3q-59 12 -96 49q-43 44 -43 114q0 90 73 146q39 29 105 42q55 11 128 11q57 0 115 -4q50 -4 92 -11v-664h-179v253h-24q-36 0 -62 -23t-46 -79q-7 -17 -16 -48l-13 -43q-13 -37 -25 -60h-192z M384 540l-8 2q-6 1 -12 1q-15 2 -33 2q-101 0 -101 -83q0 -39 32 -60q30 -20 76 -20q27 0 46 3v155z" />
<glyph unicode="&#x430;" horiz-adv-x="548" d="M493 120q0 -80 8 -120h-163l-9 43h-4q-47 -54 -136 -54q-73 0 -119 47q-44 44 -44 108q0 95 80 145q75 46 206 46v4q0 18 -16 29q-20 13 -65 13q-36 0 -77 -11q-35 -10 -62 -25l-31 113q31 17 75 29q61 16 129 16q120 0 177 -62q51 -55 51 -155v-166zM318 225 q-115 0 -115 -64q0 -47 51 -47q47 0 62 45q2 8 2 26v40z" />
<glyph unicode="&#x431;" horiz-adv-x="599" d="M503 580q-21 -6 -58 -10q-32 -4 -63 -6q-102 -9 -147 -53q-45 -41 -53 -105h6q23 38 62 61q44 25 95 25q102 0 163 -69q60 -68 60 -177q0 -117 -77 -189q-74 -69 -187 -69q-127 0 -198 88q-70 86 -70 235q0 210 118 310q77 69 203 81l9 1q6 0 10 1q12 1 21 1l43 5 q51 5 74 10zM383 242q0 51 -18 86q-22 41 -65 41q-35 0 -55 -29q-27 -37 -27 -95q0 -50 19 -86q22 -43 65 -43q41 0 63 40q18 33 18 85v1z" />
<glyph unicode="&#x432;" horiz-adv-x="574" d="M56 486q35 5 90 8q68 5 125 5q42 0 75 -3q48 -5 84 -16q43 -14 67 -38q28 -28 28 -69q0 -44 -32 -73q-27 -23 -69 -31v-3q121 -21 121 -119q0 -51 -33 -85q-28 -29 -81 -46q-42 -14 -99 -20q-23 -2 -48 -3q-20 -1 -42 -1q-50 0 -108 4q-48 2 -78 6v484zM234 306h28 q86 0 86 43q0 42 -70 42l-44 -3v-82zM233 99q12 -1 43 -1q84 0 84 54q0 52 -93 52h-34v-105z" />
<glyph unicode="&#x433;" horiz-adv-x="430" d="M416 492v-139h-180v-353h-181v492h361z" />
<glyph unicode="&#x434;" horiz-adv-x="616" d="M545 492v-366l56 -3l-8 -283h-134l-6 160h-296l-8 -160h-135l-4 281l48 5q33 47 48 103q20 72 20 145v118h419zM282 314q0 -43 -15 -103q-9 -40 -32 -81h135v231h-88v-47z" />
<glyph unicode="&#x435;" horiz-adv-x="539" d="M202 183q4 -28 42 -45q35 -16 85 -16q74 0 134 19l23 -120q-42 -16 -91 -24q-44 -7 -93 -7q-129 0 -200 67q-71 66 -71 184q0 99 60 174q32 41 79 63q51 25 116 25q113 0 173 -75q54 -68 54 -177q0 -20 -2 -40q-2 -17 -5 -28h-304zM347 305q0 29 -14 51q-18 29 -56 29 q-36 0 -57 -28q-17 -23 -20 -52h147z" />
<glyph unicode="&#x436;" horiz-adv-x="767" d="M193 492l89 -190h15v190h174v-190h15l89 190h197l-161 -209q33 -7 61 -44q25 -32 40 -77l12 -35q0 -2 1 -3l2 -5q8 -26 14 -41q16 -47 31 -78h-180q-8 14 -19 45l-22 67q-26 75 -70 75h-10v-187h-174v187h-10q-47 0 -72 -75l-23 -68q-11 -30 -19 -44h-177q14 30 31 78 l30 84q16 46 40 77q27 37 60 44l-161 209h197z" />
<glyph unicode="&#x437;" horiz-adv-x="512" d="M108 305h85q79 0 79 36q0 38 -78 38q-66 0 -127 -34l-33 103q45 27 104 40q55 13 113 13q85 0 141 -28q70 -35 70 -105q0 -45 -35 -74q-27 -23 -70 -34v-4q50 -6 84 -30q41 -31 41 -81q0 -45 -26 -78q-23 -28 -65 -47q-36 -15 -84 -23q-39 -6 -81 -6q-123 0 -206 51 l36 109q63 -32 146 -34q83 0 83 38q0 42 -91 42h-86v108z" />
<glyph unicode="&#x438;" horiz-adv-x="616" d="M225 492v-127q0 -27 -1 -56l-8 -146h5l117 329h223v-492h-170v125q0 43 3 94l7 123h-5q-18 -68 -38 -123l-82 -219h-221v492h170z" />
<glyph unicode="&#x439;" horiz-adv-x="616" d="M225 492v-127q0 -27 -1 -56l-8 -146h5l117 329h223v-492h-170v125q0 43 3 94l7 123h-5q-18 -68 -38 -123l-82 -219h-221v492h170zM269 695q0 -68 38 -68q36 0 41 68h110q-9 -148 -153 -148q-139 0 -147 148h111z" />
<glyph unicode="&#x43a;" horiz-adv-x="552" d="M235 492v-189h14l99 189h208l-167 -208q35 -8 62 -45q22 -30 44 -84l25 -66q2 -5 3 -10q19 -50 34 -79h-188q-8 13 -19 42l-25 70q-25 73 -76 73h-14v-185h-180v492h180z" />
<glyph unicode="&#x43b;" horiz-adv-x="563" d="M508 492v-492h-181v355h-79v-75q0 -89 -13 -143q-16 -61 -52 -94q-51 -55 -163 -55l-20 139q41 8 58 29q24 31 24 134v202h426z" />
<glyph unicode="&#x43c;" horiz-adv-x="753" d="M78 492h231l66 -279h3l14 56l60 223h229l28 -492h-166l-10 306q-1 25 -1 45h-2l-44 -161l-54 -180h-131l-46 174l-23 104q-3 12 -4 21q-5 23 -9 38h-4q-1 -21 -1 -48l-1 -47q-1 -56 -2 -75l-7 -177h-159z" />
<glyph unicode="&#x43d;" horiz-adv-x="593" d="M236 492v-170h121v170h181v-492h-181v183h-121v-183h-181v492h181z" />
<glyph unicode="&#x43e;" horiz-adv-x="589" d="M292 -11q-114 0 -186 67q-75 69 -75 186q0 119 73 189q73 72 198 72q115 0 186 -70q70 -70 70 -182q0 -127 -81 -198q-73 -64 -184 -64h-1zM297 116q75 0 75 130q0 56 -18 91q-20 39 -57 39q-42 0 -62 -41q-18 -34 -18 -89q0 -130 79 -130h1z" />
<glyph unicode="&#x43f;" horiz-adv-x="590" d="M534 492v-492h-181v355h-117v-355h-181v492h479z" />
<glyph unicode="&#x440;" horiz-adv-x="610" d="M55 324q0 45 -1 92l-3 76h156l8 -63h2q56 74 160 74q81 0 139 -65q63 -72 63 -186q0 -126 -72 -199q-63 -64 -152 -64q-83 0 -117 47h-2v-234h-181v522zM236 215q0 -16 3 -30q13 -59 70 -59q87 0 87 117q0 119 -85 119q-62 0 -73 -63l-2 -11v-73z" />
<glyph unicode="&#x441;" horiz-adv-x="452" d="M433 11q-43 -21 -135 -21q-123 0 -195 68q-72 67 -72 184q0 111 73 183q78 77 216 77q63 0 113 -17l-25 -132q-29 12 -78 12q-116 0 -114 -117q0 -57 36 -89q32 -29 83 -29q46 0 79 13z" />
<glyph unicode="&#x442;" horiz-adv-x="483" d="M470 492v-137h-138v-355h-181v355h-138v137h457z" />
<glyph unicode="&#x443;" horiz-adv-x="545" d="M205 492l59 -221l21 -88h4l63 309h192l-105 -313q-52 -146 -95 -224q-37 -66 -80 -104q-39 -34 -86 -53q-37 -15 -78 -19l-37 152q32 5 62 19q34 13 58 45q9 13 9 22q0 5 -1 11q-2 7 -6 15l-180 449h200z" />
<glyph unicode="&#x444;" horiz-adv-x="754" d="M462 704l-2 -204q113 -13 183 -75q80 -70 80 -183q0 -112 -81 -181q-72 -61 -182 -70l2 -189h-170l3 189q-111 9 -183 71q-81 69 -81 181q0 113 80 183q70 61 183 74l-2 204h170zM295 385q-87 -27 -87 -138q0 -114 87 -140v278zM459 107q87 28 87 140q0 109 -87 138v-278 z" />
<glyph unicode="&#x445;" horiz-adv-x="544" d="M204 492l39 -73q9 -16 19 -36l17 -34h3l32 73l33 70h195l-159 -233l160 -259h-204l-39 79q-21 40 -32 71h-3l-67 -150h-197l163 251l-161 241h201z" />
<glyph unicode="&#x446;" horiz-adv-x="606" d="M236 492v-355h120v355h181v-366l56 -3l-8 -283h-134l-6 160h-390v492h181z" />
<glyph unicode="&#x447;" horiz-adv-x="577" d="M232 492v-150q0 -73 60 -73q31 0 49 16v207h181v-500h-181v179h-2q-44 -28 -119 -28q-169 0 -169 183v166h181z" />
<glyph unicode="&#x448;" horiz-adv-x="845" d="M234 492v-356h100v356h178v-356h100v356h178v-492h-734v492h178z" />
<glyph unicode="&#x449;" horiz-adv-x="860" d="M234 492v-355h100v355h178v-355h100v355h178v-366l56 -3l-8 -283h-134l-6 160h-642v492h178z" />
<glyph unicode="&#x44a;" horiz-adv-x="681" d="M338 492v-137q32 6 79 6q98 0 161 -40q74 -47 74 -140q0 -86 -74 -133q-46 -29 -118 -43q-58 -11 -125 -11q-96 0 -177 10v351h-136v137h316zM337 116h4l41 -2q37 0 62 13q29 16 29 48q0 37 -33 53q-24 12 -64 12q-11 0 -21 -1l-18 -3v-120z" />
<glyph unicode="&#x44b;" horiz-adv-x="826" d="M236 492v-138q19 3 35 4q22 2 44 2q93 0 153 -39q71 -46 71 -135q0 -91 -74 -138q-46 -30 -113 -43q-53 -11 -119 -11q-96 0 -177 10v488h180zM235 116q5 0 8 -1l31 -1q36 0 59 15q27 17 27 51q0 31 -25 47q-21 13 -54 13q-15 0 -27 -1l-19 -3v-120zM771 492v-492h-181 v492h181z" />
<glyph unicode="&#x44c;" horiz-adv-x="579" d="M236 492v-138q42 6 75 6q101 0 163 -37q76 -45 76 -136q0 -92 -74 -139q-46 -29 -118 -43q-58 -11 -125 -11q-96 0 -177 10v488h180zM235 116h4l40 -2q38 0 62 13q30 17 30 51t-32 50q-24 12 -61 12q-13 0 -24 -1l-19 -3v-120z" />
<glyph unicode="&#x44d;" horiz-adv-x="494" d="M79 301h202q-19 72 -116 72q-60 0 -107 -21l-31 115q71 36 170 36q111 0 180 -56q40 -34 62 -81q24 -52 24 -117q0 -120 -79 -190q-78 -70 -211 -70q-87 0 -153 32l25 121q20 -7 45 -11q33 -6 64 -6q100 0 122 65h-197v111z" />
<glyph unicode="&#x44e;" horiz-adv-x="799" d="M235 492v-173h55q42 184 239 184q106 0 173 -70q67 -71 67 -182q0 -127 -77 -198q-68 -64 -171 -64q-91 0 -155 52q-65 55 -80 148h-51v-189h-180v492h180zM525 116q64 0 64 131q0 55 -15 90q-17 39 -50 39q-35 0 -53 -40q-15 -34 -15 -89q0 -59 16 -93q18 -38 52 -38h1z " />
<glyph unicode="&#x44f;" horiz-adv-x="578" d="M523 0h-178v175h-16q-41 0 -66 -38q-14 -16 -26 -45l-19 -51l-13 -27q0 -1 -1 -2q-3 -7 -6 -12h-191q13 16 30 54l13 31q8 19 16 35q20 43 37 63q26 31 65 40v3q-47 5 -82 33q-44 35 -44 89q0 86 92 125q33 15 86 22q46 6 102 6q57 0 115 -4q44 -2 86 -7v-490zM345 388 h-4l-24 3h-14q-74 0 -74 -55t77 -55l39 2v105z" />
<glyph unicode="&#x451;" horiz-adv-x="539" d="M202 183q4 -28 42 -45q35 -16 85 -16q74 0 134 19l23 -120q-42 -16 -91 -24q-44 -7 -93 -7q-129 0 -200 67q-71 66 -71 184q0 99 60 174q32 41 79 63q51 25 116 25q113 0 173 -75q54 -68 54 -177q0 -20 -2 -40q-2 -17 -5 -28h-304zM347 305q0 29 -14 51q-18 29 -56 29 q-36 0 -57 -28q-17 -23 -20 -52h147zM176 551q-80 0 -80 79t81 79q76 0 76 -79t-76 -79h-1zM396 551q-78 0 -78 79t80 79q77 0 77 -79t-77 -79h-2z" />
<glyph unicode="&#x452;" horiz-adv-x="599" d="M67 650v59h181v-59h205v-116h-205v-95h2q49 47 119 47q99 0 152 -93q44 -75 44 -192q0 -240 -138 -316q-61 -35 -112 -37l-34 144q36 7 62 33q41 45 41 161q0 74 -20 115q-19 40 -55 40q-16 0 -31 -8q-6 -3 -12 -7l-8 -7q-10 -14 -10 -35v-284h-181v534h-68v116h68z" />
<glyph unicode="&#x453;" horiz-adv-x="430" d="M416 492v-139h-180v-353h-181v492h361zM395 706l-123 -156h-122l85 156h160z" />
<glyph unicode="&#x454;" horiz-adv-x="478" d="M428 356q-36 18 -93 18q-99 0 -117 -73h186v-111h-182q20 -67 121 -67q49 0 92 15l24 -122q-52 -27 -147 -27q-129 0 -205 66q-76 68 -76 186q0 126 89 197q81 65 210 65q82 0 128 -24z" />
<glyph unicode="&#x455;" horiz-adv-x="451" d="M60 152q61 -37 136 -37q54 0 54 27q0 21 -64 42q-77 24 -114 66q-32 37 -31 84q0 74 58 121q60 48 156 48q42 0 84 -9q35 -7 62 -19l-29 -122q-21 10 -48 18q-34 9 -61 9q-49 0 -49 -28q0 -21 74 -45q133 -43 135 -152q0 -74 -55 -118q-60 -47 -170 -47q-101 0 -169 35z " />
<glyph unicode="&#x456;" horiz-adv-x="292" d="M55 0v492h181v-492h-181zM145 543q-91 0 -91 85q0 86 92 86q90 0 92 -86q0 -85 -92 -85h-1z" />
<glyph unicode="&#x457;" horiz-adv-x="292" d="M55 0v492h181v-492h-181zM36 551q-80 0 -80 79t81 79q76 0 76 -79t-76 -79h-1zM256 551q-78 0 -78 79t80 79q77 0 77 -79t-77 -79h-2z" />
<glyph unicode="&#x458;" horiz-adv-x="312" d="M-37 -76q62 5 87 30q29 28 29 150v388h181v-426q0 -155 -74 -220q-71 -62 -206 -62zM168 543q-91 0 -91 85q0 86 92 86q90 0 92 -86q0 -85 -92 -85h-1z" />
<glyph unicode="&#x459;" horiz-adv-x="846" d="M508 492v-140q42 4 74 4q97 0 161 -40q74 -47 74 -137q0 -83 -66 -130q-45 -32 -119 -45q-30 -6 -64 -8q-28 -2 -59 -2q-100 0 -181 10v352h-80v-76q0 -89 -14 -143q-15 -61 -51 -93q-50 -56 -163 -56l-20 139q40 8 57 28q16 17 21 53q4 27 4 83v201h426zM507 116h4 l39 -2q36 0 59 13q29 16 29 49t-27 49q-22 13 -56 13q-22 0 -48 -4v-118z" />
<glyph unicode="&#x45a;" horiz-adv-x="864" d="M236 492v-160h110v160h180v-142q42 6 75 6q98 0 161 -41q73 -48 73 -138q0 -81 -66 -128q-45 -32 -119 -45q-30 -6 -64 -8q-28 -2 -59 -2q-100 0 -181 10v197h-110v-201h-181v492h181zM525 116h4l39 -2q36 0 60 13q28 17 28 49q0 34 -28 49q-23 13 -59 13q-11 0 -23 -1 l-21 -3v-118z" />
<glyph unicode="&#x45b;" horiz-adv-x="610" d="M67 650v61h181v-61h197v-116h-197v-111h2q24 30 58 46q37 17 74 17q173 0 173 -216v-270h-181v248q0 93 -64 93q-40 0 -58 -39q-4 -11 -4 -29v-273h-181v534h-68v116h68z" />
<glyph unicode="&#x45c;" horiz-adv-x="552" d="M235 492v-189h14l99 189h208l-167 -208q35 -8 62 -45q22 -30 44 -84l25 -66q2 -5 3 -10q19 -50 34 -79h-188q-8 13 -19 42l-25 70q-25 73 -76 73h-14v-185h-180v492h180zM441 706l-123 -156h-122l85 156h160z" />
<glyph unicode="&#x45e;" horiz-adv-x="545" d="M205 492l59 -221l21 -88h4l63 309h192l-105 -313q-52 -146 -95 -224q-37 -66 -80 -104q-39 -34 -86 -53q-37 -15 -78 -19l-37 152q32 5 62 19q34 13 58 45q9 13 9 22q0 5 -1 11q-2 7 -6 15l-180 449h200zM234 695q0 -68 38 -68q36 0 41 68h110q-9 -148 -153 -148 q-139 0 -147 148h111z" />
<glyph unicode="&#x45f;" horiz-adv-x="592" d="M236 492v-356h120v356h181v-492h-160l-9 -169h-145l-9 169h-159v492h181z" />
<glyph unicode="&#x490;" horiz-adv-x="511" d="M357 674l16 133h128l-12 -281h-246v-526h-181v674h295z" />
<glyph unicode="&#x491;" horiz-adv-x="448" d="M291 492l16 122h124l-10 -261h-185v-353h-181v492h236z" />
<glyph unicode="&#x4d9;" horiz-adv-x="539" d="M53 467q88 36 187 36q127 0 198 -67q70 -67 70 -185q0 -99 -59 -173q-32 -41 -78 -63q-51 -25 -115 -25q-114 0 -175 75q-55 68 -55 177q0 19 2 40q2 16 5 27h304q-9 62 -122 62q-67 0 -139 -22zM192 187q0 -27 15 -50q20 -29 58 -29q37 0 57 28q14 21 17 51h-147z" />
<glyph unicode="&#x1e80;" horiz-adv-x="906" d="M170 0l-155 674h194l57 -371l16 -116h2q8 53 19 117q8 53 21 123l43 247h193l42 -259q9 -56 16 -112q7 -50 14 -111h2l34 235l40 247h183l-166 -674h-197l-45 264q-16 93 -28 202h-2l-8 -57q-4 -29 -8 -51q-8 -54 -16 -94l-51 -264h-200zM457 836l81 -124h-144l-120 124 h183z" />
<glyph unicode="&#x1e81;" horiz-adv-x="769" d="M192 492l28 -181l6 -38q4 -22 6 -40q7 -46 12 -85h2q6 36 16 85l56 259h141l44 -206l3 -10l8 -42q10 -50 15 -86h2q4 41 11 86q6 39 14 85l29 173h176l-147 -492h-170l-34 146q-12 54 -27 150h-2q-9 -81 -25 -148l-37 -148h-170l-141 492h184zM385 706l85 -156h-123 l-122 156h160z" />
<glyph unicode="&#x1e82;" horiz-adv-x="906" d="M170 0l-155 674h194l57 -371l16 -116h2q8 53 19 117q8 53 21 123l43 247h193l42 -259q9 -56 16 -112q7 -50 14 -111h2l34 235l40 247h183l-166 -674h-197l-45 264q-16 93 -28 202h-2l-8 -57q-4 -29 -8 -51q-8 -54 -16 -94l-51 -264h-200zM649 836l-120 -126h-144l81 126 h183z" />
<glyph unicode="&#x1e83;" horiz-adv-x="769" d="M192 492l28 -181l6 -38q4 -22 6 -40q7 -46 12 -85h2q6 36 16 85l56 259h141l44 -206l3 -10l8 -42q10 -50 15 -86h2q4 41 11 86q6 39 14 85l29 173h176l-147 -492h-170l-34 146q-12 54 -27 150h-2q-9 -81 -25 -148l-37 -148h-170l-141 492h184zM552 706l-123 -156h-122 l85 156h160z" />
<glyph unicode="&#x1e84;" horiz-adv-x="906" d="M170 0l-155 674h194l57 -371l16 -116h2q8 53 19 117q8 53 21 123l43 247h193l42 -259q9 -56 16 -112q7 -50 14 -111h2l34 235l40 247h183l-166 -674h-197l-45 264q-16 93 -28 202h-2l-8 -57q-4 -29 -8 -51q-8 -54 -16 -94l-51 -264h-200zM357 709q-77 0 -77 77 q0 76 78 76q74 0 74 -76q0 -77 -74 -77h-1zM574 709q-76 0 -76 77q0 76 77 76q75 0 75 -76q0 -77 -75 -77h-1z" />
<glyph unicode="&#x1e85;" horiz-adv-x="769" d="M192 492l28 -181l6 -38q4 -22 6 -40q7 -46 12 -85h2q6 36 16 85l56 259h141l44 -206l3 -10l8 -42q10 -50 15 -86h2q4 41 11 86q6 39 14 85l29 173h176l-147 -492h-170l-34 146q-12 54 -27 150h-2q-9 -81 -25 -148l-37 -148h-170l-141 492h184zM275 551q-80 0 -80 79 t81 79q76 0 76 -79t-76 -79h-1zM495 551q-78 0 -78 79t80 79q77 0 77 -79t-77 -79h-2z" />
<glyph unicode="&#x1ef2;" horiz-adv-x="629" d="M219 0v272l-212 402h207l57 -152q17 -43 24 -64q12 -31 22 -61h2q19 61 43 125l55 152h204l-221 -395v-279h-181zM326 836l81 -124h-144l-120 124h183z" />
<glyph unicode="&#x1ef3;" horiz-adv-x="545" d="M205 492l59 -221l21 -88h4l63 309h192l-105 -313q-52 -146 -95 -224q-37 -66 -80 -104q-39 -34 -86 -53q-37 -15 -78 -19l-37 152q32 5 62 19q34 13 58 45q9 13 9 22q0 5 -1 11q-2 7 -6 15l-180 449h200zM279 706l85 -156h-123l-122 156h160z" />
<glyph unicode="&#x2013;" horiz-adv-x="500" d="M470 309v-109h-440v109h440z" />
<glyph unicode="&#x2014;" horiz-adv-x="1000" d="M970 309v-109h-940v109h940z" />
<glyph unicode="&#x2018;" horiz-adv-x="284" d="M23 398q52 155 132 285l108 9q-27 -76 -45 -143q-19 -73 -30 -142z" />
<glyph unicode="&#x2019;" horiz-adv-x="284" d="M262 692q-52 -155 -132 -285l-108 -9q27 76 45 143q19 73 30 142z" />
<glyph unicode="&#x201a;" horiz-adv-x="284" d="M14 -98q27 76 45 143q19 73 30 142l165 9q-52 -155 -132 -285z" />
<glyph unicode="&#x201c;" horiz-adv-x="497" d="M22 398q52 155 132 285l108 9q-53 -148 -75 -285zM238 398q52 155 132 285l108 9q-27 -76 -45 -143q-19 -73 -30 -142z" />
<glyph unicode="&#x201d;" horiz-adv-x="497" d="M260 692q-52 -155 -132 -285l-108 -9q27 76 45 143q19 73 30 142zM476 692q-52 -155 -132 -285l-108 -9q53 148 75 285z" />
<glyph unicode="&#x201e;" horiz-adv-x="503" d="M13 -98q27 76 45 143q19 73 30 142l165 9q-52 -155 -132 -285zM229 -98q53 148 75 285l165 9q-52 -155 -132 -285z" />
<glyph unicode="&#x2020;" horiz-adv-x="534" d="M349 674l-16 -196l171 14v-138l-171 14l16 -418h-163l16 418l-171 -14v138l171 -14l-16 196h163z" />
<glyph unicode="&#x2021;" horiz-adv-x="534" d="M347 674l-12 -179l169 14v-138l-169 14v-137l169 14v-138l-169 14l12 -188h-160l12 188l-169 -14v138l169 -14v137l-169 -14v138l169 -14l-12 179h160z" />
<glyph unicode="&#x2022;" horiz-adv-x="362" d="M181 119q-59 0 -99 41q-41 41 -41 101q-1 60 41 101q41 41 100 41t99 -41q42 -41 42 -101t-41 -101t-100 -41h-1z" />
<glyph unicode="&#x2026;" horiz-adv-x="1000" d="M165 -11q-102 0 -102 105t103 105q101 0 103 -105q0 -105 -103 -105h-1zM499 -11q-102 0 -102 105t103 105q101 0 103 -105q0 -105 -103 -105h-1zM833 -11q-102 0 -102 105t103 105q101 0 103 -105q0 -105 -103 -105h-1z" />
<glyph unicode="&#x2030;" horiz-adv-x="1340" d="M219 661q87 0 138 -57q47 -53 47 -136q0 -97 -58 -155q-54 -53 -133 -53q-81 0 -133 54q-54 55 -54 143q0 86 51 143q53 61 141 61h1zM215 565q-57 0 -57 -105q0 -104 59 -104q55 0 55 104q0 105 -56 105h-1zM227 -11l370 670h92l-369 -670h-93zM707 391q87 0 138 -57 q47 -53 47 -136q0 -97 -58 -155q-54 -53 -133 -53q-81 0 -133 54q-54 55 -54 143q0 86 51 143q53 61 141 61h1zM703 295q-57 0 -57 -105q0 -104 59 -104q55 0 55 104q0 105 -56 105h-1zM1128 391q87 0 138 -57q47 -53 47 -136q0 -97 -58 -155q-54 -53 -133 -53 q-81 0 -134 54q-54 55 -54 143q0 86 51 143q54 61 142 61h1zM1124 295q-58 0 -58 -105q0 -104 60 -104q55 0 55 104q0 105 -56 105h-1z" />
<glyph unicode="&#x2039;" horiz-adv-x="277" d="M142 253l113 -194h-121l-108 194l108 193h121z" />
<glyph unicode="&#x203a;" horiz-adv-x="277" d="M22 446h119l110 -193l-110 -194h-119l113 194z" />
<glyph unicode="&#x2044;" horiz-adv-x="427" d="M-16 -11l365 672h94l-365 -672h-94z" />
<glyph unicode="&#x2070;" horiz-adv-x="396" d="M197 438q-89 0 -136 61q-41 54 -41 140q0 84 40 137q46 62 136 62q89 0 137 -61q43 -54 43 -141q0 -81 -40 -135q-48 -63 -138 -63h-1zM199 528q47 0 47 109q0 111 -49 111q-47 0 -47 -111q0 -109 48 -109h1z" />
<glyph unicode="&#x2074;" horiz-adv-x="413" d="M215 443v85h-194v73l161 236h159v-224h50v-85h-50v-85h-126zM215 668q0 16 2 39l3 40h-3l-19 -37q-10 -20 -18 -33l-38 -63l3 -1h70v55z" />
<glyph unicode="&#x2075;" horiz-adv-x="365" d="M313 735h-164l-5 -33q4 1 12 1h12q36 0 65 -6q35 -8 57 -25q45 -32 45 -95q0 -60 -49 -98q-53 -41 -140 -41q-76 0 -124 21l19 90q17 -7 42 -12q30 -7 56 -7q27 0 46 8q24 11 24 34q0 48 -113 48q-12 0 -29 -1l-27 -2l27 216h246v-98z" />
<glyph unicode="&#x2076;" horiz-adv-x="376" d="M307 745q-16 4 -36 2q-103 -1 -127 -59l2 -1q35 21 82 21q128 0 128 -125q0 -67 -51 -108q-46 -37 -110 -37q-87 0 -134 56q-40 47 -40 118q0 105 70 167q64 57 177 58q20 1 39 -1v-91zM193 527q40 0 40 49q0 52 -48 52q-33 0 -43 -29l-1 -8q-1 -6 -1 -11q0 -53 52 -53h1 z" />
<glyph unicode="&#x2077;" horiz-adv-x="350" d="M334 833v-74l-162 -316h-132l164 292h-179v98h309z" />
<glyph unicode="&#x2078;" horiz-adv-x="375" d="M189 838q71 0 111 -33q35 -29 35 -70q0 -56 -56 -82v-1q29 -11 48 -30q25 -27 25 -63q0 -121 -169 -121q-81 0 -125 38q-35 30 -35 71q0 62 71 90v2q-59 30 -59 85q0 51 44 83q43 31 109 31h1zM189 520q39 0 39 34q0 20 -16 33q-12 9 -31 14q-36 -13 -36 -42 q0 -39 43 -39h1zM184 758q-36 0 -36 -32q0 -26 46 -41q29 7 29 36q0 37 -38 37h-1z" />
<glyph unicode="&#x2079;" horiz-adv-x="372" d="M58 531q20 -4 37 -2q48 0 81 14q41 20 51 51l-2 1q-26 -20 -73 -20q-53 0 -90 30q-41 33 -41 92q0 60 47 101q46 40 114 40q85 0 130 -55q39 -47 39 -115q0 -114 -68 -173q-64 -55 -189 -57q-20 0 -36 2v91zM183 749q-40 0 -40 -46q0 -49 45 -49q27 0 37 18q4 7 4 23 q0 54 -45 54h-1z" />
<glyph unicode="&#x207d;" horiz-adv-x="215" d="M194 869q-22 -46 -35 -99q-18 -69 -18 -138q0 -71 18 -139q7 -28 17 -55q8 -22 18 -44h-86q-27 41 -43 92q-23 69 -23 146q0 76 23 146q17 51 43 91h86z" />
<glyph unicode="&#x207e;" horiz-adv-x="215" d="M21 394q10 23 18 45q10 28 18 56q17 68 17 137q0 70 -17 138q-14 53 -36 99h86q12 -18 22 -39q12 -25 22 -53q22 -69 22 -146q0 -75 -22 -144q-9 -27 -22 -53q-10 -21 -22 -40h-86z" />
<glyph unicode="&#x2080;" horiz-adv-x="396" d="M197 -152q-89 0 -136 61q-41 54 -41 140q0 84 40 137q46 62 136 62q89 0 137 -61q43 -54 43 -141q0 -81 -40 -135q-48 -63 -138 -63h-1zM199 -62q47 0 47 109q0 111 -49 111q-47 0 -47 -111q0 -109 48 -109h1z" />
<glyph unicode="&#x2081;" horiz-adv-x="324" d="M122 -147v280l-84 -35l-17 96l120 49h119v-390h-138z" />
<glyph unicode="&#x2082;" horiz-adv-x="369" d="M17 -82l61 53l48 42q23 20 35 33q29 30 29 57q0 39 -51 39q-47 0 -87 -26l-35 89q65 43 156 43q161 0 161 -124q0 -47 -34 -87q-13 -17 -34 -35q-13 -11 -39 -31l-21 -16v-2h135v-100h-324v65z" />
<glyph unicode="&#x2083;" horiz-adv-x="366" d="M24 216q55 32 151 32q154 0 154 -100q0 -64 -85 -89v-2q100 -9 100 -90q0 -54 -53 -87q-52 -32 -138 -32q-92 0 -143 28l25 90q48 -26 100 -26q64 0 64 36q0 41 -78 41h-32v78h29q29 0 48 7q23 8 23 25q0 29 -48 29q-24 0 -52 -8q-23 -6 -41 -16z" />
<glyph unicode="&#x2084;" horiz-adv-x="413" d="M215 -147v85h-194v73l161 236h159v-224h50v-85h-50v-85h-126zM215 78q0 16 2 39l3 40h-3l-19 -37q-10 -20 -18 -33l-38 -63l3 -1h70v55z" />
<glyph unicode="&#x2085;" horiz-adv-x="365" d="M313 145h-164l-5 -33q4 1 12 1h12q36 0 65 -6q35 -8 57 -25q45 -32 45 -95q0 -60 -49 -98q-53 -41 -140 -41q-76 0 -124 21l19 90q17 -7 42 -12q30 -7 56 -7q27 0 46 8q24 11 24 34q0 48 -113 48q-12 0 -29 -1l-27 -2l27 216h246v-98z" />
<glyph unicode="&#x2086;" horiz-adv-x="376" d="M307 155q-16 4 -36 2q-103 -1 -127 -59l2 -1q35 21 82 21q128 0 128 -125q0 -67 -51 -108q-46 -37 -110 -37q-87 0 -134 56q-40 47 -40 118q0 105 70 167q64 57 177 58q20 1 39 -1v-91zM193 -63q40 0 40 49q0 52 -48 52q-33 0 -43 -29l-1 -8q-1 -6 -1 -11q0 -53 52 -53h1 z" />
<glyph unicode="&#x2087;" horiz-adv-x="350" d="M334 243v-74l-162 -316h-132l164 292h-179v98h309z" />
<glyph unicode="&#x2088;" horiz-adv-x="375" d="M189 248q71 0 111 -33q35 -29 35 -70q0 -56 -56 -82v-1q29 -11 48 -30q25 -27 25 -63q0 -121 -169 -121q-81 0 -125 38q-35 30 -35 71q0 62 71 90v2q-59 30 -59 85q0 51 44 83q43 31 109 31h1zM189 -70q39 0 39 34q0 20 -16 33q-12 9 -31 14q-36 -13 -36 -42 q0 -39 43 -39h1zM184 168q-36 0 -36 -32q0 -26 46 -41q29 7 29 36q0 37 -38 37h-1z" />
<glyph unicode="&#x2089;" horiz-adv-x="372" d="M58 -59q20 -4 37 -2q48 0 81 14q41 20 51 51l-2 1q-26 -20 -73 -20q-53 0 -90 30q-41 33 -41 92q0 60 47 101q46 40 114 40q85 0 130 -55q39 -47 39 -115q0 -114 -68 -173q-64 -55 -189 -57q-20 0 -36 2v91zM183 159q-40 0 -40 -46q0 -49 45 -49q27 0 37 18q4 7 4 23 q0 54 -45 54h-1z" />
<glyph unicode="&#x208d;" horiz-adv-x="215" d="M194 279q-22 -46 -35 -99q-18 -69 -18 -138q0 -71 18 -139q7 -28 17 -55q8 -22 18 -44h-86q-27 41 -43 92q-23 69 -23 146q0 76 23 146q17 51 43 91h86z" />
<glyph unicode="&#x208e;" horiz-adv-x="215" d="M21 -196q10 23 18 45q10 28 18 56q17 68 17 137q0 70 -17 138q-14 53 -36 99h86q12 -18 22 -39q12 -25 22 -53q22 -69 22 -146q0 -75 -22 -144q-9 -27 -22 -53q-10 -21 -22 -40h-86z" />
<glyph unicode="&#x20ac;" horiz-adv-x="573" d="M539 26q-29 -16 -69 -26q-45 -11 -90 -11q-172 0 -262 125q-37 52 -50 112h-65v81h54l1 40h-55v81h68q18 69 63 122q94 111 246 111q86 0 157 -30l-32 -134q-25 10 -49 15q-32 8 -62 8q-77 0 -118 -55q-12 -15 -20 -37h236v-81h-254q-1 -8 -1 -26v-14h255v-81h-238 q8 -25 24 -44q42 -48 124 -48q64 0 110 24z" />
<glyph unicode="&#x2113;" horiz-adv-x="578" d="M280 378q69 78 69 155q0 62 -30 62q-39 0 -39 -116v-101zM546 130q-44 -75 -111 -111q-58 -31 -129 -31q-152 0 -191 135q0 4 -1 5l-45 -28l-45 94q48 31 86 59v204q0 126 57 192q52 62 144 62q77 0 123 -47q46 -48 46 -129q0 -83 -50 -159q-45 -67 -150 -156v-12 q0 -73 69 -73q34 0 67 24q23 17 50 50z" />
<glyph unicode="&#x2116;" horiz-adv-x="992" d="M789 636q81 0 131 -50q48 -48 48 -125q0 -90 -54 -138q-49 -43 -129 -43t-130 46q-52 48 -52 129q0 82 51 131q50 50 134 50h1zM784 549q-21 0 -34 -32q-10 -27 -10 -61q0 -90 46 -90q45 0 45 92q0 38 -12 63q-13 28 -34 28h-1zM632 158v85h308v-85h-308zM62 0v650h195 l79 -204q16 -41 39 -106l39 -112h2q-6 63 -9 130q-3 74 -3 148v144h154v-650h-181l-105 269q-9 24 -20 57l-40 115h-3q3 -64 5 -134q2 -78 2 -156v-151h-154z" />
<glyph unicode="&#x2122;" horiz-adv-x="663" d="M269 674v-76h-75v-197h-96v197h-73v76h244zM562 401l-3 102v119h-6l-42 -216h-89l-22 153q-5 41 -9 63h-5l-7 -221h-89l15 273h148l22 -134h1l19 96l9 38h137l12 -273h-91z" />
<glyph unicode="&#x2126;" horiz-adv-x="761" d="M598 136h130v-136h-317v104q54 43 84 98q35 66 35 148q0 83 -40 137q-42 55 -107 55q-66 0 -108 -54q-43 -55 -43 -139q0 -75 35 -145q34 -69 84 -100v-104h-318v136h127v4q-47 37 -77 90q-38 66 -38 144q0 129 94 219q97 92 247 92q78 0 143 -26q59 -24 103 -68 q84 -86 84 -205q0 -45 -12 -86q-10 -36 -29 -69q-16 -28 -38 -53q-18 -20 -39 -38v-4z" />
<glyph unicode="&#x212e;" horiz-adv-x="817" d="M177 316q-5 0 -5 -4v-183q0 -10 9 -21q93 -99 229 -99q145 0 240 111h55q-113 -131 -296 -131q-155 0 -264 98q-110 99 -110 238t110 238q109 98 264 98t264 -98q109 -99 109 -238v-9h-605zM646 524q0 12 -10 22q-95 95 -226 95q-133 0 -228 -98q-10 -10 -10 -23v-180 q0 -5 5 -5h464q5 0 5 5v184z" />
<glyph unicode="&#x2202;" horiz-adv-x="592" d="M42 675q14 9 29 17q22 11 45 19q29 11 60 16q36 7 74 7q136 0 224 -99q88 -101 88 -263q0 -181 -92 -286q-86 -97 -219 -97q-57 0 -103 22q-41 19 -71 55q-56 66 -56 151q0 107 59 177q62 73 164 73q50 0 91 -24q29 -18 48 -45h1v8q0 77 -40 128q-44 55 -119 55 q-43 0 -83 -13q-15 -5 -29 -12q-6 -2 -11 -5l-9 -5zM272 132q36 0 64 42q26 40 31 92q-4 22 -24 41q-23 22 -54 22q-39 0 -63 -33t-24 -82q0 -82 69 -82h1z" />
<glyph unicode="&#x2206;" horiz-adv-x="658" d="M48 0v88l174 562h219l168 -561v-89h-561zM360 347q-19 73 -38 161h-3l-15 -73q-12 -54 -19 -81l-56 -208h186z" />
<glyph unicode="&#x220f;" horiz-adv-x="684" d="M578 502v-592h-166v592h-142v-592h-166v592h-93v148h660v-148h-93z" />
<glyph unicode="&#x2211;" horiz-adv-x="559" d="M17 -90v101l204 266l-193 256v117h498v-148h-269v-4l156 -214l-167 -222v-4h303v-148h-532z" />
<glyph unicode="&#x2212;" horiz-adv-x="596" d="M556 321v-108h-516v108h516z" />
<glyph unicode="&#x221a;" horiz-adv-x="601" d="M400 -73h-119l-158 404l-80 -31l-27 77l193 79l99 -277q7 -20 15 -47l11 -42h2l8 42q5 28 11 52l154 661h118z" />
<glyph unicode="&#x221e;" horiz-adv-x="763" d="M561 88q-49 0 -100 33q-20 12 -43 32q-15 13 -39 36l-19 -18q-11 -11 -19 -18q-23 -20 -42 -32q-50 -33 -108 -33q-75 0 -122 51q-46 50 -46 126q0 72 48 122q50 53 128 53q50 0 101 -32q20 -13 43 -33q15 -13 39 -36l19 18q11 11 19 18q23 20 42 33q50 32 108 32 q75 0 122 -51q46 -49 46 -124q0 -73 -47 -124q-50 -53 -129 -53h-1zM559 194q66 0 66 71q0 69 -64 69q-28 0 -58 -22q-11 -8 -26 -22l-25 -24l16 -17q4 -3 6 -6l25 -23q32 -26 59 -26h1zM201 194q27 0 57 23q12 8 26 22l25 25l-22 22q-15 15 -25 23q-31 25 -59 25 q-67 0 -67 -69q0 -71 64 -71h1z" />
<glyph unicode="&#x222b;" horiz-adv-x="377" d="M354 700q-18 5 -37 5q-34 0 -49 -29q-18 -34 -18 -144q0 -51 3 -108q0 -23 2 -50l6 -101q1 -29 3 -53q2 -62 2 -121q0 -123 -30 -183q-23 -45 -64 -68q-36 -20 -83 -20q-52 0 -78 13l19 109q15 -6 39 -6q27 0 43 22q23 31 23 127q0 60 -2 123q-2 26 -3 55l-6 104 q-2 29 -2 53q-3 60 -3 115q0 151 64 222q45 48 123 48q39 0 63 -8z" />
<glyph unicode="&#x2248;" horiz-adv-x="596" d="M579 376q-61 -106 -166 -106q-34 0 -68 12l-42 18l-59 28q-31 12 -60 12q-34 0 -64 -21q-22 -15 -45 -44l-58 71q30 45 70 71q46 31 99 31q34 0 67 -12l99 -46q31 -12 59 -12q33 0 64 24q12 9 23 22l16 19zM580 161q-61 -109 -169 -109q-32 0 -66 12l-101 46 q-32 12 -62 12q-31 0 -61 -21q-24 -17 -46 -44l-58 73q64 100 167 100q35 0 69 -12q13 -5 28 -12l72 -34q30 -12 58 -12q35 0 66 22q22 16 41 43z" />
<glyph unicode="&#x2260;" horiz-adv-x="596" d="M247 104l-56 -93h-111l58 93h-98v108h167l70 110h-237v108h306l56 93h112l-59 -93h101v-108h-170l-70 -110h240v-108h-309z" />
<glyph unicode="&#x2264;" horiz-adv-x="596" d="M55 295v105l486 169v-116l-336 -105v-2l336 -104v-117zM55 0v100h486v-100h-486z" />
<glyph unicode="&#x2265;" horiz-adv-x="596" d="M55 125v117l336 104v2l-336 105v116l486 -169v-105zM55 0v100h486v-100h-486z" />
<glyph unicode="&#x25ca;" horiz-adv-x="596" d="M363 -41h-131l-194 365l194 365h131l195 -365zM312 528q-11 22 -15 34h-2q-8 -18 -16 -34l-100 -201l104 -208q11 -21 15 -33h3q9 18 15 33l100 201z" />
<glyph unicode="&#x25fc;" horiz-adv-x="490" d="M0 490h490v-490h-490v490z" />
<glyph unicode="&#xe000;" horiz-adv-x="661" d="M12 88l208 586h223l202 -585v-89h-633v88zM437 148l-77 243q-20 65 -37 142h-4l-34 -135l-77 -250h229z" />
<glyph unicode="&#xe001;" horiz-adv-x="920" d="M780 562q-47 17 -101 17q-103 0 -103 -73v-14h305v-426q0 -155 -74 -220q-71 -62 -206 -62l-16 140q61 5 86 30q29 28 29 150v256h-122v-360h-181v360h-139v-360h-181v360h-63v132h63v4q0 99 65 157q59 54 156 54q23 0 48 -5q19 -3 37 -9l-38 -129q-18 6 -35 6 q-21 0 -37 -14q-17 -16 -17 -52v-12h141v18q0 100 78 157q75 54 197 54q87 0 143 -24z" />
<glyph unicode="&#xe002;" horiz-adv-x="613" d="M77 0v360h-63v132h63v18q0 100 78 157q75 54 197 54q102 0 153 -30l-31 -135q-48 23 -115 23q-103 0 -103 -73v-14h305v-426q0 -155 -74 -220q-71 -62 -206 -62l-16 140q61 5 86 30q29 28 29 150v256h-122v-360h-181z" />
<glyph unicode="&#xefed;" d="M151 709q-78 0 -78 76q0 77 79 77q75 0 75 -77q0 -76 -75 -76h-1z" />
<glyph unicode="&#xefee;" d="M96 855q4 -45 53 -45q50 0 59 45h89q-2 -135 -147 -135q-74 0 -111 38q-34 34 -36 97h93z" />
<glyph unicode="&#xeff1;" d="M156 1q-13 -30 -13 -62q0 -54 54 -54q13 0 26 3l11 2q4 2 8 3l24 -83q-46 -35 -111 -35q-121 0 -121 115q0 30 12 67q4 13 10 26l4 11l4 7h92z" />
<glyph unicode="&#xeff2;" d="M210 5l-20 -47q32 -8 51 -27q23 -23 23 -57q0 -51 -41 -77q-34 -21 -86 -21q-55 0 -91 20l21 69q26 -14 57 -14q33 0 33 22q0 28 -79 36l39 96h93z" />
<glyph unicode="&#xeff3;" horiz-adv-x="400" d="M202 900q120 0 120 -102q0 -100 -121 -100q-122 0 -122 99q0 103 122 103h1zM198 843q-41 0 -41 -45q0 -43 42 -43q44 0 44 43q0 45 -44 45h-1z" />
<glyph unicode="&#xeff5;" d="M7 714q-4 139 81 139q20 0 38 -6q12 -5 28 -14q31 -20 43 -20q22 0 27 44h78q4 -136 -84 -136q-35 0 -67 18l-22 13q-10 5 -19 5q-20 0 -23 -43h-80z" />
<glyph unicode="&#xeff7;" d="M218 836l99 -126h-121l-45 59h-2l-44 -59h-121l99 126h135z" />
<glyph unicode="&#xf629;" horiz-adv-x="336" d="M164 -3v55q-60 11 -94 49q-34 40 -34 97q0 54 31 95q35 45 97 57v53h75v-49q6 0 11 -1l13 -2q16 -2 29 -6l-17 -88q-21 8 -47 8q-67 0 -67 -61q0 -64 69 -64q28 0 54 8l13 -85q-19 -9 -58 -13v-53h-75z" />
<glyph unicode="&#xf62a;" horiz-adv-x="368" d="M146 -50v53q-72 5 -117 28l21 90q27 -13 53 -20q32 -8 65 -8q51 0 51 23q0 11 -13 18q-12 7 -52 19q-63 19 -89 41q-33 27 -33 72q0 93 114 115v53h75v-48q58 -1 99 -20l-21 -88l-16 7l-22 7q-31 9 -63 9q-25 0 -36 -7q-9 -5 -9 -14q0 -11 14 -19q15 -8 62 -21 q112 -31 112 -114q0 -97 -121 -117v-59h-74z" />
<glyph unicode="&#xf62b;" horiz-adv-x="213" d="M195 228v-82h-177v82h177z" />
<glyph unicode="&#xf62c;" horiz-adv-x="215" d="M194 426q-22 -46 -35 -99q-18 -69 -18 -138q0 -71 18 -139q7 -28 17 -55q8 -22 18 -44h-86q-27 41 -43 92q-23 69 -23 146q0 76 23 146q17 51 43 91h86z" />
<glyph unicode="&#xf62d;" horiz-adv-x="215" d="M21 -49q10 23 18 45q10 28 18 56q17 68 17 137q0 70 -17 138q-14 53 -36 99h86q12 -18 22 -39q12 -25 22 -53q22 -69 22 -146q0 -75 -22 -144q-9 -27 -22 -53q-10 -21 -22 -40h-86z" />
<glyph unicode="&#xf62e;" horiz-adv-x="336" d="M164 263v55q-60 11 -94 49q-34 40 -34 97q0 54 31 95q35 45 97 57v53h75v-49q6 0 11 -1l13 -2q16 -2 29 -6l-17 -88q-21 8 -47 8q-67 0 -67 -61q0 -64 69 -64q28 0 54 8l13 -85q-19 -9 -58 -13v-53h-75z" />
<glyph unicode="&#xf62f;" horiz-adv-x="368" d="M146 216v53q-72 5 -117 28l21 90q27 -13 53 -20q32 -8 65 -8q51 0 51 23q0 11 -13 18q-12 7 -52 19q-63 19 -89 41q-33 27 -33 72q0 93 114 115v53h75v-48q58 -1 99 -20l-21 -88l-16 7l-22 7q-31 9 -63 9q-25 0 -36 -7q-9 -5 -9 -14q0 -11 14 -19q15 -8 62 -21 q112 -31 112 -114q0 -97 -121 -117v-59h-74z" />
<glyph unicode="&#xf630;" horiz-adv-x="213" d="M195 494v-82h-177v82h177z" />
<glyph unicode="&#xf631;" horiz-adv-x="215" d="M194 692q-22 -46 -35 -99q-18 -69 -18 -138q0 -71 18 -139q7 -28 17 -55q8 -22 18 -44h-86q-27 41 -43 92q-23 69 -23 146q0 76 23 146q17 51 43 91h86z" />
<glyph unicode="&#xf632;" horiz-adv-x="215" d="M21 217q10 23 18 45q10 28 18 56q17 68 17 137q0 70 -17 138q-14 53 -36 99h86q12 -18 22 -39q12 -25 22 -53q22 -69 22 -146q0 -75 -22 -144q-9 -27 -22 -53q-10 -21 -22 -40h-86z" />
<glyph unicode="&#xf633;" horiz-adv-x="784" d="M452 427q-12 3 -23 3q-42 0 -70 -37q-29 -37 -29 -88q0 -55 42 -55q55 0 68 91zM555 23q-81 -34 -185 -34q-130 0 -220 84q-96 90 -96 232q0 157 104 266q109 114 274 114q133 0 220 -82t87 -208q0 -107 -55 -173q-54 -65 -140 -65q-79 0 -91 73h-2q-45 -73 -123 -73 q-114 0 -114 133q0 95 62 160q65 70 170 70q79 0 124 -26l-28 -187q-10 -74 24 -75q34 -2 60 37q31 46 31 125q0 97 -60 158q-65 65 -177 65q-116 0 -196 -81q-85 -85 -85 -220q0 -123 72 -192q68 -66 183 -66q82 0 143 29z" />
<glyph unicode="&#xf634;" d="M51 -175q62 14 62 59q0 15 -9 33l-18 26l123 19q39 -29 39 -81q0 -63 -49 -97q-45 -32 -123 -34z" />
<glyph unicode="&#xf638;" horiz-adv-x="573" d="M343 488q-15 37 -56 37q-86 0 -86 -200v-24l2 -30zM229 160q19 -36 57 -36q86 0 86 201l-1 60zM485 558q29 -45 44 -108q13 -58 13 -124q0 -151 -62 -240q-68 -97 -193 -97q-87 0 -148 48l-41 -59l-64 48l51 72q-54 88 -54 226q0 147 59 236q68 101 197 101q86 0 143 -44 l44 66l66 -46z" />
<glyph unicode="&#xf639;" horiz-adv-x="573" d="M286 -11q-130 0 -197 103q-58 89 -58 232q0 145 59 235q68 102 197 102q68 0 120 -29q47 -27 79 -76q29 -46 43 -108q13 -56 13 -122q0 -151 -62 -240q-68 -97 -193 -97h-1zM288 124q74 0 74 201q0 200 -75 200q-76 0 -76 -200q-1 -201 76 -201h1z" />
<glyph unicode="&#xf63a;" horiz-adv-x="513" d="M3 0v109l90 79q54 47 87 78q39 36 62 64q50 59 51 106q0 81 -97 81q-37 0 -76 -17q-31 -13 -63 -36l-49 129q40 30 96 48q62 20 128 20q113 0 177 -57q64 -56 64 -153q0 -71 -47 -141q-19 -29 -48 -59q-24 -25 -56 -51l-64 -50v-2h226v-148h-481z" />
<glyph unicode="&#xf63b;" horiz-adv-x="519" d="M40 170q12 -6 27 -12q19 -7 38 -13q49 -14 90 -14q106 0 106 69q0 38 -35 59q-31 19 -79 19h-68v128h64q40 0 68 13q34 15 34 46q0 55 -87 55q-37 0 -80 -13q-34 -10 -59 -24l-34 129q33 20 89 34q61 15 125 15q105 0 169 -48q60 -45 60 -117q0 -108 -119 -150v-2 q60 -10 98 -51q41 -43 41 -103q0 -90 -76 -145q-76 -56 -202 -56q-63 0 -120 14q-51 12 -84 32z" />
<glyph unicode="&#xf63c;" horiz-adv-x="564" d="M301 0v146h-282v117l226 387h226v-370h72v-134h-72v-146h-170zM301 280v111q0 26 2 64l3 66h-4l-30 -65q-18 -39 -33 -66l-56 -110h118z" />
<glyph unicode="&#xf63d;" horiz-adv-x="526" d="M462 502h-254l-9 -70l19 2h18q116 0 185 -52q73 -55 73 -162q0 -95 -76 -160q-83 -71 -219 -71q-58 0 -111 11q-47 10 -78 25l30 135q25 -12 64 -21q45 -10 85 -10q48 0 81 18q39 21 39 63q0 92 -181 92q-45 0 -87 -6l43 354h378v-148z" />
<glyph unicode="&#xf63e;" horiz-adv-x="573" d="M475 521q-24 1 -57 0q-93 -4 -146 -40q-44 -31 -59 -83h3q48 41 129 41q84 0 141 -54q62 -59 62 -159t-71 -168q-71 -69 -178 -69q-133 0 -205 88q-65 78 -65 199q0 181 117 288q106 92 268 95q19 1 36 1l25 -2v-137zM297 120q69 0 69 97q0 39 -18 65q-22 31 -62 31 q-54 0 -74 -48q-5 -10 -5 -38q3 -45 24 -73q24 -34 65 -34h1z" />
<glyph unicode="&#xf63f;" horiz-adv-x="486" d="M485 650v-112l-261 -538h-192l262 500v2h-289v148h480z" />
<glyph unicode="&#xf640;" horiz-adv-x="573" d="M291 661q114 0 176 -56q52 -47 52 -114q0 -93 -90 -140v-2q48 -18 79 -55q36 -44 36 -104q0 -91 -70 -145q-71 -56 -192 -56q-124 0 -193 60q-59 50 -59 122q0 110 110 159v2q-90 50 -90 142q0 84 69 136q67 51 171 51h1zM289 111q71 0 71 67q0 70 -84 91 q-62 -16 -62 -80q0 -78 74 -78h1zM284 541q-64 0 -64 -63q0 -49 78 -74q52 12 52 67q0 70 -65 70h-1z" />
<glyph unicode="&#xf641;" horiz-adv-x="573" d="M87 130q24 -2 64 -1q74 2 125 30q61 35 80 98l-2 1q-40 -37 -121 -37q-85 0 -144 52q-63 57 -63 152q0 99 72 167q73 69 183 69q128 0 198 -87q61 -76 61 -195q0 -195 -114 -297q-99 -89 -275 -92q-15 -1 -35 0q-7 1 -15 1l-14 1v138zM276 531q-73 0 -71 -94 q0 -38 18 -62q21 -28 60 -28q47 0 66 31q7 14 7 41q1 45 -17 75q-21 37 -62 37h-1z" />
<glyph unicode="&#xf642;" horiz-adv-x="923" d="M210 622q87 0 138 -57q47 -53 47 -136q0 -97 -58 -155q-54 -53 -133 -53q-81 0 -133 54q-54 55 -54 142t51 144q53 61 141 61h1zM206 526q-57 0 -57 -105q0 -104 59 -104q55 0 55 104q0 105 -56 105h-1zM241 -11l348 633h93l-349 -633h-92zM721 391q87 0 138 -57 q47 -53 47 -136q0 -97 -58 -155q-54 -53 -133 -53q-81 0 -134 54q-54 55 -54 143q0 86 51 143q54 61 142 61h1zM717 295q-58 0 -58 -105q0 -104 60 -104q55 0 55 105q0 104 -56 104h-1z" />
<glyph unicode="&#xf643;" horiz-adv-x="575" d="M286 -11q-124 0 -195 79q-63 72 -63 178t64 177q71 80 196 80q124 0 196 -80q63 -71 63 -177q0 -107 -63 -178q-71 -79 -196 -79h-2zM289 119q87 0 87 127t-88 127q-89 0 -89 -127t89 -127h1z" />
<glyph unicode="&#xf644;" horiz-adv-x="575" d="M260 0v341l-169 -63l-22 132l221 82h144v-492h-174z" />
<glyph unicode="&#xf645;" horiz-adv-x="575" d="M58 0v97l66 41q163 100 163 162q0 63 -80 63q-56 0 -109 -30l-40 115q33 21 79 36q61 20 124 20q208 0 208 -168q0 -58 -41 -109q-31 -40 -84 -74l-39 -23v-3q64 11 116 11h81v-138h-444z" />
<glyph unicode="&#xf646;" horiz-adv-x="575" d="M77 24q48 -17 120 -17q113 0 113 67q0 62 -112 62q-21 0 -55 -2v125l31 2q56 4 86 17q36 14 36 40q0 48 -76 48q-31 0 -68 -10q-32 -9 -59 -23l-30 118q76 52 200 52q95 0 153 -41q60 -41 60 -111q0 -49 -35 -88t-86 -50v-2q62 -10 100 -45q42 -39 42 -97q0 -91 -86 -147 q-79 -52 -194 -52q-104 0 -159 24z" />
<glyph unicode="&#xf647;" horiz-adv-x="575" d="M475 23v-151h-167v151h-282v116l223 353h226v-339h72v-130h-72zM308 251q0 69 4 120h-5q-33 -71 -66 -125l-54 -88l2 -5h119v98z" />
<glyph unicode="&#xf648;" horiz-adv-x="575" d="M85 15q44 -12 109 -12q50 0 82 19q34 20 34 54q0 27 -17 43q-19 19 -60 27q-49 9 -146 8l54 338h344l-19 -145h-209l-13 -73q141 -5 204 -65q48 -48 48 -121q0 -94 -70 -154q-76 -64 -212 -64q-43 0 -86 7q-37 6 -62 14z" />
<glyph unicode="&#xf649;" horiz-adv-x="575" d="M493 493q-119 -3 -189 -39q-58 -30 -73 -75l2 -1q19 15 44 24q31 12 67 12q85 0 140 -51q57 -53 57 -144q0 -97 -74 -164q-73 -66 -179 -66q-117 0 -186 74q-66 71 -66 190q0 164 117 264q122 104 330 103zM292 121q70 0 70 89t-73 89q-41 0 -68 -33q-9 -10 -9 -38 q0 -107 79 -107h1z" />
<glyph unicode="&#xf64a;" horiz-adv-x="575" d="M509 384q-45 -112 -116 -252q-77 -149 -149 -260l-174 19q73 108 139 225q36 63 65 118q31 61 51 109v2h-268v147h452v-108z" />
<glyph unicode="&#xf64b;" horiz-adv-x="575" d="M431 328q48 -22 76 -53q35 -40 35 -92q0 -86 -73 -140t-189 -54q-112 0 -180 50q-68 49 -68 128q0 99 105 146v5q-85 45 -85 125q0 79 64 129q66 50 177 50q109 0 171 -50q54 -45 54 -110q0 -46 -27 -81q-22 -29 -60 -48v-5zM228 453q0 -53 80 -75q49 19 49 69 q0 66 -65 66q-64 0 -64 -60zM286 108q69 0 69 64q0 65 -86 88q-58 -19 -58 -79q0 -73 74 -73h1z" />
<glyph unicode="&#xf64c;" horiz-adv-x="575" d="M72 3q120 4 186 36q61 28 84 84l-2 1q-44 -38 -118 -38q-85 0 -139 56q-54 54 -54 137q0 100 74 165q73 65 183 65q115 0 184 -77q65 -74 65 -187q0 -98 -38 -173q-35 -69 -101 -114q-61 -43 -144 -63q-79 -20 -170 -18zM283 203q41 0 64 35q9 12 9 43q0 94 -75 94 q-73 0 -73 -87q0 -85 74 -85h1z" />
<glyph unicode="&#xf64e;" horiz-adv-x="575" d="M526 22q-57 -33 -151 -33q-124 0 -198 77q-46 44 -64 111h-68v77h55l-1 29q0 6 1 11h-54v76h67q16 59 64 110q82 80 211 80q41 0 82 -9q31 -6 54 -16l-32 -120q-15 7 -35 11q-26 6 -52 6q-61 0 -96 -35q-9 -9 -18 -27h190v-76h-210q-1 -5 -1 -11l1 -29h210v-77h-189 q8 -13 17 -23q33 -34 98 -34q66 0 104 21z" />
<glyph unicode="&#xf64f;" horiz-adv-x="575" d="M117 354h85l6 50q1 12 3 25q3 16 8 31q12 41 34 73q28 40 68 62q49 27 115 27q57 0 88 -17l-27 -126q-18 8 -45 8q-60 0 -69 -69l-8 -64h97v-104h-109l-21 -161q-6 -49 -17 -85q-14 -41 -36 -69q-50 -66 -155 -65q-65 0 -97 17l24 124q17 -5 43 -7q34 1 47 24 q15 25 26 112l13 110h-73v104z" />
<glyph unicode="&#xf650;" horiz-adv-x="575" d="M328 250l15 98h-86l-14 -98h85zM99 -10l23 153h-81v107h100l15 98h-84v107h100l22 148h101l-22 -148h87l22 148h102l-22 -148h79v-107h-96l-15 -98h81v-107h-99l-22 -153h-103l23 153h-86l-22 -153h-103z" />
<glyph unicode="&#xf651;" horiz-adv-x="575" d="M57 0v94q46 18 74 47q31 33 31 72v11q0 5 -1 10h-91v96h71q-4 16 -4 39q0 91 62 151q66 64 179 64q77 0 121 -24l-26 -130q-32 17 -83 17q-86 0 -86 -82q0 -24 3 -35h140v-96h-124l-1 -8q-3 -29 -20 -53q-13 -17 -31 -31v-2h259v-140h-473z" />
<glyph unicode="&#xf652;" horiz-adv-x="575" d="M198 0v100h-149v81h149v48h-149v81h112l-145 238h185l67 -169q11 -28 20 -53h1l88 222h180l-151 -238h112v-81h-151v-48h151v-81h-151v-100h-169z" />
<glyph unicode="&#xf653;" horiz-adv-x="575" d="M235 -91v87q-100 5 -169 47l35 118q70 -41 151 -41q65 0 65 27q0 6 -2 10q-3 5 -11 11q-17 11 -64 26q-161 48 -161 152q0 113 161 143v96h102v-90q86 -4 141 -33l-34 -115q-23 12 -54 21q-38 11 -72 11q-63 0 -63 -25q0 -13 14 -22q16 -9 70 -26q90 -26 128 -64 q35 -34 35 -88q0 -123 -170 -153v-92h-102z" />
<glyph unicode="&#xf654;" horiz-adv-x="575" d="M457 52q-41 -15 -92 -17v-74h-100v77q-85 13 -136 68q-52 56 -52 140q0 79 48 137q51 62 140 79v75h100v-70q41 -2 86 -14l-23 -114q-29 13 -77 13q-108 0 -108 -100q0 -50 33 -76q29 -24 77 -24q52 0 86 12z" />
<glyph unicode="&#xf655;" horiz-adv-x="396" d="M197 -5q-89 0 -136 61q-41 54 -41 140q0 84 40 137q46 62 136 62q89 0 137 -61q43 -54 43 -141q0 -81 -40 -135q-48 -63 -138 -63h-1zM199 85q47 0 47 109q0 111 -49 111q-47 0 -47 -111q0 -109 48 -109h1z" />
<glyph unicode="&#xf656;" horiz-adv-x="324" d="M122 0v280l-84 -35l-17 96l120 49h119v-390h-138z" />
<glyph unicode="&#xf657;" horiz-adv-x="369" d="M17 65l61 53l48 42q23 20 35 33q29 30 29 57q0 39 -51 39q-47 0 -87 -26l-35 89q65 43 156 43q161 0 161 -124q0 -47 -34 -87q-13 -17 -34 -35q-13 -11 -39 -31l-21 -16v-2h135v-100h-324v65z" />
<glyph unicode="&#xf658;" horiz-adv-x="366" d="M24 363q55 32 151 32q154 0 154 -100q0 -64 -85 -89v-2q100 -9 100 -90q0 -54 -53 -87q-52 -32 -138 -32q-92 0 -143 28l25 90q48 -26 100 -26q64 0 64 36q0 41 -78 41h-32v78h29q29 0 48 7q23 8 23 25q0 29 -48 29q-24 0 -52 -8q-23 -6 -41 -16z" />
<glyph unicode="&#xf659;" horiz-adv-x="413" d="M215 0v85h-194v73l161 236h159v-224h50v-85h-50v-85h-126zM215 225q0 16 2 39l3 40h-3l-19 -37q-10 -20 -18 -33l-38 -63l3 -1h70v55z" />
<glyph unicode="&#xf65a;" horiz-adv-x="365" d="M313 292h-164l-5 -33q4 1 12 1h12q36 0 65 -6q35 -8 57 -25q45 -32 45 -95q0 -60 -49 -98q-53 -41 -140 -41q-76 0 -124 21l19 90q17 -7 42 -12q30 -7 56 -7q27 0 46 8q24 11 24 34q0 48 -113 48q-12 0 -29 -1l-27 -2l27 216h246v-98z" />
<glyph unicode="&#xf65b;" horiz-adv-x="376" d="M307 302q-16 4 -36 2q-103 -1 -127 -59l2 -1q35 21 82 21q128 0 128 -125q0 -67 -51 -108q-46 -37 -110 -37q-87 0 -134 56q-40 47 -40 118q0 105 70 167q64 57 177 58q20 1 39 -1v-91zM193 84q40 0 40 49q0 52 -48 52q-33 0 -43 -29l-1 -8q-1 -6 -1 -11q0 -53 52 -53h1z " />
<glyph unicode="&#xf65c;" horiz-adv-x="350" d="M334 390v-74l-162 -316h-132l164 292h-179v98h309z" />
<glyph unicode="&#xf65d;" horiz-adv-x="375" d="M189 395q71 0 111 -33q35 -29 35 -70q0 -56 -56 -82v-1q29 -11 48 -30q25 -27 25 -63q0 -121 -169 -121q-81 0 -125 38q-35 30 -35 71q0 62 71 90v2q-59 30 -59 85q0 51 44 83q43 31 109 31h1zM189 77q39 0 39 34q0 20 -16 33q-12 9 -31 14q-36 -13 -36 -42q0 -39 43 -39 h1zM184 315q-36 0 -36 -32q0 -26 46 -41q29 7 29 36q0 37 -38 37h-1z" />
<glyph unicode="&#xf65e;" horiz-adv-x="372" d="M58 88q20 -4 37 -2q48 0 81 14q41 20 51 51l-2 1q-26 -20 -73 -20q-53 0 -90 30q-41 33 -41 92q0 60 47 101q46 40 114 40q85 0 130 -55q39 -47 39 -115q0 -114 -68 -173q-64 -55 -189 -57q-20 0 -36 2v91zM183 306q-40 0 -40 -46q0 -49 45 -49q27 0 37 18q4 7 4 23 q0 54 -45 54h-1z" />
<glyph unicode="&#xf65f;" horiz-adv-x="189" d="M-11 -65q37 104 52 198l128 5q-37 -107 -94 -197z" />
<glyph unicode="&#xf660;" horiz-adv-x="189" d="M94 -5q-72 0 -72 72t73 72t73 -72t-73 -72h-1z" />
<glyph unicode="&#xf661;" horiz-adv-x="396" d="M197 261q-89 0 -136 61q-41 54 -41 140q0 84 40 137q46 62 136 62q89 0 137 -61q43 -54 43 -141q0 -81 -40 -135q-48 -63 -138 -63h-1zM199 351q47 0 47 109q0 111 -49 111q-47 0 -47 -111q0 -109 48 -109h1z" />
<glyph unicode="&#xf662;" horiz-adv-x="324" d="M122 266v280l-84 -35l-17 96l120 49h119v-390h-138z" />
<glyph unicode="&#xf663;" horiz-adv-x="369" d="M17 331l61 53l48 42q23 20 35 33q29 30 29 57q0 39 -51 39q-47 0 -87 -26l-35 89q65 43 156 43q161 0 161 -124q0 -47 -34 -87q-13 -17 -34 -35q-13 -11 -39 -31l-21 -16v-2h135v-100h-324v65z" />
<glyph unicode="&#xf664;" horiz-adv-x="366" d="M24 629q55 32 151 32q154 0 154 -100q0 -64 -85 -89v-2q100 -9 100 -90q0 -54 -53 -87q-52 -32 -138 -32q-92 0 -143 28l25 90q48 -26 100 -26q64 0 64 36q0 41 -78 41h-32v78h29q29 0 48 7q23 8 23 25q0 29 -48 29q-24 0 -52 -8q-23 -6 -41 -16z" />
<glyph unicode="&#xf665;" horiz-adv-x="413" d="M215 266v85h-194v73l161 236h159v-224h50v-85h-50v-85h-126zM215 491q0 16 2 39l3 40h-3l-19 -37q-10 -20 -18 -33l-38 -63l3 -1h70v55z" />
<glyph unicode="&#xf666;" horiz-adv-x="365" d="M313 558h-164l-5 -33q4 1 12 1h12q36 0 65 -6q35 -8 57 -25q45 -32 45 -95q0 -60 -49 -98q-53 -41 -140 -41q-76 0 -124 21l19 90q17 -7 42 -12q30 -7 56 -7q27 0 46 8q24 11 24 34q0 48 -113 48q-12 0 -29 -1l-27 -2l27 216h246v-98z" />
<glyph unicode="&#xf667;" horiz-adv-x="376" d="M307 568q-16 4 -36 2q-103 -1 -127 -59l2 -1q35 21 82 21q128 0 128 -125q0 -67 -51 -108q-46 -37 -110 -37q-87 0 -134 56q-40 47 -40 118q0 105 70 167q64 57 177 58q20 1 39 -1v-91zM193 350q40 0 40 49q0 52 -48 52q-33 0 -43 -29l-1 -8q-1 -6 -1 -11q0 -53 52 -53h1 z" />
<glyph unicode="&#xf668;" horiz-adv-x="350" d="M334 656v-74l-162 -316h-132l164 292h-179v98h309z" />
<glyph unicode="&#xf669;" horiz-adv-x="375" d="M189 661q71 0 111 -33q35 -29 35 -70q0 -56 -56 -82v-1q29 -11 48 -30q25 -27 25 -63q0 -121 -169 -121q-81 0 -125 38q-35 30 -35 71q0 62 71 90v2q-59 30 -59 85q0 51 44 83q43 31 109 31h1zM189 343q39 0 39 34q0 20 -16 33q-12 9 -31 14q-36 -13 -36 -42 q0 -39 43 -39h1zM184 581q-36 0 -36 -32q0 -26 46 -41q29 7 29 36q0 37 -38 37h-1z" />
<glyph unicode="&#xf66a;" horiz-adv-x="372" d="M58 354q20 -4 37 -2q48 0 81 14q41 20 51 51l-2 1q-26 -20 -73 -20q-53 0 -90 30q-41 33 -41 92q0 60 47 101q46 40 114 40q85 0 130 -55q39 -47 39 -115q0 -114 -68 -173q-64 -55 -189 -57q-20 0 -36 2v91zM183 572q-40 0 -40 -46q0 -49 45 -49q27 0 37 18q4 7 4 23 q0 54 -45 54h-1z" />
<glyph unicode="&#xf66b;" horiz-adv-x="189" d="M-11 201q37 104 52 198l128 5q-37 -107 -94 -197z" />
<glyph unicode="&#xf66c;" horiz-adv-x="189" d="M94 261q-72 0 -72 72t73 72t73 -72t-73 -72h-1z" />
<glyph unicode="&#xf6ae;" horiz-adv-x="328" d="M286 727q-40 -74 -63 -168q-27 -110 -27 -235q0 -123 27 -232q23 -95 63 -170h-122q-20 31 -37 68q-20 42 -35 90q-16 53 -25 111q-10 64 -10 133t10 134q9 59 26 112q14 47 34 90q17 36 37 67h122z" />
<glyph unicode="&#xf6af;" horiz-adv-x="328" d="M41 -78q40 74 63 169q27 110 27 234t-27 233q-23 95 -63 169h122q20 -31 37 -67q20 -42 35 -89q16 -54 25 -112q10 -65 10 -134t-10 -134q-9 -58 -25 -111q-15 -47 -35 -90q-17 -36 -37 -68h-122z" />
<glyph unicode="&#xf6b0;" horiz-adv-x="328" d="M63 -75v798h213v-97h-86v-604h86v-97h-213z" />
<glyph unicode="&#xf6b1;" horiz-adv-x="328" d="M265 723v-798h-213v97h86v604h-86v97h213z" />
<glyph unicode="&#xf6b2;" horiz-adv-x="328" d="M32 368q45 3 62 24q11 14 11 42q0 32 -5 75q-5 45 -5 77q0 137 155 137h42v-98h-18q-53 -1 -53 -64q0 -10 1 -24l3 -27q4 -36 4 -65q1 -102 -91 -120v-2q92 -18 91 -119q0 -29 -4 -67l-3 -26l-1 -23q0 -65 53 -66h18v-97h-42q-155 0 -155 136q0 37 6 77l3 40q1 21 1 37 q0 26 -11 41q-18 21 -63 24z" />
<glyph unicode="&#xf6b3;" horiz-adv-x="328" d="M296 280q-45 -3 -62 -24q-11 -15 -11 -41q0 -16 1 -37l3 -40q5 -45 5 -77q0 -136 -155 -136h-42v97h18q53 1 53 66l-3 49q-4 38 -4 67q-1 101 91 119v2q-92 18 -91 120q0 16 1 35l3 44l2 13q1 14 1 24q0 63 -53 64h-18v98h42q155 0 155 -137q0 -32 -5 -77l-3 -39 q-1 -21 -1 -36q0 -28 12 -42q17 -21 62 -24z" />
<glyph unicode="&#xf6b4;" horiz-adv-x="284" d="M50 0l26 441h134l26 -441h-186zM143 686q102 0 102 -104q-2 -103 -102 -103q-103 0 -103 103q0 104 102 104h1z" />
<glyph unicode="&#xf6b5;" horiz-adv-x="463" d="M254 686q101 0 101 -104q0 -103 -102 -103q-103 0 -103 103q0 104 103 104h1zM327 445v-25q3 -80 -57 -150l-20 -24l-17 -23q-16 -25 -16 -44q0 -47 62 -48q57 0 99 29l38 -129q-32 -17 -73 -28q-50 -13 -104 -13q-99 0 -154 48q-49 43 -49 111q0 53 30 100q11 18 28 37 l28 30q47 51 48 115v14h157z" />
<glyph unicode="&#xf6b6;" horiz-adv-x="484" d="M142 328l113 -194h-121l-108 194l108 193h121zM349 328l113 -194h-121l-108 194l108 193h121z" />
<glyph unicode="&#xf6b7;" horiz-adv-x="484" d="M23 521h119l110 -193l-110 -194h-119l113 194zM227 521h119l110 -193l-110 -194h-119l113 194z" />
<glyph unicode="&#xf6b8;" horiz-adv-x="277" d="M142 328l113 -194h-121l-108 194l108 193h121z" />
<glyph unicode="&#xf6b9;" horiz-adv-x="277" d="M22 521h119l110 -193l-110 -194h-119l113 194z" />
<glyph unicode="&#xf6ba;" horiz-adv-x="328" d="M298 393v-117h-268v117h268z" />
<glyph unicode="&#xf6bb;" horiz-adv-x="500" d="M470 384v-109h-440v109h440z" />
<glyph unicode="&#xf6bc;" horiz-adv-x="1000" d="M970 384v-109h-940v109h940z" />
<glyph unicode="&#xf6bd;" horiz-adv-x="283" d="M141 228q-102 0 -102 105t103 105q101 0 103 -105q0 -105 -103 -105h-1z" />
<glyph unicode="&#xf6c3;" d="M51 -176q62 12 62 59q0 15 -9 33l-18 26l123 19q39 -29 39 -81q0 -63 -49 -97q-45 -32 -123 -34z" />
<glyph unicode="&#xf6c9;" d="M326 836l-120 -126h-144l81 126h183z" />
<glyph unicode="&#xf6ca;" d="M82 710l-99 126h121l45 -59h2l44 59h121l-99 -126h-135z" />
<glyph unicode="&#xf6cb;" d="M42 709q-77 0 -77 77q0 76 78 76q74 0 74 -76q0 -77 -74 -77h-1zM259 709q-76 0 -76 77q0 76 77 76q75 0 75 -76q0 -77 -75 -77h-1z" />
<glyph unicode="&#xf6cc;" d="M-45 709q-71 0 -71 71q0 72 73 72q69 0 69 -72q0 -71 -70 -71h-1zM346 709q-70 0 -70 71q0 72 72 72q70 0 70 -72q0 -71 -71 -71h-1zM272 840l-117 -128h-129l76 128h170z" />
<glyph unicode="&#xf6cd;" d="M-45 709q-71 0 -71 71q0 72 73 72q69 0 69 -72q0 -71 -70 -71h-1zM345 709q-70 0 -70 71q0 72 72 72q70 0 70 -72q0 -71 -71 -71h-1zM198 840l75 -128h-129l-116 128h170z" />
<glyph unicode="&#xf6ce;" d="M164 836l81 -124h-144l-120 124h183z" />
<glyph unicode="&#xf6cf;" d="M214 838l-98 -118h-122l59 118h161zM410 838l-97 -118h-123l59 118h161z" />
<glyph unicode="&#xf6d0;" d="M285 827v-92h-268v92h268z" />
<glyph unicode="&#xf6d1;" d="M112 851q0 -61 37 -61q35 0 41 61h118q-10 -131 -161 -131q-141 0 -154 131h119z" />
<glyph unicode="&#xf6d2;" d="M190 719q-2 62 -38 62q-35 0 -40 -62l-119 1q11 131 162 131q144 0 153 -131z" />
<glyph unicode="&#xf6d3;" d="M59 840l77 -128h-128l-121 128h172zM297 840l78 -128h-129l-120 128h171z" />
<glyph unicode="&#xf6d4;" d="M111 695q0 -68 38 -68q36 0 41 68h110q-9 -148 -153 -148q-139 0 -147 148h111z" />
<glyph unicode="&#xf6d5;" d="M-4 559q9 148 153 148q139 0 147 -148h-111q0 68 -38 68q-36 0 -41 -68h-110z" />
<glyph unicode="&#xf6d6;" d="M90 705l56 -153h-97l-92 153h133zM278 705l57 -153h-97l-93 153h133z" />
<glyph unicode="&#xf6d7;" horiz-adv-x="301" d="M-18 555q-73 0 -73 73t75 73q70 0 70 -73t-71 -73h-1zM317 555q-71 0 -71 73t73 73q72 0 72 -73t-73 -73h-1zM256 713l-88 -155h-107l50 155h145z" />
<glyph unicode="&#xf6d8;" horiz-adv-x="301" d="M-18 555q-73 0 -73 73t75 73q70 0 70 -73t-71 -73h-1zM317 555q-71 0 -71 73t73 73q72 0 72 -73t-73 -73h-1zM191 713l50 -155h-107l-88 155h145z" />
<glyph unicode="&#xf6dc;" horiz-adv-x="404" d="M158 491h-2l-128 -58l-29 135l186 82h147v-650h-174v491z" />
<glyph unicode="&#xf6df;" horiz-adv-x="336" d="M164 -150v55q-60 11 -94 49q-34 40 -34 97q0 54 31 95q35 45 97 57v53h75v-49q6 0 11 -1l13 -2q16 -2 29 -6l-17 -88q-21 8 -47 8q-67 0 -67 -61q0 -64 69 -64q28 0 54 8l13 -85q-19 -9 -58 -13v-53h-75z" />
<glyph unicode="&#xf6e0;" horiz-adv-x="336" d="M164 440v55q-60 11 -94 49q-34 40 -34 97q0 54 31 95q35 45 97 57v53h75v-49q6 0 11 -1l13 -2q16 -2 29 -6l-17 -88q-21 8 -47 8q-67 0 -67 -61q0 -64 69 -64q28 0 54 8l13 -85q-19 -9 -58 -13v-53h-75z" />
<glyph unicode="&#xf6e1;" horiz-adv-x="189" d="M-11 -212q37 104 52 198l128 5q-37 -107 -94 -197z" />
<glyph unicode="&#xf6e2;" horiz-adv-x="189" d="M-11 378q37 104 52 198l128 5q-37 -107 -94 -197z" />
<glyph unicode="&#xf6e3;" horiz-adv-x="368" d="M146 -197v53q-72 5 -117 28l21 90q27 -13 53 -20q32 -8 65 -8q51 0 51 23q0 11 -13 18q-12 7 -52 19q-63 19 -89 41q-33 27 -33 72q0 93 114 115v53h75v-48q58 -1 99 -20l-21 -88l-16 7l-22 7q-31 9 -63 9q-25 0 -36 -7q-9 -5 -9 -14q0 -11 14 -19q15 -8 62 -21 q112 -31 112 -114q0 -97 -121 -117v-59h-74z" />
<glyph unicode="&#xf6e4;" horiz-adv-x="368" d="M146 393v53q-72 5 -117 28l21 90q27 -13 53 -20q32 -8 65 -8q51 0 51 23q0 11 -13 18q-12 7 -52 19q-63 19 -89 41q-33 27 -33 72q0 93 114 115v53h75v-48q58 -1 99 -20l-21 -88l-16 7l-22 7q-31 9 -63 9q-25 0 -36 -7q-9 -5 -9 -14q0 -11 14 -19q15 -8 62 -21 q112 -31 112 -114q0 -97 -121 -117v-59h-74z" />
<glyph unicode="&#xf6e5;" horiz-adv-x="213" d="M195 81v-82h-177v82h177z" />
<glyph unicode="&#xf6e6;" horiz-adv-x="213" d="M195 671v-82h-177v82h177z" />
<glyph unicode="&#xf6e7;" horiz-adv-x="189" d="M94 -152q-72 0 -72 72t73 72t73 -72t-73 -72h-1z" />
<glyph unicode="&#xf6e8;" horiz-adv-x="189" d="M94 438q-72 0 -72 72t73 72t73 -72t-73 -72h-1z" />
<glyph unicode="&#xf730;" horiz-adv-x="575" d="M286 -11q-124 0 -195 79q-63 72 -63 178t64 177q71 80 196 80q124 0 196 -80q63 -71 63 -177q0 -107 -63 -178q-71 -79 -196 -79h-2zM289 119q87 0 87 127t-88 127q-89 0 -89 -127t89 -127h1z" />
<glyph unicode="&#xf731;" horiz-adv-x="434" d="M180 0v334h-2l-123 -56l-29 133l184 81h144v-492h-174z" />
<glyph unicode="&#xf732;" horiz-adv-x="488" d="M22 0v97l66 41q163 100 163 162q0 63 -80 63q-56 0 -109 -30l-40 115q33 21 79 36q61 20 124 20q208 0 208 -168q0 -58 -41 -109q-31 -40 -84 -74l-39 -23v-3q64 11 116 11h81v-138h-444z" />
<glyph unicode="&#xf733;" horiz-adv-x="488" d="M40 24q48 -17 120 -17q113 0 113 67q0 62 -112 62q-21 0 -55 -2v125l31 2q56 4 86 17q36 14 36 40q0 48 -76 48q-31 0 -68 -10q-32 -9 -59 -23l-30 118q76 52 200 52q95 0 153 -41q60 -41 60 -111q0 -49 -35 -88t-86 -50v-2q62 -10 100 -45q42 -39 42 -97q0 -91 -86 -147 q-79 -52 -194 -52q-104 0 -159 24z" />
<glyph unicode="&#xf734;" horiz-adv-x="601" d="M483 530l1 -2v-324l-1 -1h-170l-1 1v64q0 39 4 131h-4q-34 -79 -118 -241l-1 -2h363l1 -2v-133l-1 -1h-72v-147l-1 -1h-170l-1 1v147h-284l-2 1v115q2 7 108 187l121 207h228z" />
<glyph unicode="&#xf735;" horiz-adv-x="476" d="M37 15q44 -12 109 -12q50 0 82 19q34 20 34 54q0 27 -17 43q-19 19 -60 27q-49 9 -146 8l54 338h344l-19 -145h-209l-13 -73q141 -5 204 -65q48 -48 48 -121q0 -94 -70 -154q-76 -64 -212 -64q-43 0 -86 7q-37 6 -62 14z" />
<glyph unicode="&#xf736;" horiz-adv-x="599" d="M448 654q31 0 31 -4v-136l-2 -1h-52q-171 0 -218 -117q-22 -56 -22 -128q0 -113 57 -147q24 -14 52 -14h7q34 0 56 43q11 24 11 50v12q0 44 -32 74q-23 16 -48 16q-22 0 -47 -9v9q0 64 32 111q10 13 32 13q22 4 42 4q107 0 171 -88q35 -57 35 -119v-16q0 -97 -80 -172 q-74 -61 -173 -61q-124 0 -199 78q-74 84 -74 208v10q0 156 101 270q48 46 81 61q87 53 239 53z" />
<glyph unicode="&#xf737;" horiz-adv-x="496" d="M470 384q-45 -112 -116 -252q-77 -149 -149 -260l-174 19q73 108 139 225q36 63 65 118q31 61 51 109v2h-268v147h452v-108z" />
<glyph unicode="&#xf738;" horiz-adv-x="562" d="M307 679q66 0 132 -36q50 -33 69 -85q8 -24 8 -44v-12q0 -68 -65 -121l-25 -16v-2q69 -26 98 -84q18 -34 18 -74v-5q0 -115 -119 -173q-66 -28 -147 -28q-163 0 -232 102q-23 40 -23 79v7q0 79 63 129q45 -22 138 -64l-11 -26q-4 -15 -4 -25q0 -45 44 -71q18 -7 32 -7 q47 0 67 41q4 8 5 27q0 64 -88 96q-87 35 -117 51q-109 63 -109 153q0 112 123 168q57 20 93 20v-123q0 -1 -14 -6q-29 -20 -29 -54v-3q0 -43 73 -71l7 -2q20 5 38 28q13 20 13 40q0 47 -41 66v124q0 1 3 1z" />
<glyph unicode="&#xf739;" horiz-adv-x="584" d="M280 555h8q157 0 228 -136q31 -69 31 -147v-7q0 -186 -107 -290q-106 -100 -299 -100h-6l-47 1v1v138v1v1q39 -8 65 -8h3q80 0 146 43q83 58 83 231v1q0 107 -69 133q-16 6 -34 6h-3q-47 0 -67 -57q-4 -17 -4 -35v-4q0 -64 50 -86q14 -4 24 -4h8q16 0 32 6h1 q-4 -54 -12 -75q-14 -43 -40 -58q-32 -7 -57 -7q-113 0 -166 106q-22 48 -22 102v8q0 101 88 178q76 58 166 58z" />
<glyph unicode="&#xfb00;" horiz-adv-x="679" d="M393 0v360h-135v-360h-181v360h-63v132h63v4q0 43 13 81q14 42 44 72q56 58 162 58q32 0 62 -10l-22 -133q-18 5 -33 5q-47 0 -47 -65v-12h137v16q0 45 15 86q17 47 49 76q29 27 70 40q35 11 73 11q42 0 83 -9l-3 -138q-23 5 -46 5q-62 0 -62 -63v-24h90v-132h-88v-360 h-181z" />
<glyph unicode="&#xfb01;" horiz-adv-x="616" d="M77 0v360h-63v132h63v18q0 100 78 157q75 54 197 54q102 0 153 -30l-31 -135q-48 23 -115 23q-103 0 -103 -73v-14h305v-492h-181v360h-122v-360h-181z" />
<glyph unicode="&#xfb02;" horiz-adv-x="616" d="M77 0v360h-63v132h63v21q0 90 77 151q74 57 199 57q123 0 208 -45v-676h-181v579q-15 9 -51 9q-73 0 -73 -79v-17h78v-132h-76v-360h-181z" />
<glyph unicode="&#xfb03;" horiz-adv-x="936" d="M780 562q-47 17 -101 17q-103 0 -103 -73v-14h305v-492h-181v360h-122v-360h-181v360h-139v-360h-181v360h-63v132h63v4q0 99 65 157q59 54 156 54q23 0 48 -5q19 -3 37 -9l-38 -129q-18 6 -35 6q-21 0 -37 -14q-17 -16 -17 -52v-12h141v18q0 100 78 157q75 54 197 54 q87 0 143 -24z" />
<glyph unicode="&#xfb04;" horiz-adv-x="936" d="M351 564q-16 6 -39 6q-26 0 -38 -14q-18 -17 -18 -52v-12h141v21q0 90 77 151q74 57 199 57q123 0 208 -45v-676h-181v579q-15 9 -51 9q-73 0 -73 -79v-17h78v-132h-76v-360h-181v360h-139v-360h-181v360h-63v132h63v4q0 97 64 153q64 58 171 58q37 0 74 -11z" />
</font>
</defs>
</svg>
